<svg width="138" height="138" viewBox="0 0 138 138" fill="none" xmlns="http://www.w3.org/2000/svg">
<g opacity="0.9">
<path d="M81.8334 24.5161L85.1414 20.5004C86.6333 18.6896 87.306 16.3089 86.9845 13.9685C85.9786 6.61087 76.7129 4.1018 71.9832 9.84174L59.8626 24.4757H54.8766C52.7146 24.4757 50.7554 25.3487 49.3339 26.7618C48.1827 25.6673 46.6286 24.9918 44.9155 24.9918H36.8945C33.7246 24.9918 31.1465 27.5699 31.1465 30.7398V59.4913C31.1465 62.6612 33.7246 65.2393 36.8945 65.2393H44.9155C46.4343 65.2393 47.8288 64.7097 48.9285 63.8205C50.3689 65.4878 52.5012 66.5447 54.8766 66.5447H78.7961C86.6818 66.5447 93.0977 60.129 93.0977 52.243V36.7172C93.0974 30.2967 88.1275 25.0161 81.8334 24.5161ZM46.9987 58.8347C46.9987 59.9832 46.0637 60.9155 44.9152 60.9155H36.8942C36.1104 60.9155 35.47 60.2778 35.47 59.4913V30.7398C35.47 29.9534 36.1104 29.3156 36.8942 29.3156H44.9152C46.0637 29.3156 46.999 30.248 46.999 31.3964C46.9987 40.2087 46.9987 50.2782 46.9987 58.8347ZM88.7733 52.2433C88.7733 57.7455 84.298 62.2208 78.7958 62.2208H54.8763C52.9171 62.2208 51.3225 60.6263 51.3225 58.6671V32.353C51.3225 30.3938 52.9171 28.7992 54.8763 28.7992H60.0866C61.2404 28.7992 62.3215 28.2885 63.0512 27.402L75.3175 12.5953C77.6681 9.73662 82.2027 10.9325 82.7008 14.5545C82.8577 15.703 82.5304 16.8679 81.8035 17.7514L77.8713 22.524C77.0622 23.3331 76.666 25.1177 77.3875 26.6182C78.0333 27.9639 79.3629 28.799 80.8548 28.799C85.2193 28.799 88.7731 32.3527 88.7731 36.7172V52.2433H88.7733Z" fill="#4D3825"/>
<path d="M87.3249 0.280273H36.9185C16.5608 0.280273 0 16.8408 0 37.1985C0 50.3487 7.01563 62.4611 18.3931 69.101V79.4327C18.3931 80.5542 19.3011 81.4596 20.42 81.4596C21.5415 81.4596 22.4468 80.5542 22.4468 79.4327V67.9148C22.4468 67.1717 22.0388 66.4852 21.3849 66.1311C10.6939 60.3504 4.05402 49.2622 4.05402 37.1985C4.05402 19.0785 18.796 4.33375 36.9188 4.33375H87.3252C112.643 4.33375 128.406 31.9033 115.752 53.6405C115.187 54.6051 115.517 55.8485 116.482 56.4104C117.449 56.9727 118.693 56.6455 119.255 55.6781C133.459 31.3022 115.811 0.280273 87.3249 0.280273Z" fill="#4D3825"/>
<path d="M135.891 88.3699C135.475 87.3322 134.293 86.8269 133.256 87.243C132.25 87.643 131.745 88.7591 132.088 89.7726C132.091 89.7753 132.091 89.7806 132.094 89.786C138.027 107.064 128.845 125.916 111.52 131.863C94.2772 137.785 75.4036 128.658 69.4426 111.29C61.065 86.8942 82.6151 62.9051 107.442 68.1041C116.174 69.9256 124.011 75.2548 128.81 82.9027C129.405 83.8485 130.656 84.135 131.605 83.5405C132.553 82.9459 132.84 81.6947 132.242 80.7462C127.551 73.2721 120.243 67.6155 111.579 64.9719C112.466 64.2016 113.314 63.3855 114.128 62.5262C114.898 61.7127 114.86 60.4317 114.047 59.6616C113.233 58.8913 111.952 58.9293 111.182 59.7427C109.755 61.2508 108.199 62.6127 106.534 63.81C96.8008 62.2774 87.1233 64.7175 79.4737 70.0663H44.004C43.2013 70.0663 42.4744 70.5367 42.1501 71.269L31.1484 96.0696C29.1412 100.593 22.4463 99.1089 22.4463 94.2266V87.5406C22.4463 86.4217 21.541 85.5137 20.4195 85.5137C19.3006 85.5137 18.3926 86.4217 18.3926 87.5406V94.2266C18.3926 103.401 31.0498 106.275 34.8534 97.7154L45.3201 74.1201H74.6095C64.559 84.0722 60.9192 98.9563 65.6077 112.606C70.7641 127.629 84.8924 137.72 100.764 137.72C126.687 137.72 144.269 111.867 135.891 88.3699Z" fill="#4D3825"/>
<path d="M93.0701 89.1836C94.928 89.1836 96.4341 87.6775 96.4341 85.8196C96.4341 83.9617 94.928 82.4556 93.0701 82.4556C91.2122 82.4556 89.7061 83.9617 89.7061 85.8196C89.7061 87.6775 91.2122 89.1836 93.0701 89.1836Z" fill="#4D3825"/>
<path d="M108.464 89.1836C110.322 89.1836 111.828 87.6775 111.828 85.8196C111.828 83.9617 110.322 82.4556 108.464 82.4556C106.606 82.4556 105.1 83.9617 105.1 85.8196C105.1 87.6775 106.606 89.1836 108.464 89.1836Z" fill="#4D3825"/>
<path d="M118.897 91.1754C117.778 91.1754 116.87 92.0829 116.87 93.2023C116.87 102.081 109.647 109.305 100.768 109.305C91.8885 109.305 84.6651 102.081 84.6651 93.2023C84.6651 92.0829 83.7578 91.1754 82.6382 91.1754C81.5186 91.1754 80.6113 92.0829 80.6113 93.2023C80.6113 104.316 89.6536 113.358 100.768 113.358C111.882 113.358 120.924 104.316 120.924 93.2023C120.924 92.0829 120.017 91.1754 118.897 91.1754Z" fill="#4D3825"/>
</g>
</svg>
