<svg width="40" height="40" viewBox="0 0 40 40" fill="none" xmlns="http://www.w3.org/2000/svg">
<g opacity="0.3" clip-path="url(#clip0)">
<path d="M39.1032 31.6117L32.9258 25.4337C31.6954 24.2082 29.6578 24.2454 28.3845 25.5192L25.2723 28.6307C25.0757 28.5223 24.8722 28.4091 24.6582 28.289C22.6929 27.2001 20.003 25.7075 17.1725 22.8749C14.3336 20.0364 12.8397 17.3424 11.7474 15.3758C11.6321 15.1674 11.5217 14.9666 11.4126 14.7758L13.5014 12.6902L14.5283 11.662C15.8035 10.3864 15.8387 8.34941 14.6111 7.12038L8.43374 0.941628C7.2062 -0.285687 5.16769 -0.248454 3.89245 1.02713L2.15146 2.77812L2.19903 2.82535C1.61525 3.57024 1.12743 4.42936 0.764407 5.35582C0.429769 6.2377 0.221424 7.07924 0.126158 7.9225C-0.689524 14.6847 2.4006 20.8648 10.7868 29.2511C22.379 40.8426 31.7209 39.9669 32.1239 39.9242C33.0016 39.8192 33.8428 39.6095 34.6977 39.2775C35.6161 38.9187 36.4747 38.4316 37.2191 37.8491L37.2571 37.8829L39.0209 36.1558C40.2935 34.8804 40.3301 32.8427 39.1032 31.6117Z" fill="white"/>
</g>
<defs>
<clipPath id="clip0">
<rect width="40" height="40" fill="white"/>
</clipPath>
</defs>
</svg>
