<svg width="24" height="24" viewBox="0 0 24 24" fill="none" xmlns="http://www.w3.org/2000/svg">
<path d="M15.2404 11.9999C15.2404 10.1999 13.8004 8.7599 12.0004 8.7599C10.2004 8.7599 8.76039 10.1999 8.76039 11.9999C8.76039 13.7999 10.2004 15.2399 12.0004 15.2399C13.8004 15.2399 15.2404 13.7999 15.2404 11.9999ZM16.9204 11.9999C16.9204 14.7599 14.7604 16.9199 12.0004 16.9199C9.24039 16.9199 7.08039 14.7599 7.08039 11.9999C7.08039 9.2399 9.24039 7.0799 12.0004 7.0799C14.7604 7.0799 16.9204 9.2399 16.9204 11.9999ZM18.2404 6.8399C18.2404 7.5599 17.7604 8.0399 17.0404 8.0399C16.3204 8.0399 15.8404 7.5599 15.8404 6.8399C15.8404 6.1199 16.3204 5.6399 17.0404 5.6399C17.7604 5.6399 18.2404 6.2399 18.2404 6.8399ZM12.0004 4.0799C10.5604 4.0799 7.56039 3.9599 6.36039 4.4399C5.52039 4.7999 4.80039 5.5199 4.56039 6.3599C4.08039 7.5599 4.20039 10.5599 4.20039 11.9999C4.20039 13.4399 4.08039 16.4399 4.56039 17.6399C4.80039 18.4799 5.52039 19.1999 6.36039 19.4399C7.56039 19.9199 10.6804 19.7999 12.0004 19.7999C13.3204 19.7999 16.4404 19.9199 17.6404 19.4399C18.4804 19.0799 19.0804 18.4799 19.4404 17.6399C19.9204 16.3199 19.8004 13.3199 19.8004 11.9999C19.8004 10.6799 19.9204 7.5599 19.4404 6.3599C19.2004 5.5199 18.4804 4.7999 17.6404 4.5599C16.4404 3.9599 13.4404 4.0799 12.0004 4.0799ZM21.6004 11.9999V15.9599C21.6004 17.3999 21.1204 18.8399 20.0404 20.0399C18.9604 21.1199 17.5204 21.5999 15.9604 21.5999H8.04039C6.60039 21.5999 5.16039 21.1199 3.96039 20.0399C3.00039 18.9599 2.40039 17.5199 2.40039 15.9599V11.9999V8.0399C2.40039 6.4799 3.00039 5.0399 3.96039 3.9599C5.16039 2.9999 6.60039 2.3999 8.04039 2.3999H15.9604C17.4004 2.3999 18.8404 2.8799 20.0404 3.9599C21.0004 5.0399 21.6004 6.4799 21.6004 8.0399V11.9999Z" fill="#F78012"/>
</svg>
