<svg width="140" height="68" viewBox="0 0 140 68" fill="none" xmlns="http://www.w3.org/2000/svg">
<g clip-path="url(#clip0)">
<path d="M72.6864 19.3287L65.0354 0.000293474H60.9893L71.3253 25.8944H74.0472L84.3832 0.000293474H80.4105L72.6861 19.3287H72.6864ZM100.237 0.0369769H86.9582V3.57796H91.74V22.2425H86.9582V25.8205H100.237V22.2425H95.4552V3.57796H100.237V0.0369769ZM107.41 25.8205V7.78306L119.843 25.8205H122.785V0H119.107V18.185L106.564 0H103.695V25.8205H107.41ZM140 0.0369769H126.721V3.57796H131.503V22.2425H126.721V25.8205H140V22.2425H135.218V3.57796H140V0.0369769Z" fill="#F78012"/>
<path d="M68.4541 30.332V56.2332H72.2178V33.9954H83.066V56.2332H86.8666V30.332H68.4544H68.4541ZM100.113 56.2332C105.684 56.2332 108.489 51.904 108.489 47.5747C108.489 43.2455 105.684 38.9535 100.113 38.9535H94.4303V30.3323H90.6666V56.2335H100.112L100.113 56.2332ZM100.113 42.6536C103.249 42.6536 104.799 45.0958 104.799 47.5378C104.799 50.017 103.249 52.5329 100.113 52.5329H94.4303V42.6536H100.113ZM110.481 56.2332H114.282V30.332H110.481V56.2332ZM116.827 30.332L126.163 43.0606L116.827 56.2332H121.403L128.413 46.0578L135.461 56.2332H139.999L130.664 43.0606L139.999 30.332H135.461L128.413 39.8413L121.403 30.332H116.827Z" fill="#F78012"/>
<path fill-rule="evenodd" clip-rule="evenodd" d="M31.5525 5.31489H19.9285L14.7481 0.119629H7.28736L4.8063 4.73206L8.38713 15.4924L0.119263 32.5332L11.3996 54.003L26.5813 55.1959L31.5525 55.22L36.5237 55.1959L51.7053 54.003L62.9857 32.5332L54.7178 15.4924L58.2987 4.73206L55.8176 0.119629H48.3569L43.1764 5.31489H31.5525Z" fill="#727271" stroke="#B2B3B3" stroke-width="0.25" stroke-miterlimit="22.9256" stroke-linejoin="round"/>
<path fill-rule="evenodd" clip-rule="evenodd" d="M48.3563 0.118896L43.1758 5.31416L46.9645 8.655L48.3563 0.118896Z" fill="#727271" stroke="#B2B3B3" stroke-width="0.25" stroke-miterlimit="22.9256" stroke-linejoin="round"/>
<path fill-rule="evenodd" clip-rule="evenodd" d="M54.7173 15.4916L46.9645 8.65499L48.3563 0.118896L54.7173 15.4916Z" fill="#727271" stroke="#B2B3B3" stroke-width="0.25" stroke-miterlimit="22.9256" stroke-linejoin="round"/>
<path fill-rule="evenodd" clip-rule="evenodd" d="M43.1758 5.31421L31.551 13.5263V5.31421H43.1758Z" fill="#B2B3B3" stroke="#B2B3B3" stroke-width="0.25" stroke-miterlimit="22.9256" stroke-linejoin="round"/>
<path fill-rule="evenodd" clip-rule="evenodd" d="M31.551 13.5263L43.1758 5.31421L54.7173 15.4917L52.2031 38.1019L40.0709 48.3651L39.9784 31.3606L31.551 13.5263Z" fill="#727271" stroke="#B2B3B3" stroke-width="0.25" stroke-miterlimit="22.9256" stroke-linejoin="round"/>
<path fill-rule="evenodd" clip-rule="evenodd" d="M54.7172 15.4916L43.1758 5.31416L48.3563 0.118896L54.7172 15.4916Z" fill="#727271" stroke="#B2B3B3" stroke-width="0.25" stroke-miterlimit="22.9256" stroke-linejoin="round"/>
<path fill-rule="evenodd" clip-rule="evenodd" d="M54.7172 15.4916L48.3563 0.118896H55.817L58.2981 4.73133L54.7172 15.4916Z" fill="#B2B3B3" stroke="#B2B3B3" stroke-width="0.25" stroke-miterlimit="22.9256" stroke-linejoin="round"/>
<path fill-rule="evenodd" clip-rule="evenodd" d="M51.7048 54.0023L62.9851 32.5325L52.2032 38.1019L40.0709 48.3651L36.5231 55.1952L51.7048 54.0023Z" fill="#898989" stroke="#B2B3B3" stroke-width="0.25" stroke-miterlimit="22.9256" stroke-linejoin="round"/>
<path fill-rule="evenodd" clip-rule="evenodd" d="M62.9851 32.5325L54.7173 15.4917L52.2031 38.1019L62.9851 32.5325Z" fill="#B2B3B3" stroke="#B2B3B3" stroke-width="0.25" stroke-miterlimit="22.9256" stroke-linejoin="round"/>
<path fill-rule="evenodd" clip-rule="evenodd" d="M14.7476 0.118896L19.928 5.31416L16.1394 8.655L14.7476 0.118896Z" fill="#727271" stroke="#B2B3B3" stroke-width="0.25" stroke-miterlimit="22.9256" stroke-linejoin="round"/>
<path fill-rule="evenodd" clip-rule="evenodd" d="M8.3866 15.4916L16.1394 8.65499L14.7476 0.118896L8.3866 15.4916Z" fill="#727271" stroke="#B2B3B3" stroke-width="0.25" stroke-miterlimit="22.9256" stroke-linejoin="round"/>
<path fill-rule="evenodd" clip-rule="evenodd" d="M31.5519 46.1946L25.8696 44.116V40.4004H31.5519H37.2342V44.116L31.5519 46.1946Z" fill="#2B2A29" stroke="#B2B3B3" stroke-width="0.25" stroke-miterlimit="22.9256" stroke-linejoin="round"/>
<path fill-rule="evenodd" clip-rule="evenodd" d="M31.5519 51.4258L23.0332 48.3652H31.5519H40.0708L31.5519 51.4258Z" fill="#5B5B5B" stroke="#B2B3B3" stroke-width="0.25" stroke-miterlimit="22.9256" stroke-linejoin="round"/>
<path fill-rule="evenodd" clip-rule="evenodd" d="M19.928 5.31421L31.5528 13.5263V5.31421H19.928Z" fill="#B2B3B3" stroke="#B2B3B3" stroke-width="0.25" stroke-miterlimit="22.9256" stroke-linejoin="round"/>
<path fill-rule="evenodd" clip-rule="evenodd" d="M31.5528 13.5263L19.928 5.31421L8.3866 15.4917L10.9007 38.1019L23.0333 48.3651L23.1255 31.3606L31.5528 13.5263Z" fill="#727271" stroke="#B2B3B3" stroke-width="0.25" stroke-miterlimit="22.9256" stroke-linejoin="round"/>
<path fill-rule="evenodd" clip-rule="evenodd" d="M8.3866 15.4916L19.928 5.31416L14.7476 0.118896L8.3866 15.4916Z" fill="#727271" stroke="#B2B3B3" stroke-width="0.25" stroke-miterlimit="22.9256" stroke-linejoin="round"/>
<path fill-rule="evenodd" clip-rule="evenodd" d="M8.38655 15.4916L14.7475 0.118896H7.28679L4.80573 4.73133L8.38655 15.4916Z" fill="#B2B3B3" stroke="#B2B3B3" stroke-width="0.25" stroke-miterlimit="22.9256" stroke-linejoin="round"/>
<path fill-rule="evenodd" clip-rule="evenodd" d="M11.3991 54.0023L0.118713 32.5325L10.9007 38.1019L23.0333 48.3651L26.5807 55.1952L11.3991 54.0023Z" fill="#898989" stroke="#B2B3B3" stroke-width="0.25" stroke-miterlimit="22.9256" stroke-linejoin="round"/>
<path fill-rule="evenodd" clip-rule="evenodd" d="M0.118713 32.5325L8.38658 15.4917L10.9007 38.1019L0.118713 32.5325Z" fill="#B2B3B3" stroke="#B2B3B3" stroke-width="0.25" stroke-miterlimit="22.9256" stroke-linejoin="round"/>
<path fill-rule="evenodd" clip-rule="evenodd" d="M39.9784 31.3607L31.551 13.5264L31.5469 26.8991L39.9784 31.3607Z" fill="#898989" stroke="#B2B3B3" stroke-width="0.25" stroke-miterlimit="22.9256" stroke-linejoin="round"/>
<path d="M39.8517 26.6077L38.2532 27.7099" stroke="#B2B3B3" stroke-width="0.25" stroke-miterlimit="22.9256" stroke-linejoin="round"/>
<path fill-rule="evenodd" clip-rule="evenodd" d="M39.8516 26.6076L42.4161 24.811L44.8573 26.6076L42.4161 28.4043L39.8516 26.6076Z" fill="#2B2A29" stroke="#B2B3B3" stroke-width="0.25" stroke-miterlimit="22.9256" stroke-linejoin="round"/>
<path fill-rule="evenodd" clip-rule="evenodd" d="M23.1254 31.3607L31.5528 13.5264L31.5569 26.8991L23.1254 31.3607Z" fill="#898989" stroke="#B2B3B3" stroke-width="0.25" stroke-miterlimit="22.9256" stroke-linejoin="round"/>
<path d="M23.2521 26.6077L24.8506 27.7099" stroke="#B2B3B3" stroke-width="0.25" stroke-miterlimit="22.9256" stroke-linejoin="round"/>
<path fill-rule="evenodd" clip-rule="evenodd" d="M23.2522 26.6076L20.6877 24.811L18.2465 26.6076L20.6877 28.4043L23.2522 26.6076Z" fill="#2B2A29" stroke="#B2B3B3" stroke-width="0.25" stroke-miterlimit="22.9256" stroke-linejoin="round"/>
<path d="M114.368 68.0001H140V65.4284C138.946 63.8264 136.401 62.6965 133.429 62.6965C130.698 62.6965 128.329 63.6497 127.145 65.0481C126.299 64.5187 125.125 64.1918 123.824 64.1918C121.841 64.1918 120.145 64.9565 119.467 66.0356C119.39 66.1589 119.327 66.2854 119.277 66.416C119.236 66.4151 119.195 66.4151 119.154 66.4151C117.157 66.4151 115.399 67.0443 114.368 68.0001H114.368Z" fill="#D9DADA"/>
<path d="M26.5793 66.5471C26.5793 67.0639 26.7534 67.5554 27.0698 68H56.8419C56.9926 67.7981 57.1126 67.5862 57.1992 67.3664C59.2826 66.8106 60.7408 65.5296 60.7408 64.037C60.7408 63.7943 60.7028 63.5563 60.6282 63.3271C60.0953 61.6652 57.7234 60.4124 54.8788 60.4124C54.1411 60.4124 53.4337 60.4966 52.7823 60.6504C52.4264 59.252 50.4675 58.1821 48.1061 58.1821C47.0622 58.1821 46.0974 58.3901 45.3154 58.7432C44.906 57.4211 43.0585 56.4151 40.8189 56.3705C40.0018 56.0896 39.0326 55.596 38.373 54.7388L34.527 50.3564C37.6762 54.8697 38.1602 56.0876 37.5831 57.0733C36.5705 57.6104 35.9288 58.4069 35.9288 59.2964C35.9288 59.3181 35.9288 59.3389 35.9302 59.3597C35.6007 59.3207 35.2612 59.299 34.9127 59.299C31.9874 59.299 29.6143 60.7663 29.6143 62.5759C29.6143 62.8329 29.6626 63.0836 29.7533 63.3245C28.9114 63.5942 28.1883 63.9854 27.6451 64.4614C26.9732 65.0515 26.5793 65.7711 26.5793 66.5468V66.5471Z" fill="#D9DADA"/>
<path d="M0.118701 66.8758V68.0001H31.0655C31.2247 67.7712 31.3067 67.5302 31.3067 67.2831C31.3067 65.9018 28.727 64.7467 25.277 64.4617C24.7397 64.4165 24.1825 64.3931 23.6109 64.3931C20.8504 64.3931 18.4323 64.9389 17.0723 65.758C15.1701 65.0457 12.5448 64.6055 9.64407 64.6055C5.43463 64.6055 1.79908 65.5344 0.118408 66.8758H0.118701Z" fill="#D9DADA"/>
<path d="M49.7862 68.0001H119.467C119.239 67.2471 117.973 66.5609 116.01 66.0359C113.758 65.432 110.588 65.0411 107.026 65.0041C104.61 64.9794 102.321 65.12 100.337 65.3868C98.7808 63.859 93.3616 62.701 86.727 62.6332C83.2954 62.5971 80.0889 62.8594 77.5136 63.3275C76.0664 63.5893 74.8186 63.9159 73.8391 64.2916C71.3724 63.7175 68.1006 63.3536 64.4659 63.3167C56.3769 63.2333 49.5468 64.8019 49.2129 66.8207C49.1441 67.2306 49.3507 67.6271 49.7859 68.0001H49.7862Z" fill="#D9DADA"/>
<path d="M42.3544 27.1376C42.6317 27.1376 42.8565 26.9003 42.8565 26.6076C42.8565 26.3149 42.6317 26.0776 42.3544 26.0776C42.077 26.0776 41.8522 26.3149 41.8522 26.6076C41.8522 26.9003 42.077 27.1376 42.3544 27.1376Z" fill="#FEFEFE" stroke="#2B2A29" stroke-width="0.25" stroke-miterlimit="22.9256"/>
<path d="M20.7494 27.1376C21.0268 27.1376 21.2516 26.9003 21.2516 26.6076C21.2516 26.3149 21.0268 26.0776 20.7494 26.0776C20.4721 26.0776 20.2473 26.3149 20.2473 26.6076C20.2473 26.9003 20.4721 27.1376 20.7494 27.1376Z" fill="#FEFEFE" stroke="#2B2A29" stroke-width="0.25" stroke-miterlimit="22.9256"/>
</g>
<defs>
<clipPath id="clip0">
<rect width="140" height="68" fill="white"/>
</clipPath>
</defs>
</svg>
