<svg width="10" height="10" viewBox="0 0 10 10" fill="none" xmlns="http://www.w3.org/2000/svg">
<g clip-path="url(#clip0)">
<path d="M5.12617 0.00208426C3.09537 -0.0663546 1.42764 1.55949 1.42764 3.57483C1.42764 5.86201 3.62255 7.52189 4.8528 9.90902C4.91526 10.0302 5.08974 10.0304 5.15241 9.90919C6.26535 7.76126 8.1675 6.32095 8.52001 4.25166C8.88501 2.11035 7.29709 0.075274 5.12617 0.00208426ZM5.00243 5.44733C3.96829 5.44733 3.12993 4.60895 3.12993 3.57483C3.12993 2.54071 3.96831 1.70233 5.00243 1.70233C6.03657 1.70233 6.87495 2.54071 6.87495 3.57483C6.87495 4.60895 6.03657 5.44733 5.00243 5.44733Z" fill="#F78012"/>
</g>
<defs>
<clipPath id="clip0">
<rect width="10" height="10" fill="white"/>
</clipPath>
</defs>
</svg>
