<svg width="13" height="13" viewBox="0 0 13 13" fill="none" xmlns="http://www.w3.org/2000/svg">
<path d="M12.6614 6.20034L6.59107 0.130349C6.50443 0.0435712 6.40451 0 6.29159 0C6.17881 0 6.07903 0.0435712 5.99221 0.130349L5.34083 0.781635C5.25401 0.868458 5.21066 0.968193 5.21066 1.08125C5.21066 1.19431 5.25401 1.29404 5.34083 1.38086L10.4602 6.50009L5.34087 11.6195C5.25405 11.7063 5.21071 11.8062 5.21071 11.9189C5.21071 12.0319 5.25405 12.1319 5.34087 12.2187L5.99225 12.8698C6.07903 12.9567 6.17881 13 6.29164 13C6.4047 13 6.50448 12.9566 6.59107 12.8698L12.6614 6.79975C12.7482 6.71297 12.7915 6.61301 12.7915 6.50014C12.7915 6.38726 12.7482 6.28734 12.6614 6.20034Z" fill="#F78012"/>
<path d="M7.78952 6.50014C7.78952 6.38726 7.74631 6.2873 7.65917 6.20034L1.58922 0.130349C1.50245 0.0435712 1.40253 0 1.28965 0C1.17678 0 1.07682 0.0435712 0.99004 0.130349L0.338799 0.781681C0.251839 0.868504 0.208496 0.968238 0.208496 1.0813C0.208496 1.19435 0.251839 1.29409 0.338799 1.38091L5.45802 6.50014L0.338799 11.6195C0.251839 11.7063 0.208496 11.8062 0.208496 11.9189C0.208496 12.0319 0.251839 12.1319 0.338799 12.2187L0.989994 12.8698C1.07682 12.9567 1.17673 13 1.28961 13C1.40248 13 1.5024 12.9566 1.58922 12.8698L7.65917 6.79975C7.74631 6.71297 7.78952 6.61301 7.78952 6.50014Z" fill="#F78012"/>
</svg>
