<svg xmlns="http://www.w3.org/2000/svg"
     xmlns:xlink="http://www.w3.org/1999/xlink">
    <symbol id="shishamen" viewBox="0 0 42 48">
        <path d="M20.9984 27.0708C24.3101 27.0708 32.0964 23.0852 32.0964 13.5353C32.0965 6.05992 31.0874 0 20.9984 0C10.9095 0 9.90039 6.05992 9.90039 13.5354C9.90039 23.0852 17.6867 27.0708 20.9984 27.0708ZM11.5591 11.2764C12.3386 9.76877 14.0249 8.0265 17.6514 8.10378C17.6514 8.10378 19.8129 13.3468 30.4246 10.9923C30.4675 11.8298 30.4809 12.6843 30.4809 13.5354C30.4809 18.2034 28.4198 21.0957 26.6905 22.7C24.5117 24.7217 22.0927 25.4554 20.9984 25.4554C19.904 25.4554 17.485 24.7217 15.3062 22.7C13.577 21.0957 11.5158 18.2034 11.5158 13.5354C11.516 12.7803 11.5269 12.0225 11.5591 11.2764Z"
              fill="white"/>
        <path d="M41.602 40.9514C41.0354 37.4283 39.8689 32.8902 37.5294 31.2775C35.9318 30.176 30.3578 27.198 27.9776 25.9263L27.9364 25.9044C27.6644 25.759 27.3322 25.7881 27.0895 25.9786C25.8426 26.9575 24.4767 27.6173 23.0299 27.9394C22.7743 27.9964 22.5645 28.178 22.4716 28.4228L20.9982 32.3064L19.5249 28.4228C19.4319 28.178 19.2222 27.9964 18.9666 27.9394C17.5197 27.6173 16.1539 26.9575 14.907 25.9786C14.6643 25.7881 14.3321 25.7589 14.06 25.9044C11.7081 27.1611 6.06594 30.1998 4.47412 31.2727C1.78096 33.087 0.603291 39.6535 0.394636 40.9514C0.373908 41.0802 0.385988 41.2118 0.429366 41.3347C0.525732 41.6068 2.99747 47.999 20.9982 47.999C38.999 47.999 41.4707 41.6068 41.5671 41.3347C41.6106 41.2118 41.6227 41.0801 41.602 40.9514ZM33.3071 38.8016L29.7837 39.8998L26.2603 38.8016V36.9058H33.3071V38.8016Z"
              fill="white"/>
    </symbol>
    <symbol id="ok" viewBox="0 0 40 54">
        <path d="M29.5891 25.7874C29.05 25.5925 28.7396 25.0214 28.8653 24.4564L33.2524 2.33434C33.3679 1.81636 33.267 1.27324 32.9729 0.833547C32.6787 0.393859 32.2181 0.097162 31.7002 0.0139219C30.651 -0.110526 29.6875 0.612261 29.4996 1.66512L27.7444 9.47773L24.5685 24.4004C24.4432 25.0016 23.8903 25.4104 23.2865 25.3481C22.6832 25.2859 22.2226 24.7729 22.2194 24.1581L21.9024 2.84738C21.8845 1.78215 21.0175 0.932858 19.9658 0.95099C18.9141 0.968709 18.0756 1.84685 18.0931 2.91207V23.242C18.0939 23.7839 17.7233 24.2537 17.2013 24.3723C16.6793 24.4914 16.1459 24.2277 15.9173 23.7377L13.0461 17.5879C12.6458 16.725 11.6832 16.2878 10.7808 16.5589L5.67193 18.0807C5.46647 18.145 5.28787 18.2756 5.16337 18.4532L2.66856 22.0507C2.35935 22.4838 2.26578 23.0372 2.41509 23.5494C2.58434 24.1321 3.04408 24.5808 3.62507 24.73C4.20605 24.8792 4.82161 24.7069 5.24433 24.2767L7.42302 21.993C7.897 21.4861 8.55732 21.2014 9.24653 21.2067C10.4105 21.2051 11.4232 22.0124 11.6958 23.1579L13.1128 28.8813C13.2748 29.8649 13.0697 30.8745 12.5367 31.7131C12.2568 32.2566 11.957 32.789 11.638 33.3103C11.3756 33.8258 11.044 34.3018 10.6522 34.7242C10.0313 35.3617 9.31894 35.1614 8.57237 34.896C8.10368 34.7316 7.66184 34.4967 7.26231 34.1988L5.90424 33.1665C5.18656 32.6189 4.76343 31.7621 4.7614 30.8519V29.8872C4.7614 28.8595 4.35658 27.8738 3.63605 27.1493C2.91592 26.4249 1.93989 26.0219 0.924796 26.0293C0.408096 26.0408 -0.0036374 26.4702 2.42341e-05 26.994V34.4637C-0.000382591 34.7196 0.10011 34.9652 0.279124 35.1457L9.51627 43.9865C10.0228 44.4822 10.4162 45.0843 10.6685 45.7506C11.1778 47.3107 12.6653 48.3236 14.2842 48.2128C14.8102 48.2128 15.2366 48.6446 15.2366 49.1774C15.2366 49.7098 14.8102 50.1417 14.2842 50.1417C13.2906 50.1582 12.3089 49.9237 11.4272 49.4589V53.0353C11.4272 53.5681 11.8536 54 12.3797 54H27.6158C28.1419 54 28.5683 53.5681 28.5683 53.0353V49.4C27.694 49.8907 26.7106 50.1462 25.7114 50.1417C25.1853 50.1417 24.7589 49.7098 24.7589 49.1774C24.7589 48.6446 25.1853 48.2128 25.7114 48.2128C28.5406 48.2128 29.8336 45.6348 30.4211 43.4722C30.9345 41.3673 31.2926 39.2261 31.4915 37.0673C31.6229 35.9522 31.7572 34.8206 31.9313 33.6758C32.2723 31.5479 32.9509 29.4895 33.9408 27.5812L39.8181 16.2165C40.0378 15.7512 40.0594 15.2151 39.8779 14.733C39.6957 14.2327 39.3161 13.8318 38.8307 13.6257C37.8388 13.2693 36.7427 13.7423 36.309 14.7136L30.9964 25.227C30.736 25.7487 30.1306 25.9897 29.5891 25.7874ZM21.9024 44.3549C21.3764 44.3549 20.95 43.923 20.95 43.3902C20.95 37.3623 16.8286 35.6221 16.7867 35.6048C16.4641 35.4816 16.2322 35.1915 16.1809 34.8457C16.1296 34.5004 16.2667 34.1539 16.5393 33.94C16.8123 33.7261 17.1777 33.6779 17.495 33.8147C17.7123 33.9033 22.8545 36.0708 22.8545 43.3902C22.8545 43.923 22.4281 44.3549 21.9024 44.3549ZM27.0894 36.5423C26.8632 36.6568 26.6016 36.6758 26.3619 36.5946C26.1223 36.5134 25.9242 36.3391 25.8115 36.1104C24.4322 33.3132 19.6749 32.0593 17.958 31.8116C17.4372 31.7358 17.076 31.247 17.1504 30.7196C17.2253 30.1925 17.7078 29.8262 18.2286 29.9016C18.5199 29.9441 25.4123 30.987 27.5158 35.2479C27.6289 35.477 27.6472 35.742 27.5674 35.9847C27.4873 36.2274 27.3152 36.4281 27.0894 36.5423Z"
              fill="white"/>
    </symbol>
    <symbol id="hookah-tube" viewBox="0 0 44 52">
        <path d="M1.46663 4.4503C0.605749 4.96133 0 5.86003 0 6.93403V10.6831C0.866229 10.1778 1.86003 9.86729 2.93326 9.86729C4.0065 9.86729 5.0003 10.1778 5.86653 10.6831V6.93403C5.86653 5.86003 5.26078 4.96133 4.3999 4.4503V0.969727H1.46663V4.4503Z"
              fill="white"/>
        <path d="M5.86653 15.734C5.86653 17.3542 4.55343 18.6673 2.93326 18.6673C1.31309 18.6673 0 17.3542 0 15.734C0 14.1139 1.31309 12.8008 2.93326 12.8008C4.55343 12.8008 5.86653 14.1139 5.86653 15.734Z"
              fill="white"/>
        <path d="M43.9993 15.734C43.9993 17.3542 42.6862 18.6673 41.0661 18.6673C39.4459 18.6673 38.1328 17.3542 38.1328 15.734C38.1328 14.1139 39.4459 12.8008 41.0661 12.8008C42.6862 12.8008 43.9993 14.1139 43.9993 15.734Z"
              fill="white"/>
        <path d="M44.0003 21.6007V29.0316C44.0003 35.9248 40.8325 42.0552 35.875 46.0739C37.3126 43.6391 38.1338 40.8235 38.1338 37.8314C38.1338 36.3059 37.9283 34.8393 37.5177 33.4315C37.9283 32.0237 38.1338 30.5571 38.1338 29.0316V21.6007C38.1338 21.3474 38.1658 21.1011 38.2277 20.8662C39.0695 21.3337 40.0373 21.6007 41.067 21.6007C42.0967 21.6007 43.0646 21.3337 43.9063 20.8662C43.9682 21.1011 44.0003 21.3474 44.0003 21.6007Z"
              fill="white"/>
        <path d="M35.1992 37.8314C35.1992 44.7754 29.7363 51.0311 21.9995 51.0311C9.97997 51.0311 0 41.2887 0 29.0316V21.6007C0 21.3474 0.0320826 21.1011 0.0939561 20.8662C0.935742 21.3337 1.90357 21.6007 2.93326 21.6007C3.96296 21.6007 4.93079 21.3337 5.77257 20.8662C5.83444 21.1011 5.86653 21.3474 5.86653 21.6007V29.0316C5.86653 30.5571 6.07201 32.0237 6.48259 33.4021C8.38921 40.178 14.6075 45.1646 21.9995 45.1646C26.5342 45.1646 29.3326 41.5381 29.3326 37.8314C29.3326 33.7836 26.0472 30.4982 21.9995 30.4982C17.9517 30.4982 14.6663 33.7836 14.6663 37.8314C14.6663 38.9753 14.9302 40.0608 15.3996 41.0286C12.5252 39.6502 10.3252 37.1275 9.35703 34.0476C10.9703 28.5916 16.0157 24.6317 21.9995 24.6317C29.3032 24.6317 35.1992 30.5276 35.1992 37.8314Z"
              fill="white"/>
        <path d="M43.9993 6.93403C43.9993 5.86003 43.3936 4.96133 42.5327 4.4503V0.969727H39.5994V4.4503C38.7386 4.96133 38.1328 5.86003 38.1328 6.93403V10.6831C38.999 10.1778 39.9928 9.86729 41.0661 9.86729C42.1393 9.86729 43.1331 10.1778 43.9993 10.6831V6.93403Z"
              fill="white"/>
    </symbol>
    <symbol id="stove" viewBox="0 0 56 46">
        <path d="M43.7678 28.1948C43.7678 27.7736 42.9482 27.4326 41.9376 27.4326C40.927 27.4326 40.1074 27.7736 40.1074 28.1948C40.1074 28.6159 40.927 28.9569 41.9376 28.9569C42.9482 28.9569 43.7678 28.6159 43.7678 28.1948Z"
              fill="white"/>
        <path d="M35.63 29.2093H34.6016C35.3405 30.8564 37.8739 32.2426 40.9236 32.4896V32.1328C40.9236 31.573 41.3774 31.1192 41.9372 31.1192C42.4969 31.1192 42.9507 31.573 42.9507 32.1328V32.4896C46.0004 32.2426 48.5339 30.8564 49.2728 29.2093H48.2443C47.6846 29.2093 47.2308 28.7555 47.2308 28.1957C47.2308 27.636 47.6846 27.1822 48.2443 27.1822H49.2728C48.5339 25.4084 46.0004 24.1444 42.9507 23.9004V24.2567C42.9507 24.8165 42.4969 25.2703 41.9372 25.2703C41.3774 25.2703 40.9236 24.8165 40.9236 24.2567V23.9004C37.8739 24.1444 35.3405 25.4084 34.6016 27.1822H35.63C36.1897 27.1822 36.6436 27.636 36.6436 28.1957C36.6436 28.7555 36.1897 29.2093 35.63 29.2093ZM41.9372 25.4054C44.1004 25.4054 45.7945 26.6308 45.7945 28.1948C45.7945 29.7587 44.1004 30.9841 41.9372 30.9841C39.7739 30.9841 38.0798 29.7587 38.0798 28.1948C38.0798 26.6308 39.7739 25.4054 41.9372 25.4054Z"
              fill="white"/>
        <path d="M7.75695 29.2093H6.72852C7.46742 30.8564 10.0009 32.2426 13.0505 32.4896V32.1328C13.0505 31.573 13.5044 31.1192 14.0641 31.1192C14.6239 31.1192 15.0777 31.573 15.0777 32.1328V32.4896C18.1274 32.2426 20.6608 30.8564 21.3997 29.2093H20.3713C19.8115 29.2093 19.3577 28.7555 19.3577 28.1957C19.3577 27.636 19.8115 27.1822 20.3713 27.1822H21.3997C20.6608 25.4084 18.1274 24.1444 15.0777 23.9004V24.2567C15.0777 24.8165 14.6239 25.2703 14.0641 25.2703C13.5044 25.2703 13.0505 24.8165 13.0505 24.2567V23.9004C10.0009 24.1444 7.46742 25.4084 6.72852 27.1822H7.75695C8.31669 27.1822 8.77053 27.636 8.77053 28.1957C8.77053 28.7555 8.31669 29.2093 7.75695 29.2093ZM14.0641 25.4054C16.2274 25.4054 17.9215 26.6308 17.9215 28.1948C17.9215 29.7587 16.2274 30.9841 14.0641 30.9841C11.9009 30.9841 10.2068 29.7587 10.2068 28.1948C10.2068 26.6308 11.9009 25.4054 14.0641 25.4054Z"
              fill="white"/>
        <path d="M15.8909 28.1948C15.8909 27.7736 15.0713 27.4326 14.0607 27.4326C13.05 27.4326 12.2305 27.7736 12.2305 28.1948C12.2305 28.6159 13.05 28.9569 14.0607 28.9569C15.0713 28.9569 15.8909 28.6159 15.8909 28.1948Z"
              fill="white"/>
        <path d="M0.326172 37.9509H55.6753L51.084 18.4395H4.91748L0.326172 37.9509ZM41.9375 21.8301C47.3107 21.8301 51.52 24.6259 51.52 28.1942C51.52 31.7625 47.3107 34.5583 41.9375 34.5583C36.5642 34.5583 32.355 31.7625 32.355 28.1942C32.355 24.6259 36.5642 21.8301 41.9375 21.8301ZM14.064 21.8301C19.4372 21.8301 23.6465 24.6259 23.6465 28.1942C23.6465 31.7625 19.4372 34.5583 14.064 34.5583C8.6907 34.5583 4.48146 31.7625 4.48146 28.1942C4.48146 24.6259 8.6907 21.8301 14.064 21.8301Z"
              fill="white"/>
        <path d="M0 45.5532H56.0004V39.9785H0V45.5532ZM47.1791 40.6189C48.3817 40.6189 49.3567 41.5939 49.3567 42.7965C49.3567 43.9992 48.3817 44.9742 47.1791 44.9742C45.9764 44.9742 45.0015 43.9992 45.0015 42.7965C45.0015 41.5939 45.9764 40.6189 47.1791 40.6189ZM41.0659 40.6189C42.2685 40.6189 43.2435 41.5939 43.2435 42.7965C43.2435 43.9992 42.2685 44.9742 41.0659 44.9742C39.8633 44.9742 38.8888 43.9992 38.8888 42.7965C38.8883 41.5939 39.8633 40.6189 41.0659 40.6189Z"
              fill="white"/>
        <path d="M20.0169 10.9642H28.1255C32.602 10.9587 36.2292 7.33101 36.2342 2.85452V1.46085C36.2342 0.901101 35.7803 0.447266 35.2206 0.447266C34.6608 0.447266 34.207 0.901101 34.207 1.46085V2.85452C34.203 6.21201 31.483 8.93255 28.1255 8.937H20.0169C15.5458 8.95482 11.926 12.5746 11.9082 17.0457H13.9354C13.9354 13.7515 16.6633 10.9642 20.0169 10.9642Z"
              fill="white"/>
    </symbol>
    <symbol id="fast-delivery" viewBox="0 0 57 42">
        <path d="M55.6598 21.3414L46.3267 12.0084C46.108 11.7896 45.8118 11.6666 45.5018 11.6666H37.3353V8.16667C37.3353 7.52182 36.8135 7 36.1687 7H28.483C28.1138 7 27.7674 7.17434 27.5464 7.46943C27.3277 7.76561 27.2593 8.14731 27.3641 8.50048C27.7879 9.91553 28.0021 11.3738 28.0021 12.8333C28.0023 21.1956 21.1984 27.9995 12.836 27.9995C12.1843 27.9995 11.4961 27.9448 10.669 27.8251C10.3272 27.7818 9.99447 27.8775 9.7393 28.0985C9.48184 28.3207 9.33594 28.642 9.33594 28.9804V32.666C9.33594 35.2397 11.43 37.3326 14.0025 37.3326H14.1204C14.6626 39.9918 17.018 41.9991 19.8358 41.9991C22.6535 41.9991 25.009 39.9918 25.551 37.3325H39.7865C40.3286 39.9918 42.6841 41.9991 45.5018 41.9991C48.3196 41.9991 50.675 39.9918 51.2171 37.3325H54.8349C55.4797 37.3325 56.0016 36.8107 56.0016 36.1658V22.1662C56.0016 21.8563 55.8785 21.5602 55.6598 21.3414ZM19.8358 39.6658C17.9058 39.6658 16.3359 38.0959 16.3359 36.1659C16.3359 34.236 17.9058 32.666 19.8358 32.666C21.7658 32.666 23.3357 34.236 23.3357 36.1659C23.3357 38.0959 21.7658 39.6658 19.8358 39.6658ZM45.5018 39.6658C43.5718 39.6658 42.0019 38.0959 42.0019 36.1659C42.0019 34.236 43.5718 32.666 45.5018 32.666C47.4318 32.666 49.0017 34.236 49.0017 36.1659C49.0017 38.0959 47.4318 39.6658 45.5018 39.6658ZM47.8351 25.6662H40.8352C40.1904 25.6662 39.6686 25.1444 39.6686 24.4995V17.4997C39.6686 16.8549 40.1904 16.3331 40.8352 16.3331C41.4801 16.3331 42.0019 16.8549 42.0019 17.4997V23.3329H47.8351C48.4799 23.3329 49.0017 23.8547 49.0017 24.4995C49.0017 25.1444 48.4799 25.6662 47.8351 25.6662Z"
              fill="white"/>
        <path d="M25.666 12.833C25.666 5.7568 19.908 0 12.833 0C5.7579 0 0 5.7568 0 12.833C0 19.9091 5.75801 25.6659 12.833 25.6659C19.9079 25.6659 25.666 19.9091 25.666 12.833ZM11.6664 12.833V5.83314C11.6664 5.18829 12.1882 4.66647 12.8331 4.66647C13.4779 4.66647 13.9997 5.18829 13.9997 5.83314V12.3499L17.1579 15.508C17.6136 15.9637 17.6136 16.702 17.1579 17.1576C16.93 17.3855 16.6315 17.4994 16.333 17.4994C16.0345 17.4994 15.736 17.3855 15.5081 17.1576L12.0082 13.6577C11.7894 13.4391 11.6664 13.1429 11.6664 12.833Z"
              fill="white"/>
    </symbol>
    <symbol id="like" viewBox="0 0 50 40">
        <path d="M10.6104 11.4092H2.03308C1.24291 11.4092 0.603516 12.0486 0.603516 12.8387V38.5708C0.603516 39.361 1.24291 40.0004 2.03308 40.0004H10.6104C12.9753 40.0004 14.8991 38.0766 14.8991 35.7117V15.6979C14.8991 13.3329 12.9753 11.4092 10.6104 11.4092ZM7.75131 34.2821C6.96182 34.2821 6.32175 33.6421 6.32175 32.8526C6.32175 32.0629 6.96182 31.423 7.75131 31.423C8.54081 31.423 9.18087 32.0629 9.18087 32.8526C9.18087 33.642 8.54081 34.2821 7.75131 34.2821Z"
              fill="white"/>
        <path d="M49.3987 18.5563C49.3987 16.1915 47.4749 14.2677 45.1101 14.2677H34.3046C36.837 9.76542 37.4513 5.70289 35.9631 2.88704C35.0081 1.07913 33.2324 0 31.2221 0C31.2109 0 31.1998 0 31.1858 0C28.1032 0 27.5839 2.39146 27.1651 4.31517C26.5927 6.93832 25.8165 10.5095 20.369 14.2677H17.7578V37.1954L18.7044 37.4604C23.1494 38.7085 27.9358 39.9998 32.702 39.9998H39.3918C41.7567 39.9998 43.6805 38.076 43.6805 35.7112C43.6805 35.1541 43.5744 34.6209 43.379 34.1308C45.1994 33.6353 46.5396 31.967 46.5396 29.9929C46.5396 29.4359 46.4335 28.9026 46.2381 28.4126C48.0586 27.917 49.3987 26.2487 49.3987 24.2747C49.3987 23.1774 48.9855 22.175 48.3043 21.4156C48.9855 20.656 49.3987 19.6536 49.3987 18.5563Z"
              fill="white"/>
    </symbol>
</svg>