<svg width="22" height="22" viewBox="0 0 22 22" fill="none" xmlns="http://www.w3.org/2000/svg">
<g clip-path="url(#clip0)">
<path d="M11.6879 16.7844L11.7602 16.8334L17.2918 20.5857C17.4172 20.6707 17.5634 20.7142 17.7106 20.7142C17.8073 20.7142 17.9044 20.6955 17.9964 20.6573L17.9965 20.6572C18.2283 20.5611 18.3962 20.3547 18.4432 20.108L21.8596 2.18285L21.8599 2.18115C21.8657 2.15312 21.8697 2.12492 21.8721 2.09664L21.8721 2.09622L11.6879 16.7844ZM11.6879 16.7844L11.617 16.8354M11.6879 16.7844L11.617 16.8354M11.617 16.8354L8.65016 18.9702C8.65015 18.9702 8.65013 18.9702 8.65012 18.9702C8.45085 19.1135 8.19398 19.1496 7.96242 19.0668C7.73138 18.9839 7.55591 18.7925 7.49327 18.5551L6.00356 12.9096L5.98721 12.8476M11.617 16.8354L5.98721 12.8476M5.98721 12.8476L5.92734 12.8247L0.604455 10.7894M5.98721 12.8476L0.604455 10.7894M0.604455 10.7894C0.317448 10.6796 0.127106 10.405 0.125017 10.0977C0.122929 9.79044 0.309489 9.51329 0.595101 9.39962L20.8347 1.34613L20.8347 1.34616M0.604455 10.7894L20.8347 1.34616M20.8347 1.34616L20.8374 1.34504M20.8347 1.34616L20.8374 1.34504M20.8374 1.34504C20.916 1.31166 20.9992 1.29235 21.0832 1.28717M20.8374 1.34504L21.0832 1.28717M21.0832 1.28717L21.0755 1.16241L21.0832 1.28717ZM21.6906 1.54071C21.8009 1.66675 21.8615 1.8202 21.873 1.97681L21.1733 1.28707C21.1734 1.28708 21.1734 1.28708 21.1735 1.28708C21.3475 1.29748 21.518 1.36827 21.6511 1.49886L21.6512 1.49896C21.6652 1.51264 21.6781 1.5262 21.69 1.54L21.6906 1.54071ZM12.1035 15.2638L12.1035 15.2638L12.1055 15.2652L17.033 18.6075L17.1903 18.7142L17.2259 18.5274L19.8842 4.57964L19.9577 4.19386L19.6747 4.46616L10.0738 13.7047L9.96267 13.8116L10.0903 13.8982L12.0823 15.2495L12.0823 15.2496L12.0864 15.2522C12.0911 15.2551 12.0962 15.2586 12.1035 15.2638ZM8.17553 14.3458L7.95297 14.4504L8.61272 16.9503L8.65909 17.126L8.80659 17.0199L10.228 15.997L10.3732 15.8925L10.2252 15.7921L8.36392 14.5295L8.36379 14.5294C8.2898 14.4794 8.22638 14.417 8.17553 14.3458ZM3.22072 9.96026L2.92299 10.0787L3.22229 10.1932L6.87725 11.5906L6.87726 11.5906C7.10147 11.6763 7.27075 11.8648 7.33201 12.0969L7.79553 13.8536L8.04071 13.8347C8.05891 13.6612 8.13758 13.4979 8.26536 13.3749C8.26536 13.3749 8.26537 13.3749 8.26538 13.3749L17.4137 4.57199L17.2808 4.36578L3.22072 9.96026Z" fill="white" stroke="#6B6D73" stroke-width="0.25"/>
</g>
<defs>
<clipPath id="clip0">
<rect width="22" height="22" fill="white"/>
</clipPath>
</defs>
</svg>
