<svg width="25" height="25" viewBox="0 0 25 25" fill="none" xmlns="http://www.w3.org/2000/svg">
<path opacity="0.7" d="M24.4492 22.2124C24.0784 23.0807 23.0834 23.6516 22.2845 24.0944C21.2361 24.6626 20.1718 25 18.9807 25C17.3295 25 15.8397 24.3238 14.3299 23.7743C13.2456 23.3835 12.1986 22.906 11.2209 22.3005C8.20263 20.4385 4.56279 16.7974 2.6982 13.7804C2.09534 12.8028 1.61385 11.7544 1.22439 10.6714C0.674882 9.16293 0 7.66912 0 6.01926C0 4.82955 0.337441 3.76387 0.905623 2.71687C1.34977 1.91795 1.91795 0.922962 2.78756 0.549509C3.37441 0.284091 4.61748 0 5.25635 0C5.38039 0 5.50443 -4.96864e-08 5.62847 0.0533504C6.00192 0.178724 6.39271 1.04834 6.5701 1.40312C7.13828 2.41544 7.68913 3.4451 8.27465 4.44009C8.55874 4.90023 9.09224 5.46842 9.09224 6.02059C9.09224 7.10361 5.87788 8.68411 5.87788 9.64175C5.87788 10.1219 6.32202 10.7434 6.57144 11.1689C8.36534 14.3993 10.6007 16.6373 13.8351 18.4312C14.2592 18.6806 14.8808 19.1235 15.3609 19.1235C16.3199 19.1235 17.9004 15.9118 18.9834 15.9118C19.5343 15.9118 20.1011 16.4426 20.5652 16.728C21.5589 17.3122 22.5899 17.8657 23.6009 18.4312C23.9557 18.61 24.8253 19.0007 24.9493 19.3715C25 19.4969 25 19.6209 25 19.7463C25 20.3839 24.7159 21.6269 24.4492 22.2124Z" fill="white"/>
</svg>
