<svg width="22" height="22" viewBox="0 0 22 22" fill="none" xmlns="http://www.w3.org/2000/svg">
<path d="M13.095 0H8.90458C4.51556 0 0.944763 3.56996 0.944763 7.95814V11.733C0.944763 15.0009 2.95284 17.9378 5.97228 19.1339V21.581C5.97228 21.7469 6.0699 21.8969 6.22156 21.964C6.27603 21.9883 6.33384 22 6.39124 22C6.49305 22 6.59402 21.9627 6.67236 21.8915L9.10191 19.6911H13.095C17.484 19.6911 21.0548 16.1212 21.0548 11.733V7.95814C21.0548 3.56996 17.484 0 13.095 0ZM20.2169 11.733C20.2169 15.659 17.0223 18.8532 13.095 18.8532H8.94019C8.83629 18.8532 8.73616 18.8917 8.65907 18.9617L6.8102 20.6363V18.8436C6.8102 18.6659 6.69834 18.5076 6.53075 18.4489C3.69105 17.4446 1.78268 14.7457 1.78268 11.733V7.95814C1.78268 4.03207 4.97767 0.83792 8.90458 0.83792H13.095C17.0223 0.83792 20.2169 4.03207 20.2169 7.95814V11.733Z" fill="white"/>
<path d="M16.5368 12.7754L13.9619 11.1029C13.6803 10.9198 13.3451 10.8578 13.0171 10.9257C12.6886 10.9948 12.4063 11.1888 12.2232 11.4716L12.1021 11.6576C10.9877 11.2893 9.75885 10.8188 9.02315 8.68925L9.32774 8.42447C9.8506 7.9699 9.90548 7.17471 9.45091 6.65101L7.43655 4.33375C7.28489 4.15904 7.02011 4.14102 6.8454 4.29227L5.58056 5.39162C4.47116 6.35606 4.98941 7.78262 5.15993 8.25144C5.16747 8.27239 5.17668 8.2925 5.18758 8.31219C5.23157 8.39095 6.2819 10.2654 7.97827 11.9932C9.68134 13.7281 12.7561 15.3302 12.8504 15.3767C13.2014 15.6046 13.5965 15.714 13.9874 15.714C14.6737 15.714 15.3465 15.3775 15.7479 14.7608L16.6604 13.3556C16.7861 13.1608 16.7308 12.9015 16.5368 12.7754ZM15.0449 14.3042C14.6674 14.8857 13.8873 15.0507 13.2714 14.6536C13.2408 14.6376 10.1862 13.0469 8.57612 11.4066C7.07122 9.87365 6.072 8.17058 5.93584 7.93303C5.60402 7.00252 5.66268 6.43064 6.13024 6.02425L7.07918 5.19974L8.8187 7.20069C8.9733 7.37833 8.95528 7.63808 8.77848 7.79184L8.26442 8.23845C8.13915 8.34738 8.08971 8.51957 8.13873 8.67794C9.01519 11.526 10.7195 12.0853 11.9638 12.4938L12.1452 12.5537C12.3267 12.6149 12.5252 12.5449 12.6291 12.3849L12.9262 11.9274C12.9874 11.8327 13.0812 11.7686 13.1901 11.7456C13.2995 11.7221 13.4109 11.7439 13.5056 11.8055L15.7294 13.2496L15.0449 14.3042Z" fill="white"/>
<path d="M11.9563 6.80687C11.7334 6.74277 11.5017 6.87223 11.4385 7.09512C11.3752 7.31759 11.5043 7.54927 11.7267 7.61253C12.351 7.79017 12.8483 8.28832 13.0242 8.91299C13.0762 9.09733 13.2442 9.21841 13.4273 9.21841C13.465 9.21841 13.5031 9.21338 13.5412 9.20291C13.7637 9.14006 13.8936 8.9088 13.8307 8.68591C13.5764 7.78347 12.8579 7.06328 11.9563 6.80687Z" fill="white"/>
<path d="M15.1446 9.30883C15.1823 9.30883 15.2204 9.3038 15.2585 9.29333C15.4814 9.23048 15.6109 8.9988 15.548 8.77633C15.0537 7.02382 13.659 5.62617 11.9077 5.12761C11.6852 5.06351 11.4535 5.19381 11.3903 5.41627C11.327 5.63874 11.4561 5.87043 11.6785 5.93369C13.152 6.35265 14.3255 7.52951 14.7415 9.00383C14.7939 9.18817 14.9615 9.30883 15.1446 9.30883Z" fill="white"/>
<path d="M11.7271 3.17656C11.5042 3.11246 11.2725 3.24192 11.2093 3.46523C11.146 3.68769 11.2751 3.91938 11.4975 3.98264C13.9941 4.69278 15.9829 6.68619 16.6876 9.18445C16.7396 9.36879 16.9076 9.48987 17.0906 9.48987C17.1283 9.48987 17.1665 9.48484 17.2046 9.47437C17.4271 9.41152 17.5569 9.17984 17.4941 8.95737C16.7111 6.18092 14.5015 3.9663 11.7271 3.17656Z" fill="white"/>
</svg>
