<svg width="22" height="22" viewBox="0 0 22 22" fill="none" xmlns="http://www.w3.org/2000/svg">
<path d="M11 0C4.93435 0 0 4.93435 0 11C0 13.0693 0.574962 15.078 1.66565 16.8224C1.23115 18.3446 0.446346 21.2241 0.437885 21.2541C0.397269 21.403 0.440846 21.5621 0.552115 21.6692C0.663385 21.7762 0.824154 21.8143 0.970538 21.7694L5.33077 20.4283C7.03873 21.4572 8.99462 22 11 22C17.0657 22 22 17.0657 22 11C22 4.93435 17.0657 0 11 0ZM11 21.1538C9.08812 21.1538 7.22573 20.6195 5.61381 19.6092C5.54569 19.5665 5.46742 19.5449 5.38915 19.5449C5.34727 19.5449 5.30538 19.5512 5.26477 19.5635L1.4575 20.7354C1.73715 19.7145 2.23977 17.8885 2.53127 16.8727C2.56512 16.7551 2.54608 16.6282 2.47965 16.5254C1.41096 14.8809 0.846154 12.9703 0.846154 11C0.846154 5.40142 5.40142 0.846154 11 0.846154C16.5986 0.846154 21.1538 5.40142 21.1538 11C21.1538 16.5986 16.5986 21.1538 11 21.1538Z" fill="white"/>
<path d="M18.186 13.5917C17.405 13.1581 16.7399 12.7232 16.2546 12.4059C15.884 12.1639 15.6162 11.9891 15.4199 11.8905C14.8712 11.6168 14.4553 11.8102 14.2971 11.9701C14.2772 11.99 14.2594 12.0115 14.2442 12.0344C13.6743 12.8894 12.9301 13.7072 12.7122 13.7512C12.4605 13.7119 11.2822 13.0422 10.1111 12.067C8.91551 11.0706 8.16328 10.1166 8.05286 9.46674C8.8199 8.67728 9.09617 8.18059 9.09617 7.61536C9.09617 7.03278 7.73725 4.60051 7.49144 4.3547C7.24478 4.10847 6.68928 4.06997 5.84017 4.2392C5.75851 4.2557 5.68321 4.2959 5.62398 4.3547C5.52117 4.45751 3.11555 6.91009 4.25871 9.88262C5.51355 13.145 8.73444 16.937 12.8408 17.553C13.3075 17.6228 13.7449 17.6575 14.1545 17.6575C16.5702 17.6575 17.996 16.442 18.3975 14.0309C18.4276 13.8545 18.3425 13.6785 18.186 13.5917ZM12.9665 16.7162C8.62402 16.065 5.88882 11.7628 5.04859 9.57886C4.21513 7.4127 5.75217 5.48136 6.13801 5.04474C6.45194 4.99143 6.78236 4.96901 6.92028 4.99059C7.2084 5.39124 8.20601 7.27605 8.25001 7.61536C8.25001 7.83747 8.17767 8.14674 7.31628 9.00855C7.23675 9.08766 7.19232 9.19513 7.19232 9.30766C7.19232 11.5229 11.8648 14.5961 12.6923 14.5961C13.412 14.5961 14.3504 13.3865 14.8847 12.5984C14.9156 12.5996 14.9676 12.6102 15.0417 12.6474C15.194 12.724 15.458 12.8962 15.7918 13.1145C16.2326 13.4026 16.8182 13.7851 17.5095 14.1815C17.1956 15.6919 16.3181 17.2196 12.9665 16.7162Z" fill="white"/>
</svg>
