<svg width="154" height="125" viewBox="0 0 154 125" fill="none" xmlns="http://www.w3.org/2000/svg">
<circle opacity="0.2" cx="62.5" cy="62.5" r="62.5" fill="#616369"/>
<g opacity="0.2" filter="url(#filter0_f)">
<circle cx="62.5" cy="62.5" r="54.5" fill="#616369"/>
</g>
<path d="M59.008 112.138C59.008 108 55.6417 104.634 51.5042 104.634C47.3663 104.634 44 108 44 112.138C44 116.276 47.3663 119.642 51.504 119.642C55.6417 119.642 59.008 116.276 59.008 112.138Z" fill="#F78012"/>
<path d="M72.9708 119.642C77.1087 119.642 80.4748 116.276 80.4748 112.138C80.4748 108 77.1085 104.634 72.9708 104.634C68.8331 104.634 65.4668 108 65.4668 112.138C65.4668 116.276 68.8331 119.642 72.9708 119.642Z" fill="#F78012"/>
<path d="M124.844 71.274C123.362 71.1362 121.991 70.7448 120.664 70.3663C119.859 70.1366 119.099 69.9195 118.407 69.7902C116.041 69.3477 114.11 69.1725 112.334 69.2397C106.722 69.4517 102.223 72.7537 99.9933 78.2992C95.8736 88.543 98.2619 100.822 106.226 110.343C108.652 113.243 111.302 115.653 114.103 117.506C115.344 118.327 117.419 119.7 118.766 119.7C118.768 119.7 118.77 119.7 118.772 119.7C121.734 119.691 124.02 118.277 124.195 118.166L126.046 116.86L127.814 118.167C128.014 118.294 130.29 119.691 133.235 119.7C133.237 119.7 133.239 119.7 133.24 119.7C134.588 119.7 136.663 118.327 137.904 117.506C140.705 115.653 143.355 113.243 145.781 110.343C153.745 100.821 156.133 88.5428 152.014 78.2989C149.784 72.7534 145.285 69.4515 139.672 69.2394C137.895 69.1714 135.966 69.3475 133.599 69.7899C132.908 69.9193 132.148 70.1361 131.342 70.3661C130.016 70.7445 128.644 71.1359 127.162 71.2737L127.013 71.2875H124.994L124.844 71.274Z" fill="#F78012"/>
<path d="M95.1395 45.5954C91.1794 47.8752 88.4415 51.8712 87.0012 57.4723C85.4996 63.3127 82.5264 68.1312 79.6509 72.791C76.7667 77.4656 74.0419 81.8813 72.9043 87.0761C72.0914 90.7883 72.0877 94.5616 72.8363 98.1789C72.8813 98.1785 72.9256 98.1755 72.9708 98.1755C80.6701 98.1755 86.9336 104.439 86.9336 112.138C86.9336 113.605 86.705 115.019 86.2837 116.348C90.163 118.487 94.5505 119.661 99.1131 119.698C99.3734 119.7 99.6428 119.7 99.9071 119.698C101.852 119.683 103.765 119.458 105.621 119.043C104.109 117.662 102.655 116.141 101.271 114.488C91.7768 103.136 88.9907 88.3461 94.0004 75.8895C97.1762 67.9921 103.939 63.0936 112.091 62.7857C112.669 62.7639 113.256 62.7618 113.855 62.7786C113.127 61.095 112.496 59.3363 112.017 57.4723C110.577 51.871 107.839 47.8752 103.879 45.5952C102.531 44.8195 101.02 44.4316 99.5091 44.4316C97.9981 44.4316 96.4874 44.8195 95.1395 45.5954Z" fill="#F78012"/>
<path d="M125.309 64.8289H126.698C127.393 64.7493 128.173 64.5486 128.998 64.3174C129.172 61.2962 130.37 56.668 135.493 53.345L131.979 47.9261C125.782 51.9447 123.618 57.3708 122.894 61.215C122.693 62.2818 122.59 63.2827 122.547 64.1869C123.543 64.4709 124.485 64.7348 125.309 64.8289Z" fill="#F78012"/>
<path d="M67.7502 47.2601C69.454 47.0049 71.197 46.8713 72.971 46.8713C73.4055 46.8713 73.8378 46.8807 74.2686 46.8967C72.6319 37.2761 65.0851 32.5698 64.7264 32.3515L61.3513 37.858C61.5879 38.0062 66.3755 41.0833 67.7502 47.2601Z" fill="#F78012"/>
<path d="M96.1413 38.3516C98.2854 37.8679 100.514 37.8535 102.663 38.3058C101.249 26.4664 92.0137 20.5579 91.5893 20.2998L88.2312 25.8167C88.304 25.8615 94.7991 30.0575 96.1413 38.3516Z" fill="#F78012"/>
<path d="M44.3339 81.9671C44.3339 88.0443 46.239 93.6835 49.4805 98.3239C50.1417 98.2275 50.8168 98.1754 51.5042 98.1754C55.8146 98.1754 59.6742 100.139 62.2374 103.219C63.428 101.789 64.8995 100.602 66.565 99.7379C65.5822 95.1694 65.5665 90.3936 66.5956 85.6944C67.9683 79.4255 71.1133 74.3287 74.1545 69.3996C76.8975 64.9542 79.4884 60.7552 80.7461 55.8639C80.865 55.4015 80.9926 54.9537 81.1246 54.5145C78.5394 53.7446 75.803 53.33 72.971 53.33C57.1804 53.33 44.3339 66.1764 44.3339 81.9671Z" fill="#F78012"/>
<defs>
<filter id="filter0_f" x="4" y="4" width="117" height="117" filterUnits="userSpaceOnUse" color-interpolation-filters="sRGB">
<feFlood flood-opacity="0" result="BackgroundImageFix"/>
<feBlend mode="normal" in="SourceGraphic" in2="BackgroundImageFix" result="shape"/>
<feGaussianBlur stdDeviation="2" result="effect1_foregroundBlur"/>
</filter>
</defs>
</svg>
