<svg width="141" height="125" viewBox="0 0 141 125" fill="none" xmlns="http://www.w3.org/2000/svg">
<circle opacity="0.2" cx="62.5" cy="62.5" r="62.5" fill="#616369"/>
<g opacity="0.2" filter="url(#filter0_f)">
<circle cx="62.5" cy="62.5" r="54.5" fill="#616369"/>
</g>
<path d="M75.95 91.1588C75.95 82.0564 87.7537 80.6003 87.7537 75.5857C87.7537 73.3825 86.0485 72.0652 83.9148 72.0652C80.9647 72.0652 79.3636 75.053 79.3636 75.053L75.9502 72.7775C75.9502 72.7775 78.2604 67.7283 84.3056 67.7283C88.7497 67.7283 92.5192 70.4294 92.5192 75.1949C92.5192 83.3015 81.2135 84.6882 81.1064 89.4536H92.9101V93.3996H76.1643C76.0572 92.5834 75.95 91.8711 75.95 91.1588ZM95.4811 84.0832L106.361 68.1538H111.801V83.0872H115.073V86.8945H111.801V93.4H107.285V86.8945H95.4811V84.0832ZM107.285 83.0872V75.2675C107.285 74.0227 107.464 72.6358 107.464 72.6358H107.392C107.392 72.6358 106.824 73.9849 106.147 74.9461L100.316 83.0178V83.0872H107.285ZM129.553 81.749L128.674 84.896C123.68 102.784 105.459 114.072 87.4332 109.598C70.12 105.301 59.36 88.5251 61.9473 71.4333L67.1641 72.8896C68.3733 73.2272 69.4946 72.1291 69.1822 70.913L63.509 48.8217C63.1968 47.6057 61.6853 47.1838 60.7883 48.0622L44.4909 64.0199C43.5938 64.8983 43.984 66.4186 45.1935 66.7562L50.8718 68.3413C46.6342 91.4614 60.8975 114.488 84.173 120.549C108.342 126.843 132.994 111.883 139.709 87.8275L140.549 84.819C140.791 83.9513 140.284 83.0519 139.417 82.8095L131.562 80.6167C130.695 80.3744 129.795 80.8816 129.553 81.749ZM138.834 67.9836L130.597 69.0538C129.704 69.1698 129.074 69.988 129.19 70.8813L129.514 73.3795C129.63 74.2728 130.449 74.9028 131.342 74.7866L139.579 73.7164C140.472 73.6004 141.102 72.7823 140.986 71.889L140.661 69.3908C140.546 68.4976 139.727 67.8676 138.834 67.9836ZM132.493 52.4186L125.257 56.4966C124.472 56.9388 124.194 57.9334 124.637 58.7182L125.873 60.9129C126.316 61.6977 127.31 61.9753 128.095 61.5331L135.331 57.4552C136.116 57.013 136.394 56.0184 135.951 55.2335L134.715 53.0388C134.272 52.2541 133.278 51.9764 132.493 52.4186ZM120.783 40.3624L115.601 46.8541C115.039 47.558 115.155 48.5844 115.858 49.1462L117.827 50.7178C118.531 51.2798 119.558 51.1646 120.119 50.4606L125.301 43.9689C125.863 43.2648 125.748 42.2386 125.044 41.6767L123.075 40.105C122.371 39.5433 121.345 39.6584 120.783 40.3624ZM105.409 33.5707L103.037 41.5309C102.779 42.394 103.271 43.3025 104.134 43.5598L106.548 44.2794C107.411 44.5368 108.32 44.0454 108.577 43.1824L110.95 35.2222C111.207 34.3591 110.716 33.4507 109.853 33.1933L107.438 32.4738C106.575 32.2164 105.667 32.7075 105.409 33.5707ZM88.611 33.0326L89.3929 41.302C89.4777 42.1988 90.2735 42.857 91.1701 42.7722L93.6782 42.535C94.5749 42.4502 95.2332 41.6545 95.1484 40.7577L94.3664 32.4883C94.2816 31.5916 93.4857 30.9335 92.5891 31.0183L90.0811 31.2554C89.1845 31.3402 88.5262 32.1358 88.611 33.0326ZM72.8343 38.8266L76.6571 46.2008C77.0715 47.0004 78.056 47.3127 78.8557 46.898L81.0923 45.7388C81.8919 45.3242 82.2041 44.3399 81.7895 43.5401L77.9667 36.1659C77.5523 35.3663 76.5678 35.0541 75.7681 35.4687L73.5315 36.6281C72.7319 37.0424 72.4198 38.0268 72.8343 38.8266Z" fill="#F78012"/>
<defs>
<filter id="filter0_f" x="4" y="4" width="117" height="117" filterUnits="userSpaceOnUse" color-interpolation-filters="sRGB">
<feFlood flood-opacity="0" result="BackgroundImageFix"/>
<feBlend mode="normal" in="SourceGraphic" in2="BackgroundImageFix" result="shape"/>
<feGaussianBlur stdDeviation="2" result="effect1_foregroundBlur"/>
</filter>
</defs>
</svg>
