<svg width="141" height="125" viewBox="0 0 141 125" fill="none" xmlns="http://www.w3.org/2000/svg">
<circle opacity="0.2" cx="62.5" cy="62.5" r="62.5" fill="#616369"/>
<g opacity="0.2" filter="url(#filter0_f)">
<circle cx="62.5" cy="62.5" r="54.5" fill="#616369"/>
</g>
<g clip-path="url(#clip0)">
<path d="M128.067 110.451H126.45V108.834C126.45 107.942 125.728 107.217 124.834 107.217C123.939 107.217 123.217 107.942 123.217 108.834V110.451H121.6C120.706 110.451 119.984 111.175 119.984 112.067C119.984 112.96 120.706 113.684 121.6 113.684H123.217V115.301C123.217 116.193 123.939 116.917 124.834 116.917C125.728 116.917 126.45 116.193 126.45 115.301V113.684H128.067C128.961 113.684 129.683 112.96 129.683 112.067C129.683 111.175 128.961 110.451 128.067 110.451Z" fill="#F78012"/>
<path d="M122.074 37.2268C122.389 37.542 122.803 37.7004 123.217 37.7004C123.631 37.7004 124.044 37.542 124.36 37.2268L126.45 35.1363L128.541 37.2268C128.856 37.542 129.27 37.7004 129.684 37.7004C130.097 37.7004 130.511 37.542 130.827 37.2268C131.459 36.5948 131.459 35.5729 130.827 34.9408L128.736 32.8504L130.827 30.76C131.459 30.1278 131.459 29.106 130.827 28.474C130.195 27.842 129.173 27.842 128.541 28.474L126.45 30.5644L124.36 28.474C123.728 27.842 122.706 27.842 122.074 28.474C121.442 29.1062 121.442 30.1279 122.074 30.76L124.164 32.8504L122.074 34.9408C121.442 35.5729 121.442 36.5946 122.074 37.2268Z" fill="#F78012"/>
<path d="M110.283 53.8671C110.283 54.7594 111.006 55.4837 111.9 55.4837C112.794 55.4837 113.517 54.7594 113.517 53.8671C113.517 52.9748 112.794 52.2505 111.9 52.2505C111.006 52.2505 110.283 52.9748 110.283 53.8671Z" fill="#F78012"/>
<path d="M97.35 44.1671C98.244 44.1671 98.9666 43.4428 98.9666 42.5504C98.9666 41.6581 98.244 40.9338 97.35 40.9338C96.456 40.9338 95.7334 41.6581 95.7334 42.5504C95.7334 43.4428 96.456 44.1671 97.35 44.1671Z" fill="#F78012"/>
<path d="M126.45 66.8006C126.45 67.6929 127.173 68.4172 128.067 68.4172C128.961 68.4172 129.683 67.6929 129.683 66.8006C129.683 65.9082 128.961 65.184 128.067 65.184C127.173 65.184 126.45 65.9082 126.45 66.8006Z" fill="#F78012"/>
<path d="M111.9 73.2672C111.9 74.1595 112.623 74.8838 113.517 74.8838C114.411 74.8838 115.133 74.1595 115.133 73.2672C115.133 72.3749 114.411 71.6506 113.517 71.6506C112.623 71.6506 111.9 72.3749 111.9 73.2672Z" fill="#F78012"/>
<path d="M137.767 40.9338C136.873 40.9338 136.15 41.6581 136.15 42.5504C136.15 43.4428 136.873 44.1671 137.767 44.1671C138.661 44.1671 139.383 43.4428 139.383 42.5504C139.383 41.6581 138.661 40.9338 137.767 40.9338Z" fill="#F78012"/>
<path d="M134.534 53.8671C117.654 53.8671 103.943 70.0743 101.342 73.356L95.0658 67.0785C102.077 62.3546 103.665 57.8166 103.733 57.6113C104.014 56.7707 103.563 55.8685 102.724 55.5792C101.885 55.2931 100.968 55.7376 100.672 56.5734C100.656 56.6155 99.1834 60.565 92.7311 64.7457L86.9678 58.9824C89.9926 55.4273 90.8834 45.6156 90.8834 39.3172C90.8834 38.4249 90.1608 37.7006 89.2668 37.7006C88.3727 37.7006 87.6502 38.4249 87.6502 39.3172C87.6502 49.0868 85.8945 55.2721 84.7547 56.7692L79.0931 51.1075C78.7148 50.7277 78.1733 50.5626 77.6462 50.6629C77.1192 50.7631 76.6778 51.1172 76.4661 51.6101L71.0438 64.1685L106.449 99.5736L119.007 94.1512C119.499 93.9394 119.854 93.4965 119.955 92.9711C120.055 92.4441 119.888 91.9024 119.51 91.5243L112.077 84.0909C113.116 82.3723 119.235 79.734 129.684 79.734C130.578 79.734 131.301 79.0097 131.301 78.1174C131.301 77.2251 130.578 76.5008 129.684 76.5008C121.258 76.5008 112.756 78.3114 109.781 81.7954L103.646 75.6585C105.177 73.7039 118.661 57.1007 134.534 57.1007C135.428 57.1007 136.151 56.3764 136.151 55.4841C136.15 54.5914 135.428 53.8671 134.534 53.8671Z" fill="#F78012"/>
<path d="M105.419 52.2435H105.434C106.315 52.2435 107.034 51.5306 107.05 50.6479C107.054 50.4183 107.23 44.9751 114.348 40.7036C115.114 40.2446 115.362 39.2503 114.903 38.4855C114.443 37.7192 113.451 37.4702 112.684 37.931C103.917 43.1916 103.817 50.3324 103.817 50.6331C103.817 51.5207 104.532 52.2353 105.419 52.2435Z" fill="#F78012"/>
<path d="M47.2332 37.7007C49.9072 37.7007 52.0832 39.8768 52.0832 42.5507C52.0832 43.4431 52.8058 44.1673 53.6998 44.1673C54.5939 44.1673 55.3165 43.4431 55.3165 42.5507C55.3165 39.8768 57.4925 37.7007 60.1665 37.7007C61.0605 37.7007 61.7831 36.9764 61.7831 36.0841C61.7831 35.1918 61.0605 34.4675 60.1665 34.4675C57.4925 34.4675 55.3165 32.2914 55.3165 29.6175C55.3165 28.7251 54.5939 28.0009 53.6998 28.0009C52.8058 28.0009 52.0832 28.7251 52.0832 29.6175C52.0832 32.2914 49.9072 34.4675 47.2332 34.4675C46.3392 34.4675 45.6166 35.1918 45.6166 36.0841C45.6164 36.9764 46.3392 37.7007 47.2332 37.7007ZM53.6998 34.4626C54.1606 35.0753 54.707 35.6233 55.3214 36.0841C54.707 36.5448 54.1606 37.0912 53.6998 37.7056C53.2391 37.0912 52.6927 36.5448 52.0783 36.0841C52.6927 35.6233 53.2391 35.0753 53.6998 34.4626Z" fill="#F78012"/>
<path d="M66.9048 73.7503L96.8665 103.712L103.254 100.954L69.6646 67.3613L66.9048 73.7503Z" fill="#F78012"/>
<path d="M60.6102 88.328L82.2881 110.008L93.6744 105.091L65.5265 76.9433L60.6102 88.328Z" fill="#F78012"/>
<path d="M45.749 122.743C45.4872 123.351 45.6213 124.059 46.0902 124.528C46.399 124.837 46.8128 125 47.2332 125C47.4498 125 47.668 124.958 47.8734 124.867L69.5141 115.523L55.0935 101.102L45.749 122.743Z" fill="#F78012"/>
<path d="M56.4721 97.9098L72.7083 114.144L79.0958 111.386L59.2317 91.5207L56.4721 97.9098Z" fill="#F78012"/>
</g>
<defs>
<filter id="filter0_f" x="4" y="4" width="117" height="117" filterUnits="userSpaceOnUse" color-interpolation-filters="sRGB">
<feFlood flood-opacity="0" result="BackgroundImageFix"/>
<feBlend mode="normal" in="SourceGraphic" in2="BackgroundImageFix" result="shape"/>
<feGaussianBlur stdDeviation="2" result="effect1_foregroundBlur"/>
</filter>
<clipPath id="clip0">
<rect width="97" height="97" fill="white" transform="translate(44 28)"/>
</clipPath>
</defs>
</svg>
