<svg width="154" height="125" viewBox="0 0 154 125" fill="none" xmlns="http://www.w3.org/2000/svg">
<circle opacity="0.2" cx="62.5" cy="62.5" r="62.5" fill="#616369"/>
<g opacity="0.2" filter="url(#filter0_f)">
<circle cx="62.5" cy="62.5" r="54.5" fill="#616369"/>
</g>
<path d="M153.998 90.0344C153.998 90.0139 153.997 89.9933 153.997 89.9727C153.967 88.5942 152.86 87.4958 151.465 87.4958H150.8L140.531 67.6425C140.098 66.8042 139.234 66.2822 138.28 66.282L120.748 66.2783L121.417 60.9767C121.608 58.858 120.953 56.8575 119.572 55.3434C118.194 53.8323 116.27 53 114.155 53H59.7427C58.3746 53 57.2124 54.0586 57.082 55.4233L56.5366 59.7913H87.5378C89.5508 59.7913 91.1399 61.4232 91.0874 63.4361C91.0345 65.4491 89.36 67.081 87.347 67.081H77.0064C77.0082 67.0862 77.01 67.0914 77.0119 67.0963H46.6459C45.2223 67.0963 44.038 68.2502 44.0008 69.6737C43.9635 71.0973 45.0872 72.2511 46.5108 72.2511H86.712C88.5782 72.5386 89.9723 74.1524 89.921 76.1063C89.8648 78.2521 88.0885 79.9919 85.9463 80.0099H58.2307C56.7928 80.0099 55.5968 81.1755 55.559 82.6133C55.5213 84.0512 56.6564 85.2168 58.0942 85.2168H85.4835C87.3769 85.4805 88.7989 87.1074 88.7474 89.0803C88.6909 91.237 86.8966 92.9854 84.7399 92.9854H53.3182V92.9883H50.6781C49.2402 92.9883 48.0442 94.1539 48.0064 95.5917C47.9687 97.0296 49.1035 98.1952 50.5417 98.1952H52.8202L51.929 107.52C51.7379 109.639 52.393 111.639 53.7738 113.153C55.1516 114.665 57.0758 115.497 59.1916 115.497H61.1572C62.0939 120.853 66.728 124.9 72.3965 124.9C78.0649 124.9 82.911 120.853 84.1276 115.497H108.657C110.64 115.497 112.518 114.738 113.99 113.497C115.337 114.789 117.122 115.497 119.071 115.497H119.474C120.411 120.853 125.045 124.9 130.714 124.9C136.382 124.9 141.228 120.853 142.445 115.497H144.064C148.282 115.497 152.022 112.068 152.402 107.853L153.989 90.2784C153.991 90.2547 153.99 90.2313 153.991 90.2073C153.994 90.1711 153.999 90.1357 154 90.0993C154 90.0774 153.998 90.0563 153.998 90.0344ZM72.5329 119.693C68.9441 119.693 66.1006 116.774 66.1946 113.185C66.2886 109.596 69.2849 106.676 72.8737 106.676C76.4625 106.676 79.3058 109.596 79.2118 113.185C79.1178 116.774 76.1217 119.693 72.5329 119.693ZM130.85 119.693C127.261 119.693 124.418 116.774 124.512 113.185C124.606 109.596 127.602 106.676 131.191 106.676C134.78 106.676 137.623 109.596 137.529 113.185C137.435 116.774 134.439 119.693 130.85 119.693ZM147.215 107.52C147.08 109.022 145.699 110.29 144.2 110.29H142.449C141.289 105.226 136.788 101.469 131.327 101.469C125.866 101.469 121.168 105.226 119.743 110.29H119.207C118.545 110.29 117.955 110.042 117.544 109.591C117.13 109.137 116.935 108.52 116.995 107.853L120.278 71.4852L127.817 71.4868L126.622 84.7258C126.431 86.8442 127.086 88.8447 128.466 90.3588C129.844 91.8704 131.769 92.703 133.885 92.703H148.552L147.215 107.52Z" fill="#F78012"/>
<defs>
<filter id="filter0_f" x="4" y="4" width="117" height="117" filterUnits="userSpaceOnUse" color-interpolation-filters="sRGB">
<feFlood flood-opacity="0" result="BackgroundImageFix"/>
<feBlend mode="normal" in="SourceGraphic" in2="BackgroundImageFix" result="shape"/>
<feGaussianBlur stdDeviation="2" result="effect1_foregroundBlur"/>
</filter>
</defs>
</svg>
