<svg width="133" height="125" viewBox="0 0 133 125" fill="none" xmlns="http://www.w3.org/2000/svg">
<circle opacity="0.2" cx="62.5" cy="62.5" r="62.5" fill="#616369"/>
<g opacity="0.2" filter="url(#filter0_f)">
<circle cx="62.5" cy="62.5" r="54.5" fill="#616369"/>
</g>
<path d="M91.3356 41.3416C91.3356 37.5712 88.2698 34.5054 84.4999 34.5054C80.7306 34.5054 77.6652 37.5712 77.6652 41.3416C77.6652 45.1043 80.7239 48.1773 84.4999 48.1773C88.2959 48.1773 91.3356 45.0829 91.3356 41.3416Z" fill="#F78012"/>
<path d="M105.129 42.6295C105.129 31.2541 95.8749 22 84.5 22C73.1245 22 63.8704 31.2541 63.8704 42.6295C63.8704 52.4144 79.6827 81.4503 84.5 89.989C89.2726 81.5286 105.129 52.4286 105.129 42.6295ZM71.6326 41.3416C71.6326 34.2464 77.4052 28.4742 84.5 28.4742C91.5947 28.4742 97.3668 34.2464 97.3668 41.3416C97.3668 48.4477 91.5809 54.2085 84.5 54.2085C77.3768 54.2085 71.6326 48.4045 71.6326 41.3416Z" fill="#F78012"/>
<path d="M61.9649 105.654L60.4384 116.944H108.674L107.162 105.654H61.9649Z" fill="#F78012"/>
<path d="M39.1921 99.6231H56.6927L58.344 87.4136H41.9828L39.1921 99.6231Z" fill="#F78012"/>
<path d="M96.0343 81.3825H103.914L102.404 70.0914H101.73C99.9218 73.8494 97.9394 77.7601 96.0343 81.3825Z" fill="#F78012"/>
<path d="M104.722 87.4136H92.8053C89.5487 93.3926 87.1394 97.5126 87.1024 97.5771C86.5611 98.5016 85.5716 99.0676 84.5 99.0676C83.4284 99.0676 82.4398 98.5016 81.8985 97.5771C81.8601 97.5126 79.4512 93.3926 76.1946 87.4136H64.4288L62.7789 99.6231H106.356L104.722 87.4136Z" fill="#F78012"/>
<path d="M36.076 113.257C35.871 114.152 36.0859 115.091 36.658 115.81C37.2296 116.527 38.0977 116.946 39.0157 116.946H54.3512L55.8763 105.654H37.8136L36.076 113.257Z" fill="#F78012"/>
<path d="M132.924 113.257L131.187 105.654H113.248L114.759 116.944H129.984C130.902 116.944 131.77 116.526 132.342 115.809C132.915 115.091 133.128 114.152 132.924 113.257Z" fill="#F78012"/>
<path d="M65.2451 81.3825H72.9656C70.8152 77.2924 68.8879 73.4547 67.2698 70.0914H66.7698L65.2451 81.3825Z" fill="#F78012"/>
<path d="M48.3461 70.0914C46.9391 70.0914 45.7195 71.0634 45.4059 72.4348L43.3609 81.3825H59.158L60.6841 70.0914H48.3461Z" fill="#F78012"/>
<path d="M127.017 87.4136H110.807L112.44 99.6231H129.808L127.017 87.4136Z" fill="#F78012"/>
<path d="M123.594 72.4348C123.28 71.0634 122.06 70.0914 120.654 70.0914H108.488L109.999 81.3825H125.639L123.594 72.4348Z" fill="#F78012"/>
<defs>
<filter id="filter0_f" x="4" y="4" width="117" height="117" filterUnits="userSpaceOnUse" color-interpolation-filters="sRGB">
<feFlood flood-opacity="0" result="BackgroundImageFix"/>
<feBlend mode="normal" in="SourceGraphic" in2="BackgroundImageFix" result="shape"/>
<feGaussianBlur stdDeviation="2" result="effect1_foregroundBlur"/>
</filter>
</defs>
</svg>
