<svg width="1400" height="701" viewBox="0 0 1400 701" fill="none" xmlns="http://www.w3.org/2000/svg">
<g opacity="0.4">
<mask id="mask0" mask-type="alpha" maskUnits="userSpaceOnUse" x="0" y="0" width="1400" height="701">
<rect width="1400" height="701" fill="white"/>
</mask>
<g mask="url(#mask0)">
<g opacity="0.1" filter="url(#filter0_d)">
<path fill-rule="evenodd" clip-rule="evenodd" d="M266.447 284.628H235.958L222.371 271.002H202.802L196.294 283.1L205.686 311.323L184 356.02L213.588 412.333L253.408 415.462L266.447 415.525L279.486 415.462L319.306 412.333L348.894 356.02L327.208 311.323L336.6 283.1L330.092 271.002H310.524L296.936 284.628H266.447Z" fill="white" stroke="#B2B3B3" stroke-width="0.25" stroke-miterlimit="22.9256" stroke-linejoin="round"/>
<path fill-rule="evenodd" clip-rule="evenodd" d="M310.522 271L296.934 284.627L306.871 293.389L310.522 271Z" fill="white" stroke="#B2B3B3" stroke-width="0.25" stroke-miterlimit="22.9256" stroke-linejoin="round"/>
<path fill-rule="evenodd" clip-rule="evenodd" d="M327.207 311.321L306.872 293.389L310.523 271L327.207 311.321Z" fill="white" stroke="#B2B3B3" stroke-width="0.25" stroke-miterlimit="22.9256" stroke-linejoin="round"/>
<path fill-rule="evenodd" clip-rule="evenodd" d="M296.933 284.627L266.443 306.166V284.627H296.933Z" fill="white" stroke="#B2B3B3" stroke-width="0.25" stroke-miterlimit="22.9256" stroke-linejoin="round"/>
<path fill-rule="evenodd" clip-rule="evenodd" d="M266.443 306.167L296.933 284.627L327.206 311.321L320.611 370.626L288.789 397.546L288.547 352.944L266.443 306.167Z" fill="white" stroke="#B2B3B3" stroke-width="0.25" stroke-miterlimit="22.9256" stroke-linejoin="round"/>
<path fill-rule="evenodd" clip-rule="evenodd" d="M327.206 311.321L296.934 284.627L310.522 271L327.206 311.321Z" fill="white" stroke="#B2B3B3" stroke-width="0.25" stroke-miterlimit="22.9256" stroke-linejoin="round"/>
<path fill-rule="evenodd" clip-rule="evenodd" d="M327.209 311.321L310.525 271H330.094L336.601 283.098L327.209 311.321Z" fill="white" stroke="#B2B3B3" stroke-width="0.25" stroke-miterlimit="22.9256" stroke-linejoin="round"/>
<path fill-rule="evenodd" clip-rule="evenodd" d="M319.306 412.332L348.893 356.018L320.613 370.626L288.791 397.546L279.485 415.461L319.306 412.332Z" fill="white" stroke="#B2B3B3" stroke-width="0.25" stroke-miterlimit="22.9256" stroke-linejoin="round"/>
<path fill-rule="evenodd" clip-rule="evenodd" d="M348.892 356.017L327.206 311.321L320.612 370.626L348.892 356.017Z" fill="white" stroke="#B2B3B3" stroke-width="0.25" stroke-miterlimit="22.9256" stroke-linejoin="round"/>
<path fill-rule="evenodd" clip-rule="evenodd" d="M222.37 271L235.958 284.627L226.021 293.389L222.37 271Z" fill="white" stroke="#B2B3B3" stroke-width="0.25" stroke-miterlimit="22.9256" stroke-linejoin="round"/>
<path fill-rule="evenodd" clip-rule="evenodd" d="M205.685 311.321L226.02 293.389L222.369 271L205.685 311.321Z" fill="white" stroke="#B2B3B3" stroke-width="0.25" stroke-miterlimit="22.9256" stroke-linejoin="round"/>
<path fill-rule="evenodd" clip-rule="evenodd" d="M266.444 391.852L251.54 386.4V376.654H266.444H281.349V386.4L266.444 391.852Z" fill="white" stroke="#B2B3B3" stroke-width="0.25" stroke-miterlimit="22.9256" stroke-linejoin="round"/>
<path fill-rule="evenodd" clip-rule="evenodd" d="M266.445 405.573L244.102 397.545H266.445H288.79L266.445 405.573Z" fill="white" stroke="#B2B3B3" stroke-width="0.25" stroke-miterlimit="22.9256" stroke-linejoin="round"/>
<path fill-rule="evenodd" clip-rule="evenodd" d="M235.956 284.627L266.447 306.166V284.627H235.956Z" fill="white" stroke="#B2B3B3" stroke-width="0.25" stroke-miterlimit="22.9256" stroke-linejoin="round"/>
<path fill-rule="evenodd" clip-rule="evenodd" d="M266.448 306.167L235.957 284.627L205.685 311.321L212.28 370.626L244.102 397.546L244.344 352.944L266.448 306.167Z" fill="white" stroke="#B2B3B3" stroke-width="0.25" stroke-miterlimit="22.9256" stroke-linejoin="round"/>
<path fill-rule="evenodd" clip-rule="evenodd" d="M205.685 311.321L235.957 284.627L222.369 271L205.685 311.321Z" fill="white" stroke="#B2B3B3" stroke-width="0.25" stroke-miterlimit="22.9256" stroke-linejoin="round"/>
<path fill-rule="evenodd" clip-rule="evenodd" d="M205.687 311.321L222.371 271H202.803L196.295 283.098L205.687 311.321Z" fill="white" stroke="#B2B3B3" stroke-width="0.25" stroke-miterlimit="22.9256" stroke-linejoin="round"/>
<path fill-rule="evenodd" clip-rule="evenodd" d="M213.587 412.332L184 356.018L212.28 370.626L244.103 397.546L253.408 415.461L213.587 412.332Z" fill="white" stroke="#B2B3B3" stroke-width="0.25" stroke-miterlimit="22.9256" stroke-linejoin="round"/>
<path fill-rule="evenodd" clip-rule="evenodd" d="M184 356.017L205.686 311.321L212.28 370.626L184 356.017Z" fill="white" stroke="#B2B3B3" stroke-width="0.25" stroke-miterlimit="22.9256" stroke-linejoin="round"/>
<path fill-rule="evenodd" clip-rule="evenodd" d="M288.547 352.944L266.443 306.166L266.432 341.242L288.547 352.944Z" fill="white" stroke="#B2B3B3" stroke-width="0.25" stroke-miterlimit="22.9256" stroke-linejoin="round"/>
<path d="M288.217 340.478L284.024 343.369" stroke="#B2B3B3" stroke-width="0.25" stroke-miterlimit="22.9256" stroke-linejoin="round"/>
<path fill-rule="evenodd" clip-rule="evenodd" d="M288.215 340.477L294.941 335.765L301.344 340.477L294.941 345.189L288.215 340.477Z" fill="white" stroke="#B2B3B3" stroke-width="0.25" stroke-miterlimit="22.9256" stroke-linejoin="round"/>
<path fill-rule="evenodd" clip-rule="evenodd" d="M244.342 352.944L266.447 306.166L266.457 341.242L244.342 352.944Z" fill="white" stroke="#B2B3B3" stroke-width="0.25" stroke-miterlimit="22.9256" stroke-linejoin="round"/>
<path d="M244.675 340.478L248.868 343.369" stroke="#B2B3B3" stroke-width="0.25" stroke-miterlimit="22.9256" stroke-linejoin="round"/>
<path fill-rule="evenodd" clip-rule="evenodd" d="M244.675 340.477L237.949 335.765L231.545 340.477L237.949 345.189L244.675 340.477Z" fill="white" stroke="#B2B3B3" stroke-width="0.25" stroke-miterlimit="22.9256" stroke-linejoin="round"/>
<path d="M294.783 341.867C295.51 341.867 296.1 341.245 296.1 340.477C296.1 339.709 295.51 339.087 294.783 339.087C294.055 339.087 293.466 339.709 293.466 340.477C293.466 341.245 294.055 341.867 294.783 341.867Z" fill="white" stroke="#2B2A29" stroke-width="0.25" stroke-miterlimit="22.9256"/>
<path d="M238.114 341.867C238.841 341.867 239.431 341.245 239.431 340.477C239.431 339.709 238.841 339.087 238.114 339.087C237.386 339.087 236.796 339.709 236.796 340.477C236.796 341.245 237.386 341.867 238.114 341.867Z" fill="white" stroke="#2B2A29" stroke-width="0.25" stroke-miterlimit="22.9256"/>
</g>
<g opacity="0.1" filter="url(#filter1_d)">
<path d="M55.6384 467.434H-109.243C-68.0637 429.759 -36.2287 398.291 -13.7977 373.057L-13.7848 373.042L-13.7719 373.027C10.3509 345.458 27.3927 320.855 37.0924 299.251C46.7973 277.636 51.6522 254.9 51.6522 231.091C51.6522 207.491 45.4062 185.815 32.92 166.179C20.8062 146.454 2.93149 130.892 -20.4511 119.418C-43.5478 107.873 -71.0911 102.21 -102.903 102.21C-134.873 102.21 -163.925 109.005 -189.956 122.682L-189.972 122.69L-189.987 122.698C-215.47 136.319 -237.408 155.201 -255.791 179.274L-258.766 183.17L-254.93 186.221L-195.237 233.72L-191.422 236.755L-188.291 233.018C-175.235 217.436 -163.051 206.574 -151.772 200.129L-151.715 200.096L-151.658 200.062C-140.535 193.309 -127.757 189.876 -113.173 189.876C-97.1215 189.876 -85.0562 194.651 -76.3455 203.741L-76.2719 203.817L-76.1951 203.891C-67.1302 212.578 -62.3307 224.84 -62.3307 241.361C-62.3307 258.826 -66.9915 275.963 -76.4544 292.832L-76.4774 292.872L-76.4995 292.914C-85.6265 309.923 -101.993 331.602 -125.855 358.023C-149.729 384.027 -187.947 422.888 -240.561 474.646L-242.054 476.116V478.211V550.1V555.1H-237.054H45.3684H49.7508L50.3253 550.756L60.5952 473.089L61.343 467.434H55.6384ZM144.406 162.685L144.396 162.699L144.385 162.714C115.721 202.843 101.732 260.092 101.732 333.79C101.732 407.073 115.726 464.303 144.37 504.845L144.381 504.86L144.391 504.874C173.672 545.69 215.915 566.012 270.409 566.012C324.897 566.012 366.94 545.692 395.796 504.859C424.877 464.312 439.086 407.076 439.086 333.79C439.086 260.087 424.881 202.83 395.779 162.697C366.914 122.296 324.873 102.21 270.409 102.21C215.937 102.21 173.696 122.3 144.406 162.685ZM768.64 467.434H603.759C644.938 429.759 676.773 398.291 699.204 373.057L699.217 373.042L699.23 373.027C723.353 345.458 740.395 320.855 750.094 299.251C759.799 277.636 764.654 254.9 764.654 231.091C764.654 207.49 758.408 185.813 745.921 166.178C733.807 146.454 715.933 130.891 692.551 119.418C669.454 107.873 641.911 102.21 610.098 102.21C578.129 102.21 549.077 109.005 523.046 122.682L523.03 122.69L523.015 122.698C497.532 136.319 475.594 155.201 457.211 179.274L454.236 183.17L458.071 186.221L517.765 233.72L521.58 236.755L524.711 233.018C537.767 217.436 549.951 206.574 561.23 200.129L561.287 200.096L561.344 200.062C572.467 193.309 585.245 189.876 599.829 189.876C615.88 189.876 627.946 194.651 636.656 203.741L636.73 203.817L636.807 203.891C645.872 212.578 650.671 224.84 650.671 241.361C650.671 258.826 646.01 275.963 636.547 292.832L636.525 292.872L636.502 292.914C627.376 309.923 611.009 331.602 587.148 358.021C563.275 384.025 525.056 422.887 472.441 474.646L470.948 476.116V478.211V550.1V555.1H475.948H758.37H762.753L763.327 550.756L773.597 473.089L774.345 467.434H768.64ZM1026.12 555.1H1031.12V550.1V116.196V111.196H1026.12H935.617H934.221L933.028 111.919L786.681 200.497L782.242 203.184L785.092 207.52L829.381 274.916L832.043 278.968L836.175 276.432L921.631 223.98V550.1V555.1H926.631H1026.12Z" stroke="white" stroke-width="10"/>
</g>
</g>
</g>
<defs>
<filter id="filter0_d" x="179.875" y="270.875" width="173.144" height="152.775" filterUnits="userSpaceOnUse" color-interpolation-filters="sRGB">
<feFlood flood-opacity="0" result="BackgroundImageFix"/>
<feColorMatrix in="SourceAlpha" type="matrix" values="0 0 0 0 0 0 0 0 0 0 0 0 0 0 0 0 0 0 127 0"/>
<feOffset dy="4"/>
<feGaussianBlur stdDeviation="2"/>
<feColorMatrix type="matrix" values="0 0 0 0 0 0 0 0 0 0 0 0 0 0 0 0 0 0 0.25 0"/>
<feBlend mode="normal" in2="BackgroundImageFix" result="effect1_dropShadow"/>
<feBlend mode="normal" in="SourceGraphic" in2="effect1_dropShadow" result="shape"/>
</filter>
<filter id="filter1_d" x="-269.714" y="97.21" width="1309.83" height="481.802" filterUnits="userSpaceOnUse" color-interpolation-filters="sRGB">
<feFlood flood-opacity="0" result="BackgroundImageFix"/>
<feColorMatrix in="SourceAlpha" type="matrix" values="0 0 0 0 0 0 0 0 0 0 0 0 0 0 0 0 0 0 127 0"/>
<feOffset dy="4"/>
<feGaussianBlur stdDeviation="2"/>
<feColorMatrix type="matrix" values="0 0 0 0 0 0 0 0 0 0 0 0 0 0 0 0 0 0 0.25 0"/>
<feBlend mode="normal" in2="BackgroundImageFix" result="effect1_dropShadow"/>
<feBlend mode="normal" in="SourceGraphic" in2="effect1_dropShadow" result="shape"/>
</filter>
</defs>
</svg>
