<svg width="32" height="32" viewBox="0 0 32 32" fill="none" xmlns="http://www.w3.org/2000/svg">
<g clip-path="url(#clip0)">
<path d="M28 6C28 5.46957 27.7893 4.96086 27.4142 4.58579C27.0391 4.21071 26.5304 4 26 4H22V2H20V4H12V2H10V4H6C5.46957 4 4.96086 4.21071 4.58579 4.58579C4.21071 4.96086 4 5.46957 4 6V26C4 26.5304 4.21071 27.0391 4.58579 27.4142C4.96086 27.7893 5.46957 28 6 28H10V26H6V6H10V8H12V6H20V8H22V6H26V12H28V6Z" fill="#F78012"/>
<path d="M22 12.375C16.6848 12.375 12.375 16.6848 12.375 22C12.375 27.3152 16.6848 31.625 22 31.625C27.3152 31.625 31.625 27.3152 31.625 22C31.625 16.6848 27.3152 12.375 22 12.375ZM22 29.9922C17.5871 29.9922 14.0078 26.4129 14.0078 22C14.0078 17.5871 17.5871 14.0078 22 14.0078C26.4129 14.0078 29.9922 17.5871 29.9922 22C29.9922 26.4129 26.4129 29.9922 22 29.9922Z" fill="#F78012"/>
<rect x="17.6569" y="18.6998" width="1.47487" height="10.3241" transform="rotate(-45 17.6569 18.6998)" fill="#F78012"/>
<rect x="18.6998" y="26" width="1.47487" height="10.3241" transform="rotate(-135 18.6998 26)" fill="#F78012"/>
</g>
<defs>
<clipPath id="clip0">
<rect width="32" height="32" fill="white"/>
</clipPath>
</defs>
</svg>
