<svg width="32" height="32" viewBox="0 0 32 32" fill="none" xmlns="http://www.w3.org/2000/svg">
<g clip-path="url(#clip0)">
<path d="M28 6C28 5.46957 27.7893 4.96086 27.4142 4.58579C27.0391 4.21071 26.5304 4 26 4H22V2H20V4H12V2H10V4H6C5.46957 4 4.96086 4.21071 4.58579 4.58579C4.21071 4.96086 4 5.46957 4 6V26C4 26.5304 4.21071 27.0391 4.58579 27.4142C4.96086 27.7893 5.46957 28 6 28H10V26H6V6H10V8H12V6H20V8H22V6H26V12H28V6Z" fill="#F78012"/>
<path d="M26.0176 18.584H25.01C24.7908 18.584 24.5824 18.6893 24.4535 18.8697L21.0762 23.5533L19.5465 21.4307C19.4176 21.2523 19.2113 21.1449 18.99 21.1449H17.9824C17.8428 21.1449 17.7611 21.3039 17.8428 21.4178L20.5197 25.1303C20.583 25.2185 20.6663 25.2905 20.7629 25.3401C20.8595 25.3897 20.9665 25.4156 21.0751 25.4156C21.1837 25.4156 21.2907 25.3897 21.3873 25.3401C21.4839 25.2905 21.5672 25.2185 21.6305 25.1303L26.1551 18.8568C26.2389 18.743 26.1572 18.584 26.0176 18.584Z" fill="#F78012"/>
<path d="M22 12.375C16.6848 12.375 12.375 16.6848 12.375 22C12.375 27.3152 16.6848 31.625 22 31.625C27.3152 31.625 31.625 27.3152 31.625 22C31.625 16.6848 27.3152 12.375 22 12.375ZM22 29.9922C17.5871 29.9922 14.0078 26.4129 14.0078 22C14.0078 17.5871 17.5871 14.0078 22 14.0078C26.4129 14.0078 29.9922 17.5871 29.9922 22C29.9922 26.4129 26.4129 29.9922 22 29.9922Z" fill="#F78012"/>
</g>
<defs>
<clipPath id="clip0">
<rect width="32" height="32" fill="white"/>
</clipPath>
</defs>
</svg>
