<svg width="63" height="60" viewBox="0 0 63 60" fill="none" xmlns="http://www.w3.org/2000/svg">
<path d="M43.7273 46.3636H40.0909V50H43.7273V46.3636ZM36.4545 39.0909H32.8182V42.7273H36.4545V39.0909ZM21.9091 46.3636H18.2727V50H21.9091V46.3636ZM43.7273 31.8182H40.0909V35.4545H43.7273V31.8182ZM47.3636 24.5455C48.3281 24.5455 49.253 24.9286 49.9349 25.6105C50.6169 26.2925 51 27.2174 51 28.1818V50H47.3636V28.1818H29.1818V50H25.5455V35.4545H14.6364V50H11V35.4545C11 34.4901 11.3831 33.5652 12.0651 32.8832C12.747 32.2013 13.6719 31.8182 14.6364 31.8182H25.5455V28.1818C25.5455 27.2174 25.9286 26.2925 26.6105 25.6105C27.2925 24.9286 28.2174 24.5455 29.1818 24.5455V20.9091C29.1818 19.9447 29.5649 19.0197 30.2469 18.3378C30.9288 17.6558 31.8538 17.2727 32.8182 17.2727H36.4545V10H40.0909V17.2727H43.7273C44.6917 17.2727 45.6166 17.6558 46.2986 18.3378C46.9805 19.0197 47.3636 19.9447 47.3636 20.9091V24.5455ZM43.7273 24.5455V20.9091H32.8182V24.5455H43.7273Z" fill="white"/>
<path d="M32.8184 31.8184H36.4547V35.4547H32.8184V31.8184Z" fill="#F78012"/>
<path d="M32.8189 49.9999H36.4553V46.3635H32.8189V49.9999Z" fill="#F78012"/>
<path d="M18.2734 39.0908H21.9098V42.7272H18.2734V39.0908Z" fill="#F78012"/>
<path d="M40.0916 39.0908H43.728V42.7272H40.0916V39.0908Z" fill="#F78012"/>
</svg>
