<svg width="63" height="60" viewBox="0 0 63 60" fill="none" xmlns="http://www.w3.org/2000/svg">
<path d="M47.425 11.7533H44.1074V10.6474C44.1074 9.67981 43.3241 8.89648 42.3565 8.89648C41.3888 8.89648 40.6055 9.67981 40.6055 10.6474V11.7533H32.8644V10.6474C32.8644 9.67981 32.0811 8.89648 31.1135 8.89648C30.1459 8.89648 29.3625 9.67981 29.3625 10.6474V11.7533H21.5754V10.6474C21.5754 9.67981 20.7921 8.89648 19.8244 8.89648C18.8568 8.89648 18.1196 9.67981 18.1196 10.6474V11.7533H14.802C11.7148 11.7533 9.22656 14.2415 9.22656 17.3287V45.5283C9.22656 48.6155 11.7148 51.1037 14.802 51.1037H47.425C50.5122 51.1037 53.0004 48.6155 53.0004 45.5283V17.3287C53.0004 14.2415 50.5122 11.7533 47.425 11.7533ZM14.802 15.2091H18.1196V16.315C18.1196 17.2826 18.9029 18.066 19.8705 18.066C20.8382 18.066 21.6215 17.2826 21.6215 16.315V15.2091H29.4086V16.315C29.4086 17.2826 30.1919 18.066 31.1596 18.066C32.1272 18.066 32.9105 17.2826 32.9105 16.315V15.2091H40.6977V16.315C40.6977 17.2826 41.481 18.066 42.4486 18.066C43.4163 18.066 44.1996 17.2826 44.1996 16.315V15.2091H47.5172C48.6691 15.2091 49.6367 16.1768 49.6367 17.3287V20.6002H12.6824V17.3287C12.6824 16.1307 13.65 15.2091 14.802 15.2091ZM47.425 47.6018H14.802C13.65 47.6018 12.6824 46.6342 12.6824 45.4822V24.0561H49.5446V45.5283C49.5446 46.6802 48.577 47.6018 47.425 47.6018Z" fill="white"/>
<path d="M22.4047 27.8809H18.2116C17.4283 27.8809 16.7832 28.5259 16.7832 29.3093V32.5347C16.7832 33.318 17.4283 33.9631 18.2116 33.9631H22.4047C23.188 33.9631 23.8331 33.318 23.8331 32.5347V29.3093C23.8331 28.4799 23.188 27.8809 22.4047 27.8809Z" fill="#F78012"/>
<path d="M44.016 27.8809H39.8229C39.0396 27.8809 38.3945 28.5259 38.3945 29.3093V32.5347C38.3945 33.318 39.0396 33.9631 39.8229 33.9631H44.016C44.7993 33.9631 45.4444 33.318 45.4444 32.5347V29.3093C45.4444 28.4799 44.7993 27.8809 44.016 27.8809Z" fill="#F78012"/>
<path d="M33.2328 27.8809H29.0397C28.2564 27.8809 27.6113 28.5259 27.6113 29.3093V32.5347C27.6113 33.318 28.2564 33.9631 29.0397 33.9631H33.2328C34.0161 33.9631 34.6612 33.318 34.6612 32.5347V29.3093C34.6151 28.4799 33.9701 27.8809 33.2328 27.8809Z" fill="white"/>
<path d="M22.4047 37.7412H18.2116C17.4283 37.7412 16.7832 38.3863 16.7832 39.1696V42.3951C16.7832 43.1784 17.4283 43.8235 18.2116 43.8235H22.4047C23.188 43.8235 23.8331 43.1784 23.8331 42.3951V39.1696C23.8331 38.3863 23.188 37.7412 22.4047 37.7412Z" fill="white"/>
<path d="M44.016 37.7412H39.8229C39.0396 37.7412 38.3945 38.3863 38.3945 39.1696V42.3951C38.3945 43.1784 39.0396 43.8235 39.8229 43.8235H44.016C44.7993 43.8235 45.4444 43.1784 45.4444 42.3951V39.1696C45.4444 38.3863 44.7993 37.7412 44.016 37.7412Z" fill="white"/>
<path d="M33.2328 37.7412H29.0397C28.2564 37.7412 27.6113 38.3863 27.6113 39.1696V42.3951C27.6113 43.1784 28.2564 43.8235 29.0397 43.8235H33.2328C34.0161 43.8235 34.6612 43.1784 34.6612 42.3951V39.1696C34.6151 38.3863 33.9701 37.7412 33.2328 37.7412Z" fill="#F78012"/>
</svg>
