<svg width="63" height="60" viewBox="0 0 63 60" fill="none" xmlns="http://www.w3.org/2000/svg">
<path d="M50.3633 36.2321V10.9551C50.3633 8.77425 48.589 7 46.4082 7H17.3164C15.1356 7 13.3613 8.77425 13.3613 10.9551V12.3613H11.9551C9.77425 12.3613 8 14.1356 8 16.3164C8 18.4972 9.77425 20.2715 11.9551 20.2715H13.3613V25.5449H11.9551C9.77425 25.5449 8 27.3192 8 29.5C8 31.6808 9.77425 33.4551 11.9551 33.4551H13.3613V38.7285H11.9551C9.77425 38.7285 8 40.5028 8 42.6836C8 44.8644 9.77425 46.6387 11.9551 46.6387H13.3613V47.957C13.3613 49.0078 13.7654 50.009 14.499 50.7765C15.2533 51.5655 16.2539 52 17.3164 52H43.7715C48.8601 52 53 47.8207 53 42.6836C53 40.1749 51.9933 37.8972 50.3633 36.2321ZM11.9551 17.6348C11.2281 17.6348 10.6367 17.0433 10.6367 16.3164C10.6367 15.5895 11.2281 14.998 11.9551 14.998H14.6797C15.4066 14.998 15.998 15.5895 15.998 16.3164C15.998 17.0433 15.4066 17.6348 14.6797 17.6348H11.9551ZM11.9551 30.8184C11.2281 30.8184 10.6367 30.2269 10.6367 29.5C10.6367 28.7731 11.2281 28.1816 11.9551 28.1816H14.6797C15.4066 28.1816 15.998 28.7731 15.998 29.5C15.998 30.2269 15.4066 30.8184 14.6797 30.8184H11.9551ZM14.6797 44.002H11.9551C11.2281 44.002 10.6367 43.4105 10.6367 42.6836C10.6367 41.9566 11.2281 41.3652 11.9551 41.3652H14.6797C15.4066 41.3652 15.998 41.9566 15.998 42.6836C15.998 43.4105 15.4066 44.002 14.6797 44.002ZM17.3164 49.3633C16.6142 49.3633 15.998 48.7061 15.998 47.957V46.4119C17.5325 45.8677 18.6348 44.4023 18.6348 42.6836C18.6348 40.9649 17.5325 39.4995 15.998 38.9553V33.2283C17.5325 32.6841 18.6348 31.2187 18.6348 29.5C18.6348 27.7813 17.5325 26.3159 15.998 25.7717V20.0447C17.5325 19.5005 18.6348 18.0351 18.6348 16.3164C18.6348 14.5977 17.5325 13.1323 15.998 12.5881V10.9551C15.998 10.2281 16.5895 9.63672 17.3164 9.63672H46.4082C47.1351 9.63672 47.7266 10.2281 47.7266 10.9551V34.3467C46.5272 33.7754 45.1861 33.4551 43.7715 33.4551C38.6829 33.4551 34.543 37.595 34.543 42.6836C34.543 45.301 35.6181 47.6693 37.3454 49.3633H17.3164ZM43.7715 49.3633C40.1368 49.3633 37.1797 46.3668 37.1797 42.6836C37.1797 39.0489 40.1368 36.0918 43.7715 36.0918C47.4062 36.0918 50.3633 39.0489 50.3633 42.6836C50.3633 46.3668 47.4062 49.3633 43.7715 49.3633Z" fill="white"/>
<path d="M43.7715 17.6348H35.8613C35.1332 17.6348 34.543 18.225 34.543 18.9531C34.543 19.6812 35.1332 20.2715 35.8613 20.2715H43.7715C44.4996 20.2715 45.0898 19.6812 45.0898 18.9531C45.0898 18.225 44.4996 17.6348 43.7715 17.6348Z" fill="white"/>
<path d="M43.7715 28.1816H35.8613C35.1332 28.1816 34.543 28.7719 34.543 29.5C34.543 30.2281 35.1332 30.8184 35.8613 30.8184H43.7715C44.4996 30.8184 45.0898 30.2281 45.0898 29.5C45.0898 28.7719 44.4996 28.1816 43.7715 28.1816Z" fill="white"/>
<path d="M46.4082 41.3652H45.0898V40.0469C45.0898 39.3188 44.4996 38.7285 43.7715 38.7285C43.0434 38.7285 42.4531 39.3188 42.4531 40.0469V42.6836C42.4531 43.4117 43.0434 44.002 43.7715 44.002H46.4082C47.1363 44.002 47.7266 43.4117 47.7266 42.6836C47.7266 41.9555 47.1363 41.3652 46.4082 41.3652Z" fill="white"/>
<path d="M31.4337 15.3842C30.9189 14.8693 30.0841 14.8693 29.5694 15.3843L25.2281 19.7255L23.1529 17.6503C22.6381 17.1354 21.8034 17.1354 21.2885 17.6503C20.7736 18.1651 20.7736 18.9998 21.2885 19.5147L24.2959 22.5221C24.5533 22.7796 24.8907 22.9082 25.2281 22.9082C25.5655 22.9082 25.9029 22.7796 26.1603 22.522L31.4337 17.2486C31.9486 16.7337 31.9486 15.899 31.4337 15.3842Z" fill="#F78012"/>
<path d="M31.4337 25.9311C30.9189 25.4162 30.0841 25.4162 29.5694 25.9311L25.2281 30.2723L23.1529 28.1971C22.6381 27.6823 21.8034 27.6823 21.2885 28.1971C20.7736 28.712 20.7736 29.5467 21.2885 30.0616L24.2959 33.069C24.5533 33.3264 24.8907 33.4551 25.2281 33.4551C25.5655 33.4551 25.9029 33.3264 26.1603 33.0689L31.4337 27.7955C31.9486 27.2806 31.9486 26.4459 31.4337 25.9311Z" fill="#F78012"/>
<path d="M31.4337 36.4779C30.9189 35.9631 30.0841 35.9631 29.5694 36.478L25.2281 40.8192L23.1529 38.744C22.6381 38.2292 21.8034 38.2292 21.2885 38.744C20.7736 39.2589 20.7736 40.0936 21.2885 40.6084L24.2959 43.6159C24.5533 43.8733 24.8907 44.002 25.2281 44.002C25.5655 44.002 25.9029 43.8733 26.1603 43.6158L31.4337 38.3424C31.9486 37.8275 31.9486 36.9928 31.4337 36.4779Z" fill="#F78012"/>
</svg>
