<svg width="63" height="60" viewBox="0 0 63 60" fill="none" xmlns="http://www.w3.org/2000/svg">
<path d="M55.2034 21.7278C53.757 20.1609 51.697 19.2953 49.407 19.2953H43.8954V16.3149C43.8954 15.5917 43.3037 15 42.5806 15H16.3269C15.6037 15 15.012 15.5917 15.012 16.3149V20.895H9.89495C9.17177 20.895 8.58008 21.4867 8.58008 22.2099C8.58008 22.9331 9.17177 23.5248 9.89495 23.5248H16.294C16.305 23.5248 16.3159 23.5248 16.3269 23.5248C16.3269 23.5248 16.3269 23.5248 16.3378 23.5248C17.061 23.5248 17.6527 22.9331 17.6527 22.2099V17.6298H41.2766V20.6101V38.2404H28.8949C28.8401 38.2404 28.7853 38.2404 28.7305 38.2514C28.0731 36.6297 26.4843 35.4792 24.6325 35.4792C22.7698 35.4792 21.181 36.6407 20.5345 38.2733C20.4359 38.2514 20.3482 38.2404 20.2496 38.2404H17.6527V33.6493C17.6527 32.9261 17.061 32.3344 16.3378 32.3344C16.3159 32.3344 16.294 32.3344 16.2721 32.3344C16.2502 32.3344 16.2392 32.3344 16.2173 32.3344H9.89495C9.17177 32.3344 8.58008 32.9261 8.58008 33.6493C8.58008 34.3725 9.17177 34.9642 9.89495 34.9642H15.012V39.5443C15.012 40.2675 15.6037 40.8592 16.3269 40.8592H20.2386C20.2715 40.8592 20.2934 40.8592 20.3263 40.8592C20.7646 42.8315 22.5287 44.2998 24.6325 44.2998C26.7363 44.2998 28.4895 42.8315 28.9387 40.8592H42.5915H44.6953C45.1446 42.8206 46.8977 44.2998 49.0015 44.2998C51.1053 44.2998 52.8585 42.8315 53.3078 40.8592H56.2443C56.9675 40.8592 57.5592 40.2675 57.5592 39.5443V28.6199C57.5592 25.782 56.7374 23.3933 55.2034 21.7278ZM24.6325 41.681C23.6464 41.681 22.8465 40.8811 22.8465 39.895C22.8465 38.9088 23.6464 38.1089 24.6325 38.1089C25.6187 38.1089 26.4186 38.9088 26.4186 39.895C26.4186 40.8811 25.6187 41.681 24.6325 41.681ZM49.0015 41.681C48.0154 41.681 47.2155 40.8811 47.2155 39.895C47.2155 38.9088 48.0154 38.1089 49.0015 38.1089C49.9877 38.1089 50.7876 38.9088 50.7876 39.895C50.7766 40.8811 49.9767 41.681 49.0015 41.681ZM54.9294 38.2404H53.0886C52.4312 36.6297 50.8424 35.4792 49.0015 35.4792C47.1607 35.4792 45.5719 36.6187 44.9145 38.2404H43.9064V21.925H49.4179C52.8695 21.925 54.9294 24.4342 54.9294 28.6309V38.2404Z" fill="white"/>
<path d="M26.583 30.3942C26.068 30.9092 26.068 31.7419 26.583 32.2569C26.835 32.509 27.1747 32.6404 27.5144 32.6404C27.854 32.6404 28.1827 32.509 28.4457 32.2569L31.8315 28.8711L31.8425 28.8602C31.8644 28.8273 31.8973 28.8054 31.9192 28.7725C31.9301 28.7506 31.9411 28.7396 31.9521 28.7177C31.963 28.6958 31.974 28.6849 31.9959 28.6629C32.0068 28.641 32.0178 28.6191 32.0288 28.5972C32.0397 28.5753 32.0507 28.5643 32.0616 28.5424C32.0726 28.5205 32.0835 28.4986 32.0945 28.4767C32.1055 28.4548 32.1164 28.4438 32.1164 28.4219C32.1274 28.4 32.1274 28.3781 32.1383 28.3561C32.1493 28.3342 32.1493 28.3123 32.1602 28.3014C32.1712 28.2794 32.1712 28.2575 32.1712 28.2356C32.1712 28.2137 32.1822 28.1918 32.1822 28.1699C32.1822 28.148 32.1931 28.126 32.1931 28.0932C32.1931 28.0713 32.2041 28.0603 32.2041 28.0384C32.215 27.9507 32.215 27.8631 32.2041 27.7754C32.2041 27.7535 32.2041 27.7425 32.1931 27.7206C32.1931 27.6987 32.1822 27.6768 32.1822 27.6439C32.1822 27.622 32.1712 27.6001 32.1712 27.5782C32.1712 27.5563 32.1602 27.5343 32.1602 27.5124C32.1493 27.4905 32.1493 27.4686 32.1383 27.4576C32.1274 27.4357 32.1274 27.4138 32.1164 27.3919C32.1055 27.37 32.0945 27.359 32.0945 27.3371C32.0835 27.3152 32.0726 27.2933 32.0616 27.2714C32.0507 27.2495 32.0397 27.2385 32.0288 27.2166C32.0178 27.1947 32.0068 27.1728 31.9959 27.1508C31.9849 27.1289 31.974 27.118 31.9521 27.0961C31.9411 27.0741 31.9301 27.0632 31.9192 27.0413C31.8973 27.0084 31.8644 26.9865 31.8425 26.9536L31.8315 26.9426L28.6101 23.7212C28.0951 23.2062 27.2623 23.2062 26.7473 23.7212C26.2323 24.2362 26.2323 25.069 26.7473 25.5839L27.7225 26.5591H5.31488C4.59169 26.5591 4 27.1508 4 27.874C4 28.5972 4.59169 29.1889 5.31488 29.1889H27.7116L26.583 30.3942Z" fill="#F78012"/>
</svg>
