<svg width="57" height="42" viewBox="0 0 57 42" fill="none" xmlns="http://www.w3.org/2000/svg">
<path d="M55.6598 21.3414L46.3267 12.0084C46.108 11.7896 45.8118 11.6666 45.5018 11.6666H37.3353V8.16667C37.3353 7.52182 36.8135 7 36.1687 7H28.483C28.1138 7 27.7674 7.17434 27.5464 7.46943C27.3277 7.76561 27.2593 8.14731 27.3641 8.50048C27.7879 9.91553 28.0021 11.3738 28.0021 12.8333C28.0023 21.1956 21.1984 27.9995 12.836 27.9995C12.1843 27.9995 11.4961 27.9448 10.669 27.8251C10.3272 27.7818 9.99447 27.8775 9.7393 28.0985C9.48184 28.3207 9.33594 28.642 9.33594 28.9804V32.666C9.33594 35.2397 11.43 37.3326 14.0025 37.3326H14.1204C14.6626 39.9918 17.018 41.9991 19.8358 41.9991C22.6535 41.9991 25.009 39.9918 25.551 37.3325H39.7865C40.3286 39.9918 42.6841 41.9991 45.5018 41.9991C48.3196 41.9991 50.675 39.9918 51.2171 37.3325H54.8349C55.4797 37.3325 56.0016 36.8107 56.0016 36.1658V22.1662C56.0016 21.8563 55.8785 21.5602 55.6598 21.3414ZM19.8358 39.6658C17.9058 39.6658 16.3359 38.0959 16.3359 36.1659C16.3359 34.236 17.9058 32.666 19.8358 32.666C21.7658 32.666 23.3357 34.236 23.3357 36.1659C23.3357 38.0959 21.7658 39.6658 19.8358 39.6658ZM45.5018 39.6658C43.5718 39.6658 42.0019 38.0959 42.0019 36.1659C42.0019 34.236 43.5718 32.666 45.5018 32.666C47.4318 32.666 49.0017 34.236 49.0017 36.1659C49.0017 38.0959 47.4318 39.6658 45.5018 39.6658ZM47.8351 25.6662H40.8352C40.1904 25.6662 39.6686 25.1444 39.6686 24.4995V17.4997C39.6686 16.8549 40.1904 16.3331 40.8352 16.3331C41.4801 16.3331 42.0019 16.8549 42.0019 17.4997V23.3329H47.8351C48.4799 23.3329 49.0017 23.8547 49.0017 24.4995C49.0017 25.1444 48.4799 25.6662 47.8351 25.6662Z" fill="white"/>
<path d="M25.666 12.833C25.666 5.7568 19.908 0 12.833 0C5.7579 0 0 5.7568 0 12.833C0 19.9091 5.75801 25.6659 12.833 25.6659C19.9079 25.6659 25.666 19.9091 25.666 12.833ZM11.6664 12.833V5.83314C11.6664 5.18829 12.1882 4.66647 12.8331 4.66647C13.4779 4.66647 13.9997 5.18829 13.9997 5.83314V12.3499L17.1579 15.508C17.6136 15.9637 17.6136 16.702 17.1579 17.1576C16.93 17.3855 16.6315 17.4994 16.333 17.4994C16.0345 17.4994 15.736 17.3855 15.5081 17.1576L12.0082 13.6577C11.7894 13.4391 11.6664 13.1429 11.6664 12.833Z" fill="white"/>
</svg>
