<svg width="44" height="52" viewBox="0 0 44 52" fill="none" xmlns="http://www.w3.org/2000/svg">
<path d="M1.46663 4.4503C0.605749 4.96133 0 5.86003 0 6.93403V10.6831C0.866229 10.1778 1.86003 9.86729 2.93326 9.86729C4.0065 9.86729 5.0003 10.1778 5.86653 10.6831V6.93403C5.86653 5.86003 5.26078 4.96133 4.3999 4.4503V0.969727H1.46663V4.4503Z" fill="white"/>
<path d="M5.86653 15.734C5.86653 17.3542 4.55343 18.6673 2.93326 18.6673C1.31309 18.6673 0 17.3542 0 15.734C0 14.1139 1.31309 12.8008 2.93326 12.8008C4.55343 12.8008 5.86653 14.1139 5.86653 15.734Z" fill="white"/>
<path d="M43.9993 15.734C43.9993 17.3542 42.6862 18.6673 41.0661 18.6673C39.4459 18.6673 38.1328 17.3542 38.1328 15.734C38.1328 14.1139 39.4459 12.8008 41.0661 12.8008C42.6862 12.8008 43.9993 14.1139 43.9993 15.734Z" fill="white"/>
<path d="M44.0003 21.6007V29.0316C44.0003 35.9248 40.8325 42.0552 35.875 46.0739C37.3126 43.6391 38.1338 40.8235 38.1338 37.8314C38.1338 36.3059 37.9283 34.8393 37.5177 33.4315C37.9283 32.0237 38.1338 30.5571 38.1338 29.0316V21.6007C38.1338 21.3474 38.1658 21.1011 38.2277 20.8662C39.0695 21.3337 40.0373 21.6007 41.067 21.6007C42.0967 21.6007 43.0646 21.3337 43.9063 20.8662C43.9682 21.1011 44.0003 21.3474 44.0003 21.6007Z" fill="white"/>
<path d="M35.1992 37.8314C35.1992 44.7754 29.7363 51.0311 21.9995 51.0311C9.97997 51.0311 0 41.2887 0 29.0316V21.6007C0 21.3474 0.0320826 21.1011 0.0939561 20.8662C0.935742 21.3337 1.90357 21.6007 2.93326 21.6007C3.96296 21.6007 4.93079 21.3337 5.77257 20.8662C5.83444 21.1011 5.86653 21.3474 5.86653 21.6007V29.0316C5.86653 30.5571 6.07201 32.0237 6.48259 33.4021C8.38921 40.178 14.6075 45.1646 21.9995 45.1646C26.5342 45.1646 29.3326 41.5381 29.3326 37.8314C29.3326 33.7836 26.0472 30.4982 21.9995 30.4982C17.9517 30.4982 14.6663 33.7836 14.6663 37.8314C14.6663 38.9753 14.9302 40.0608 15.3996 41.0286C12.5252 39.6502 10.3252 37.1275 9.35703 34.0476C10.9703 28.5916 16.0157 24.6317 21.9995 24.6317C29.3032 24.6317 35.1992 30.5276 35.1992 37.8314Z" fill="white"/>
<path d="M43.9993 6.93403C43.9993 5.86003 43.3936 4.96133 42.5327 4.4503V0.969727H39.5994V4.4503C38.7386 4.96133 38.1328 5.86003 38.1328 6.93403V10.6831C38.999 10.1778 39.9928 9.86729 41.0661 9.86729C42.1393 9.86729 43.1331 10.1778 43.9993 10.6831V6.93403Z" fill="white"/>
</svg>
