<svg width="26" height="26" viewBox="0 0 26 26" fill="none" xmlns="http://www.w3.org/2000/svg">
<path d="M17.909 8.89376H20.3378C20.8697 8.89376 21.3048 8.45839 21.3048 7.92622V5.61084C21.3048 5.0784 20.8697 4.64331 20.3378 4.64331H17.909C17.3769 4.64331 16.9418 5.0784 16.9418 5.61084V7.92622C16.9418 8.45839 17.3769 8.89376 17.909 8.89376Z" fill="#F78012"/>
<path d="M13.0205 17.1346C15.4038 17.1346 17.3359 15.2625 17.3359 12.9533C17.3359 10.644 15.4038 8.77197 13.0205 8.77197C10.6371 8.77197 8.70502 10.644 8.70502 12.9533C8.70502 15.2625 10.6371 17.1346 13.0205 17.1346Z" fill="#F78012"/>
<path d="M24.617 0H1.38298C0.619298 0 0 0.619298 0 1.38298V24.617C0 25.3807 0.619298 26 1.38298 26H24.617C25.381 26 26 25.3807 26 24.617V1.38298C26 0.619298 25.381 0 24.617 0ZM23.7438 20.9859C23.7438 22.6208 22.5027 23.7438 20.9859 23.7438H5.01413C3.49728 23.7438 2.25619 22.6208 2.25619 20.9859V5.01413C2.25619 3.37917 3.497 2.25619 5.01413 2.25619H20.9859C22.5024 2.25619 23.7438 3.37917 23.7438 5.01413V20.9859Z" fill="#F78012"/>
<path d="M19.6994 13.187C19.6994 16.7612 16.7088 19.6583 13.0207 19.6583C9.33204 19.6583 6.34176 16.7609 6.34176 13.187C6.34176 12.5465 6.43857 11.9277 6.61753 11.3433H4.64374V20.4198C4.64374 20.8894 5.02848 21.2739 5.49814 21.2739H20.4617C20.9311 21.2739 21.3158 20.8894 21.3158 20.4198V11.3433H19.4245C19.6026 11.9277 19.6994 12.5462 19.6994 13.187Z" fill="#F78012"/>
</svg>
