<svg width="50" height="40" viewBox="0 0 50 40" fill="none" xmlns="http://www.w3.org/2000/svg">
<path d="M10.6104 11.4092H2.03308C1.24291 11.4092 0.603516 12.0486 0.603516 12.8387V38.5708C0.603516 39.361 1.24291 40.0004 2.03308 40.0004H10.6104C12.9753 40.0004 14.8991 38.0766 14.8991 35.7117V15.6979C14.8991 13.3329 12.9753 11.4092 10.6104 11.4092ZM7.75131 34.2821C6.96182 34.2821 6.32175 33.6421 6.32175 32.8526C6.32175 32.0629 6.96182 31.423 7.75131 31.423C8.54081 31.423 9.18087 32.0629 9.18087 32.8526C9.18087 33.642 8.54081 34.2821 7.75131 34.2821Z" fill="white"/>
<path d="M49.3987 18.5563C49.3987 16.1915 47.4749 14.2677 45.1101 14.2677H34.3046C36.837 9.76542 37.4513 5.70289 35.9631 2.88704C35.0081 1.07913 33.2324 0 31.2221 0C31.2109 0 31.1998 0 31.1858 0C28.1032 0 27.5839 2.39146 27.1651 4.31517C26.5927 6.93832 25.8165 10.5095 20.369 14.2677H17.7578V37.1954L18.7044 37.4604C23.1494 38.7085 27.9358 39.9998 32.702 39.9998H39.3918C41.7567 39.9998 43.6805 38.076 43.6805 35.7112C43.6805 35.1541 43.5744 34.6209 43.379 34.1308C45.1994 33.6353 46.5396 31.967 46.5396 29.9929C46.5396 29.4359 46.4335 28.9026 46.2381 28.4126C48.0586 27.917 49.3987 26.2487 49.3987 24.2747C49.3987 23.1774 48.9855 22.175 48.3043 21.4156C48.9855 20.656 49.3987 19.6536 49.3987 18.5563Z" fill="white"/>
</svg>
