<svg width="448" height="141" viewBox="0 0 448 141" fill="none" xmlns="http://www.w3.org/2000/svg">
<g clip-path="url(#clip0)">
<path d="M64.0141 141.001C64.0141 141.001 129.079 140.376 145.725 134.435C145.725 134.435 169.942 125.291 169.995 107.349C170.049 89.4085 145.614 82.8927 137.638 97.3737L142.254 96.7859C142.254 96.7859 149.326 90.2668 158.571 97.0231C167.816 103.779 160.131 116.717 154.193 120.291C154.193 120.291 153.018 111.604 143.847 113.254C143.847 113.254 142.492 99.1838 135.603 98.0483C135.603 98.0483 132.49 93.6399 132.058 91.6427C131.63 89.6456 133.243 86.4261 132.089 83.8478C132.089 83.8478 138.662 82.1245 140.875 79.9904C140.875 79.9904 144.62 81.9308 145.43 78.9885C146.24 76.0462 143.522 74.2528 140.333 74.353C137.143 74.4565 127.727 77.4656 125.947 76.0295C124.166 74.5934 128.166 73.8587 125.762 67.4698C125.762 67.4698 128.363 66.381 125.003 63.7493C121.642 61.1176 123.875 59.3142 123.875 59.3142C123.875 59.3142 124.782 55.3967 121.153 51.055C117.522 46.7134 115.165 48.4534 115.165 48.4534C115.165 48.4534 107.584 37.9499 99.4337 40.6217C91.2834 43.2968 89.8508 54.5951 80.7566 54.2244C80.7566 54.2244 82.139 55.5503 84.1908 55.0961C84.1908 55.0961 80.1474 57.9916 83.9364 61.288C87.7254 64.5809 91.6248 63.2651 93.0507 61.2813C93.0507 61.2813 94.3326 63.038 94.3427 64.6978C94.3527 66.3577 94.9217 68.956 93.7469 70.9665L95.9359 71.8949C95.9359 71.8949 93.2984 81.1126 93.9343 89.9729C93.9343 89.9729 85.2585 80.8721 72.0205 83.1765C58.7792 85.4809 39.5698 100.723 64.0174 141.007L64.0141 141.001Z" fill="white"/>
<path d="M269.62 71.051C269.758 71.0076 269.858 70.9708 269.948 70.9341C274.236 69.675 280.656 66.8129 282.715 60.6477C282.715 60.6477 283.451 59.0847 283.832 57.475C283.24 56.3028 283.019 59.7093 281.754 54.1653C281.754 54.1653 282.038 61.6697 278.196 64.5085C278.196 64.5085 281.503 58.3801 278.598 54.3123C275.692 50.2445 281.918 59.6325 274.012 67.1235C274.012 67.1235 277.881 61.4693 276.034 57.5084C274.219 53.6176 278.102 66.4388 266.421 70.5033C266.585 68.102 268.921 65.0061 268.921 65.0061C260.138 65.4035 245.869 82.2992 243.446 85.2883C241.022 88.2807 236.798 92.3217 229.491 90.4415C222.181 88.5578 215.972 88.9185 215.972 88.9185C202.453 87.3956 207.852 79.6842 207.852 79.6842C203.159 82.9371 205.609 85.6389 205.609 85.6389C204.451 86.0364 201.687 85.305 201.687 85.305C205.194 91.4668 210.931 90.044 210.931 90.044C207.343 92.3752 205.978 94.5527 205.978 96.4797C204.224 99.2583 202.718 103.453 202.594 109.809C202.594 109.809 196.505 109.735 195.839 112.133C195.173 114.528 197.499 121.474 185.617 124.42L183.779 128.484C183.779 128.484 187.749 129.105 190.614 127.639L189.034 129.69C189.034 129.69 199.641 127.743 202.768 122.473C205.894 117.203 206.794 113.178 211.346 112.08C215.862 110.984 223.092 109.812 224.42 105.373C226.653 106.586 229.468 108.339 234.033 108.523C242.033 108.853 238.144 107.214 246.676 110.196C248.098 110.694 249.37 110.891 250.525 110.904C252.265 113.092 254.481 115.79 256.59 118.098C260.978 122.897 263.944 133.728 266.601 135.701C266.601 135.701 268.971 139.191 270.792 138.29C270.792 138.29 269.487 135.267 267.823 131.864C268.553 129.456 269.517 126.016 269.945 123.385C270.675 118.883 266.524 108.586 263.77 103.51C263.345 102.722 262.699 102.171 261.949 101.773C262.371 98.9711 261.53 95.4143 260.948 92.3785C259.961 87.2854 261.741 82.1823 268.831 82.9371C275.92 83.6885 277.774 75.8702 277.774 75.8702C279.213 77.0725 280.003 75.3826 278.909 74.2037C277.476 72.9279 277.309 75.3659 276.512 75.3359C275.793 75.3058 270.671 74.7013 267.93 73.0782C267.793 72.5439 267.833 71.5987 269.624 71.051H269.62ZM263.592 113.529C265.892 115.977 268.747 119.571 267.318 125.275C266.949 126.758 266.595 127.913 266.307 128.872C265.544 127.422 264.764 126.04 264.044 124.927C261.748 121.384 260.399 115.72 259.114 110.139C261.038 111.415 262.789 112.674 263.592 113.529Z" fill="white"/>
<path d="M436.34 101.739C433.328 99.8016 430.309 96.1947 427.347 92.364C429.626 92.3607 431.741 92.4375 432.873 92.7013C436.146 93.4595 440.521 94.8621 442.516 100.396C444.511 105.93 444.025 107.396 447.463 108.525C447.463 108.525 445.548 101.522 443.644 97.3736C441.739 93.2257 432.551 86.9737 427.43 84.2819C427.343 84.2351 427.253 84.2218 427.163 84.1817C428.629 81.1492 427.059 76.4469 425.991 72.5795C424.602 67.5799 425.974 62.3532 433.104 62.5469C440.23 62.734 441.455 54.7954 441.455 54.7954C442.985 55.8808 443.641 54.1342 442.456 53.0421C440.926 51.8832 440.953 54.3279 440.16 54.3613C439.447 54.388 434.439 54.1943 431.551 52.8484C431.273 52.4175 430.888 51.3689 432.699 50.3603C432.93 50.2334 433.06 50.1365 433.141 50.0597C437.291 48.3832 443.112 44.9967 444.591 38.8816C444.591 38.8816 446.128 36.7442 445.438 35.6287C444.745 34.5099 444.812 37.9198 443.085 32.5061C443.085 32.5061 444.009 39.9537 440.417 43.1097C440.417 43.1097 443.192 36.7242 439.949 32.9169C436.709 29.1163 443.711 37.9398 436.474 46.0721C436.474 46.0721 439.848 40.1106 437.666 36.3267C435.567 32.6631 440.31 44.6226 429.747 49.8192C429.981 47.4848 431.775 44.666 431.775 44.666C423.052 45.7581 410.159 63.7225 407.983 66.8953C405.808 70.0714 401.915 74.433 394.481 73.1339C387.05 71.8314 380.885 72.6797 380.885 72.6797C367.285 72.2288 372.058 64.1166 372.058 64.1166C367.64 67.7269 370.298 70.2283 370.298 70.2283C369.176 70.7159 366.361 70.2049 366.361 70.2049C370.351 76.0728 375.954 74.1959 375.954 74.1959C374.388 75.4016 373.297 76.5571 372.574 77.6625C369.779 80.1506 368.373 84.4121 369.863 88.8206C372.704 97.2467 363.205 105.603 363.205 105.603C373.946 112.549 368.969 119.129 368.597 120.785C368.226 122.445 370.763 123.831 370.763 123.831C375.596 118.905 373.334 108.712 373.334 108.712C375.402 109.881 382.331 113.474 383.911 116.851C385.494 120.227 389.189 120.1 389.189 120.1C387.449 106.588 370.11 106.491 377.009 102.727C386.712 97.4271 388.734 92.6947 388.824 89.7924C391.646 90.9346 395.241 93.9003 400.931 93.6832C408.931 93.376 406.236 91.7028 414.976 94.0038C416.057 94.2877 417.021 94.3812 417.884 94.3345C420.418 95.6436 423.718 97.2834 426.731 98.5826C432.709 101.161 439.875 109.811 443.112 110.519C443.112 110.519 446.71 112.73 447.999 111.16C447.999 111.16 440.836 104.638 436.337 101.742L436.34 101.739Z" fill="white"/>
<path d="M353.72 111.206C353.067 107.269 347.454 100.312 343.223 95.997C345.091 92.8576 342.905 87.8747 341.386 83.8136C339.565 78.9543 340.472 73.6308 347.588 73.1966C354.704 72.7591 355.226 64.7438 355.226 64.7438C356.846 65.6923 357.348 63.8922 356.07 62.9136C354.443 61.8917 354.684 64.3263 353.897 64.4265C353.225 64.5133 348.649 64.7371 345.63 63.822C345.653 63.8187 345.683 63.8187 345.7 63.8087C345.7 63.8087 344.495 62.6698 346.165 61.3573C350.195 59.4102 355.906 55.6096 356.953 49.3142C356.953 49.3142 358.021 46.0714 357.609 44.1844C356.836 43.119 357.111 48.339 354.995 43.0623C354.995 43.0623 356.448 50.4264 353.094 53.8329C353.094 53.8329 355.404 47.267 351.899 43.6968C348.395 40.1333 356.009 48.4359 349.369 57.0657C349.369 57.0657 352.307 50.8772 349.867 47.257C347.524 43.7803 353.024 55.1888 343.136 61.1603C342.999 58.7757 344.693 55.5094 344.693 55.5094C336.1 57.363 324.841 76.3894 322.953 79.7392C321.062 83.0923 317.571 87.7779 310.05 87.1367C302.528 86.4921 296.467 87.8781 296.467 87.8781C282.884 88.6228 286.921 80.1232 286.921 80.1232C282.837 84.1075 285.702 86.3652 285.702 86.3652C284.628 86.953 281.779 86.6891 281.779 86.6891C285.227 90.9139 289.217 90.4964 290.884 90.0756C290.526 90.2827 290.161 90.5098 289.783 90.7636C289.783 90.7636 281.699 95.2589 284.963 110.785C284.963 110.785 279.011 112.078 278.901 114.563C278.787 117.047 282.62 123.293 271.701 128.826L270.824 133.192C270.824 133.192 274.831 132.911 277.294 130.84L276.217 133.195C276.217 133.195 286.117 128.927 287.975 123.092C289.836 117.258 289.809 113.136 294 111.042C297.996 109.045 304.416 106.41 305.166 102.095C307.914 102.393 311.372 104.998 317.544 104.216C325.483 103.211 321.38 102.242 330.283 103.769C330.614 103.825 330.922 103.845 331.237 103.879C334.29 105.749 338.196 108.274 339.528 109.693C341.824 112.141 344.679 115.735 343.25 121.439C341.821 127.143 340.606 128.095 342.835 130.937C342.835 130.937 345.144 124.054 345.874 119.549C346.48 115.808 343.719 108.08 341.185 102.653C342.607 103.077 343.826 103.508 344.545 103.895C347.504 105.485 351.357 107.98 351.825 113.848C352.294 119.709 351.444 120.998 354.466 122.982C354.466 122.982 354.456 115.725 353.713 111.223L353.72 111.206Z" fill="white"/>
<path d="M126.188 78.9326C126.188 78.9326 126.506 78.8291 127.119 78.632C127.735 78.4383 128.635 78.121 129.85 77.8372C130.453 77.6769 131.125 77.5032 131.889 77.3963C132.642 77.256 133.468 77.1158 134.382 77.0824C136.186 76.9054 138.325 77.0657 140.578 77.7403C141.13 77.9407 141.726 78.0876 142.281 78.3515C142.834 78.6287 143.399 78.9125 143.978 79.2031C145.07 79.7909 146.214 80.4054 147.399 81.0433C149.769 82.3091 152.266 83.7752 155.108 84.9508C156.507 85.582 157.946 86.2332 159.426 86.9012C160.905 87.5625 162.502 88.0567 164.088 88.6646C165.698 89.2123 167.295 89.9303 169.012 90.3812C170.719 90.8688 172.463 91.3664 174.237 91.8707C181.386 93.6508 189.199 95.0167 197.426 95.3006C205.643 95.5711 214.219 94.9366 222.767 93.3569C231.319 91.7872 239.841 89.2891 248.042 86.1163C250.093 85.3248 252.108 84.4398 254.147 83.6182C256.202 82.81 258.254 82.0051 260.292 81.2036L263.345 80.0147L266.468 79.0328C268.54 78.3882 270.598 77.747 272.64 77.1124C272.64 77.1124 271.308 77.6268 268.864 78.5652C267.646 79.0294 266.15 79.6039 264.402 80.2718C262.659 80.9398 260.747 81.9049 258.575 82.8601C254.237 84.7571 249.143 87.3721 243.118 89.6965C237.106 92.0444 230.208 94.1517 222.663 95.6813C215.122 97.1842 206.915 98.1227 198.433 97.8722C189.958 97.6317 181.259 96.3025 172.848 93.8979C164.396 91.5902 156.383 87.8764 149.016 83.6416C147.198 82.5428 145.391 81.4474 143.597 80.362C141.866 79.3267 140.046 78.3916 138.047 78.0375C134.071 77.216 129.967 77.9841 126.182 78.9259L126.188 78.9326Z" fill="white"/>
<path d="M125.835 81.8164C125.835 81.8164 126.153 81.7128 126.765 81.5158C127.381 81.3221 128.282 81.0048 129.497 80.7209C130.099 80.5606 130.772 80.387 131.535 80.2801C132.288 80.1432 133.115 79.9996 134.029 79.9662C135.833 79.7892 137.972 79.9495 140.224 80.6241C140.777 80.8245 141.372 80.9714 141.928 81.2353C142.48 81.5125 143.046 81.7963 143.625 82.0869C144.719 82.6747 145.861 83.2892 147.046 83.9271C149.416 85.1928 151.913 86.659 154.754 87.8346C156.153 88.4658 157.593 89.117 159.072 89.785C160.552 90.4462 162.148 90.9405 163.735 91.5483C165.345 92.0961 166.941 92.8141 168.658 93.265C170.365 93.7526 172.109 94.2502 173.883 94.7545C181.033 96.5346 188.845 97.9005 197.072 98.1844C205.29 98.4549 213.865 97.8237 222.414 96.2407C230.969 94.671 239.487 92.1729 247.688 89.0001C249.743 88.2086 251.755 87.3236 253.793 86.502C255.848 85.6938 257.9 84.8889 259.939 84.0874L262.991 82.8985L266.114 81.9166C268.186 81.272 270.241 80.6308 272.286 79.9996C272.286 79.9996 270.954 80.5139 268.511 81.4523C267.292 81.9166 265.796 82.491 264.049 83.1556C262.305 83.8202 260.39 84.7887 258.222 85.7439C253.884 87.6409 248.789 90.2559 242.764 92.5803C236.753 94.9281 229.854 97.0355 222.31 98.5651C214.769 100.068 206.558 101.006 198.08 100.753C189.605 100.516 180.906 99.183 172.494 96.7784C164.043 94.4706 156.03 90.7568 148.662 86.5221C146.845 85.4233 145.037 84.3279 143.243 83.2424C141.51 82.2071 139.692 81.272 137.694 80.918C133.717 80.0964 129.614 80.8646 125.828 81.8064L125.835 81.8164Z" fill="white"/>
<path d="M244.031 93.8431C244.031 93.8431 244.175 93.5792 244.453 93.0716C244.711 92.5539 245.159 91.8259 245.795 90.9041C246.471 90.0191 247.332 88.9103 248.647 87.9184C249.932 86.9098 251.669 86.0081 253.755 85.614C257.979 84.7824 263.016 86.1684 268.101 88.3258C273.235 90.4332 278.627 93.6093 284.723 95.6031C297.204 99.023 312.695 97.4266 327.419 93.2018C331.087 92.063 334.719 90.6737 338.133 88.9003C341.531 87.1302 344.757 84.9093 347.017 81.9703C348.208 80.5342 348.901 78.821 349.319 77.0709C349.35 76.1892 349.617 75.2508 349.44 74.4159C349.293 73.5676 349.028 72.7126 348.55 71.9712C347.636 70.485 346.063 69.3495 344.322 69.2526C342.568 69.0856 340.905 70.1477 339.75 71.5337C339.81 71.6205 340.302 70.3247 342.317 69.2894C343.318 68.8084 344.811 68.6014 346.367 69.2226C347.897 69.8504 349.423 71.2598 350.143 73.3204C350.33 73.8314 350.441 74.3758 350.514 74.9469C350.544 75.5113 350.484 76.0891 350.471 76.6835C350.491 77.288 350.35 77.8758 350.176 78.4736C350.006 79.0681 349.915 79.716 349.594 80.2771C348.637 82.7017 346.772 84.8725 344.563 86.7561C340.101 90.5634 334.16 93.3521 327.653 95.5096C324.4 96.605 320.915 97.4333 317.384 98.138C315.624 98.532 313.799 98.7758 311.975 99.0998C310.134 99.3202 308.283 99.6041 306.395 99.7343C298.861 100.312 290.948 100.028 283.317 97.5936C275.859 94.8383 269.513 90.3864 262.528 87.905C259.083 86.6827 255.371 85.958 251.927 87.0133C248.446 88.0319 245.882 90.8941 244.031 93.8397V93.8431Z" fill="white"/>
<path d="M246.15 96.5427C246.15 96.5427 246.294 96.2788 246.569 95.7712C246.823 95.2535 247.275 94.5255 247.911 93.6037C248.587 92.7187 249.451 91.6099 250.763 90.618C252.048 89.6094 253.785 88.7077 255.871 88.3136C260.095 87.482 265.132 88.868 270.216 91.0254C275.351 93.1328 280.743 96.3089 286.838 98.3027C299.32 101.723 314.811 100.126 329.535 95.9014C333.203 94.7626 336.832 93.3766 340.249 91.6032C343.646 89.8331 346.873 87.6122 349.132 84.6733C350.324 83.2372 351.017 81.5272 351.435 79.7739C351.465 78.8922 351.736 77.9537 351.556 77.1188C351.408 76.2705 351.144 75.4155 350.665 74.6775C349.752 73.1913 348.178 72.0558 346.438 71.9589C344.684 71.7919 343.02 72.854 341.866 74.2366C341.926 74.3234 342.418 73.0276 344.433 71.989C345.434 71.5081 346.927 71.301 348.483 71.9255C350.013 72.5501 351.539 73.9661 352.259 76.0234C352.446 76.5343 352.556 77.0787 352.63 77.6498C352.66 78.2142 352.6 78.792 352.587 79.3865C352.607 79.991 352.466 80.5788 352.292 81.1766C352.121 81.771 352.031 82.419 351.71 82.98C350.752 85.4047 348.888 87.5755 346.676 89.4591C342.214 93.2664 336.273 96.0551 329.766 98.2125C326.509 99.308 323.028 100.136 319.497 100.838C317.736 101.232 315.912 101.475 314.091 101.799C312.25 102.02 310.399 102.304 308.511 102.434C300.98 103.012 293.064 102.728 285.433 100.293C277.975 97.5379 271.629 93.0894 264.643 90.6046C261.199 89.3823 257.487 88.6609 254.043 89.7129C250.565 90.7315 247.998 93.5937 246.15 96.5393V96.5427Z" fill="white"/>
<path d="M320.341 89.4941C320.341 89.4941 320.412 89.1568 320.545 88.5089C320.663 87.8543 320.9 86.8992 321.255 85.6635C321.66 84.4478 322.145 82.9215 323.143 81.3085C324.11 79.7154 325.63 77.952 327.916 76.9367C330.189 75.9215 332.943 75.6476 335.788 75.858C338.664 76.0751 341.589 76.7731 344.722 77.3409C347.852 77.952 351.165 78.6033 354.64 79.2812C356.37 79.6286 358.144 79.9859 359.955 80.3499C361.766 80.6672 363.613 80.9912 365.494 81.3185C369.247 82.0732 373.166 82.4807 377.193 82.9516C378.197 83.0685 379.211 83.1854 380.229 83.3023C381.246 83.3524 382.27 83.4058 383.301 83.4559C385.363 83.6229 387.448 83.4893 389.55 83.4926C397.962 83.1453 406.628 81.2851 415.049 78.296C416.097 77.9186 417.158 77.5847 418.205 77.1772L421.342 75.878C423.414 75.003 425.482 74.1447 427.29 72.9658C428.254 72.4415 429.013 71.7034 429.854 71.0455C430.53 70.2539 431.33 69.5426 431.781 68.5908C432.923 66.8441 433.632 64.6966 433.458 62.7396C433.328 60.7524 432.002 59.1193 430.068 58.4246C428.14 57.7266 425.894 57.593 423.956 58.3378C421.998 59.0458 420.261 60.3951 418.975 62.105C417.74 63.8517 416.91 65.8622 416.522 67.9696C416.522 67.9696 416.582 67.6189 416.692 66.9443C416.759 66.6103 416.79 66.1795 416.93 65.6952C417.094 65.2143 417.282 64.6599 417.492 64.0354C417.744 63.4242 418.128 62.793 418.5 62.0649C418.979 61.4204 419.467 60.6556 420.15 59.9876C421.452 58.5816 423.447 57.376 425.907 56.9952C427.149 56.7982 428.471 56.8416 429.817 57.1689C431.152 57.4895 432.541 58.1842 433.542 59.3965C434.576 60.5888 434.995 62.272 434.955 63.9085C434.908 65.5616 434.416 67.2081 433.639 68.7344C432.176 71.9372 429.124 74.3485 425.847 76.0584C424.2 76.9501 422.466 77.6848 420.729 78.4496C419.019 79.2679 417.171 79.9291 415.303 80.6205C407.876 83.3824 399.565 85.4597 390.789 85.9807C386.421 86.1678 381.929 86.1177 377.517 85.5199C375.308 85.236 373.092 84.9521 370.87 84.6649C368.644 84.4044 366.468 83.8667 364.263 83.4759C359.851 82.6711 355.51 81.6357 351.182 80.6372C346.867 79.6519 342.576 78.6734 338.336 77.7049C336.237 77.2841 334.125 76.9935 332.043 77.1037C329.971 77.2039 327.933 77.775 326.259 78.974C324.575 80.1562 323.33 81.8929 322.423 83.7398C321.513 85.5933 320.88 87.5504 320.338 89.5008L320.341 89.4941Z" fill="white"/>
<path d="M322.46 92.1938C322.46 92.1938 322.531 91.8565 322.665 91.2052C322.782 90.5507 323.019 89.5955 323.374 88.3598C323.779 87.1441 324.265 85.6179 325.265 84.0081C326.233 82.4151 327.752 80.6517 330.038 79.6331C332.308 78.6178 335.066 78.344 337.911 78.5544C340.786 78.7714 343.711 79.4694 346.844 80.0372C349.974 80.6484 353.288 81.2996 356.762 81.9776C358.493 82.3283 360.263 82.6823 362.074 83.0496C363.885 83.3669 365.736 83.6909 367.614 84.0182C371.366 84.7729 375.285 85.1804 379.308 85.6513C380.313 85.7682 381.327 85.8851 382.344 86.002C383.362 86.0521 384.386 86.1055 385.417 86.1556C387.476 86.3226 389.564 86.189 391.666 86.1923C400.078 85.8483 408.743 83.9881 417.165 80.9957C418.212 80.6183 419.274 80.2843 420.321 79.8769L423.457 78.5777C425.533 77.7027 427.598 76.8444 429.409 75.6622C430.373 75.1378 431.132 74.3997 431.969 73.7451C432.645 72.9536 433.442 72.2423 433.897 71.2905C435.039 69.5404 435.752 67.3963 435.574 65.4392C435.444 63.4554 434.118 61.819 432.183 61.1243C430.256 60.4263 428.01 60.2927 426.072 61.0408C424.114 61.7488 422.376 63.0981 421.091 64.808C419.856 66.5547 419.022 68.5619 418.638 70.6726C418.638 70.6726 418.698 70.3219 418.808 69.6473C418.879 69.3133 418.909 68.8825 419.049 68.3982C419.213 67.9173 419.401 67.3663 419.612 66.7384C419.859 66.1272 420.248 65.496 420.616 64.768C421.098 64.1234 421.583 63.3586 422.266 62.6906C423.568 61.2846 425.566 60.079 428.026 59.6949C429.268 59.4945 430.587 59.5413 431.936 59.8686C433.271 60.1892 434.66 60.8839 435.661 62.0962C436.695 63.2885 437.114 64.9717 437.074 66.6081C437.027 68.2613 436.531 69.9078 435.755 71.4341C434.296 74.6369 431.243 77.0481 427.966 78.7581C426.319 79.6498 424.585 80.3845 422.848 81.1493C421.138 81.9676 419.29 82.6288 417.423 83.3168C409.995 86.0788 401.681 88.1561 392.908 88.6771C388.537 88.8641 384.048 88.814 379.633 88.2162C377.424 87.9323 375.208 87.6484 372.986 87.3612C370.756 87.1007 368.584 86.563 366.378 86.1723C361.964 85.3674 357.629 84.3321 353.298 83.3335C348.987 82.3483 344.692 81.3698 340.455 80.4012C338.356 79.9804 336.244 79.6932 334.165 79.8001C332.093 79.9003 330.052 80.4714 328.382 81.6703C326.698 82.8526 325.453 84.5926 324.546 86.4361C323.632 88.2897 323.003 90.2467 322.457 92.1971L322.46 92.1938Z" fill="white"/>
<path d="M128.678 30.0249C128.678 30.0249 130.237 27.1527 129.056 26.5583C129.056 26.5583 130.565 27.0058 130.181 28.3851C129.796 29.7644 128.678 30.0249 128.678 30.0249ZM122.479 24.5311C122.479 24.5311 123.413 23.2352 125.956 23.97C128.504 24.7047 127.985 27.7472 127.985 27.7472C127.985 27.7472 126.766 22.7777 122.479 24.5344V24.5311ZM120.628 23.3622C117.886 24.5711 115.42 20.5735 115.42 20.5735C115.42 20.5735 116.484 21.9227 119.168 22.7443C121.856 23.5625 122.753 20.4299 122.753 20.4299C122.753 20.4299 123.372 22.1532 120.628 23.3622ZM120.822 19.4881C120.822 19.4881 120.832 20.4766 119.419 21.522C118.01 22.564 116.648 20.1761 116.648 20.1761C119.373 22.731 120.822 19.4914 120.822 19.4914V19.4881ZM102.048 14.7657C102.543 16.2753 103.306 17.1436 103.306 17.1436C103.306 17.1436 100.876 16.1417 101.1 14.6054C101.331 13.0691 103.095 12.3845 103.095 12.3845C103.095 12.3845 101.549 13.2561 102.044 14.7657H102.048ZM98.6034 11.6097C97.7934 13.206 95.3333 14.4017 95.3333 14.4017C95.3333 14.4017 99.4837 11.426 98.4562 9.41211L97.9876 8.78424C97.9876 8.78424 99.149 8.01611 98.9917 6.74701C98.8377 5.47791 96.7391 2.28513 96.7391 2.28513C98.0043 2.92302 99.5038 4.31903 99.5875 6.32954C99.6712 8.34006 98.8377 8.66401 98.8377 8.66401C98.8377 8.66401 99.4135 10.0166 98.6034 11.613V11.6097ZM83.8592 6.72029C83.8592 6.72029 83.5379 4.15872 85.3554 2.67922C87.1729 1.19638 90.3962 1.91776 90.3962 1.91776C90.3962 1.91776 84.9705 1.18636 83.8592 6.72029ZM90.6272 24.7715C88.7829 25.376 87.7352 24.7248 87.7352 24.7248C90.7276 24.7849 94.6538 19.9757 94.6538 19.9757C94.6538 19.9757 92.4715 24.167 90.6272 24.7715ZM85.3119 25.1589C84.6224 25.1289 84.7128 24.2906 84.7128 24.2906C84.7128 24.2906 82.7346 27.3531 81.6535 27.2463C80.5723 27.1427 80.415 26.074 80.415 26.074C80.7698 31.1805 73.1918 33.191 73.1918 33.191C80.097 29.8346 79.9899 24.7715 79.9899 24.7715C79.9899 24.7715 80.02 25.0153 81.3857 25.7033C82.748 26.3946 84.6625 22.6976 84.6625 22.6976C84.6625 22.6976 84.7864 23.4657 85.7437 23.9499C86.6876 24.4275 89.7837 19.6918 89.9778 19.4447C89.8975 19.5515 86.0014 25.1823 85.3119 25.1556V25.1589ZM70.4773 15.8511C70.4773 15.8511 71.6856 15.3869 72.1141 16.6927C72.5425 17.9952 71.5885 20.1894 71.5885 20.1894C71.5885 20.1894 71.3743 15.5572 70.4773 15.8511ZM69.4932 27.1928C69.4932 27.1928 73.5667 23.98 73.299 20.4633C73.0312 16.9465 72.1944 14.4017 70.0555 14.7356C67.9167 15.0696 69.0548 16.4723 69.0548 16.4723C69.0548 16.4723 67.0967 14.6555 65.9051 14.0543C64.7135 13.4532 60.9178 13.7003 56.1515 21.0077C56.1515 21.0077 57.4937 16.3387 60.1915 14.6722C62.8893 13.0057 67.0163 11.7098 67.8531 14.2547C67.8531 14.2547 68.3284 13.3163 71.0195 13.687C73.704 14.061 74.9692 19.4981 73.9784 22.6942C72.9843 25.8903 69.4899 27.1928 69.4899 27.1928H69.4932ZM68.7468 30.4123C67.0498 31.6981 66.1226 30.0182 66.1226 30.0182C66.8992 30.9667 70.735 27.7973 70.735 27.7973C70.735 27.7973 70.4405 29.1265 68.7435 30.4123H68.7468ZM68.4556 40.4449C65.9051 41.2798 63.9503 40.7555 63.9503 40.7555C63.9503 40.7555 59.3513 48.1096 55.308 48.861C51.2613 49.6124 50.6387 48.35 50.6387 48.35C56.1013 51.1086 63.8432 39.7836 63.8432 39.7836C68.4389 41.3433 71.2471 36.5107 71.2471 36.5107C71.2471 36.5107 71.0095 39.6133 68.459 40.4482L68.4556 40.4449ZM80.7631 9.24513C83.0358 7.5619 85.0642 7.8391 85.0642 7.8391C85.0642 7.8391 79.5046 9.86632 78.9155 17.1636C78.872 17.708 78.4904 10.9317 80.7631 9.24847V9.24513ZM39.6333 53.413C35.7338 53.0189 35.215 50.1601 35.215 50.1601C40.1588 55.6473 47.874 48.6339 47.874 48.6339C47.874 48.6339 43.5327 53.8105 39.6333 53.413ZM26.4388 50.8548C21.0934 51.4727 18.5729 46.9907 18.5729 46.9907C18.5729 46.9907 12.7958 47.5685 10.4561 43.6343C8.61851 40.5417 9.38835 40.2745 9.80005 40.3013C9.24777 40.1576 7.56081 39.4396 4.863 35.8561C1.51919 31.4142 3.73836 27.657 3.73836 27.657C3.04215 36.9482 12.8359 39.4096 12.8359 39.4096C10.8042 43.4172 15.6576 44.8066 16.7923 44.4358C17.9269 44.0651 17.1337 42.2851 17.1337 42.2851L20.1963 43.3204C21.7193 47.9526 27.299 45.4211 27.8613 45.3042C27.8613 45.3042 26.827 48.0461 28.6445 48.9645C30.4654 49.8829 37.2467 46.1491 37.2467 46.1491C37.2467 46.1491 31.7842 50.2336 26.4388 50.8515V50.8548ZM135.332 40.0708C134.378 41.9477 132.497 40.9993 131.878 39.1123C131.258 37.2254 135.606 35.9095 134.769 33.3613C133.933 30.8164 132.738 30.8932 132.738 30.8932C132.738 30.8932 130.693 24.825 127.74 23.3354C124.792 21.8459 123.372 22.1532 123.372 22.1532C123.372 22.1532 123.623 15.594 119.754 15.6073C119.754 15.6073 115.015 10.4975 107.795 17.1169C107.795 17.1169 109.77 12.2943 106.754 10.7714C103.741 9.25181 102.881 11.7265 102.881 11.7265C102.881 11.7265 103.715 8.53042 100.782 9.48893C100.782 9.48893 101.003 2.99316 97.4286 1.18636C93.8505 -0.620431 88.2507 -0.303157 84.7462 1.78417C81.2451 3.86816 75.8863 18.7834 75.8863 18.7834C75.8863 18.7834 76.0737 12.822 72.4956 11.0118C68.9175 9.20505 53.2763 10.5109 52.4261 23.5325C52.4261 23.5325 54.1733 26.6184 53.6411 29.2969C53.1089 31.9787 50.2538 33.4882 50.2538 33.4882C50.2538 33.4882 51.3818 34.5302 50.6186 36.0331C49.8555 37.536 48.5635 38.3776 46.6589 38.4778C44.7544 38.578 43.7067 37.4592 43.7067 37.4592C43.7067 37.4592 46.5184 38.2106 48.1752 37.0417C49.832 35.8728 48.8681 33.889 48.8681 33.889C48.8681 33.889 50.9968 32.9572 51.7433 31.4844C52.4027 30.1852 54.3105 26.3546 51.519 22.7911C49.8889 21.5921 46.4146 19.6384 43.9511 22.4838C45.9326 26.4915 43.4524 28.9762 43.3386 29.6375C43.3386 29.6375 44.008 30.8799 43.0607 31.9753C42.1101 33.0674 38.2375 33.8656 38.2375 33.8656C38.2375 33.8656 42.793 32.1156 42.7963 31.0168C42.7997 29.918 41.8591 29.6008 41.8591 29.6008C41.8692 29.5574 43.921 26.8956 42.9637 23.7095C42.0499 20.9676 40.1721 20.2596 37.8024 22.9881C37.8024 22.9881 39.6768 13.0791 31.8712 13.8573C31.8712 13.8573 33.4377 15.4336 31.6637 17.6846C29.8897 19.9356 25.9902 19.8554 25.9902 19.8554C25.9902 19.8554 29.2035 19.2743 30.3884 17.6345C31.262 16.4289 30.9842 13.9742 30.0202 11.4493C28.1458 9.69599 24.8723 8.24655 20.3336 12.2008C20.3336 12.2008 20.7854 9.75611 11.9724 10.9684C3.1593 12.1807 3.72831 24.1103 3.72831 24.1103C3.72831 24.1103 0.428018 29.9949 0.0330541 33.2578C-0.36191 36.5207 4.39775 41.4401 4.39775 41.4401C4.39775 41.4401 5.509 45.9354 7.4537 46.9173C9.40174 47.8991 10.8176 47.278 11.0352 47.9392C11.2527 48.6005 16.2366 58.3558 28.6747 55.7475L31.7005 54.7589C31.7005 54.7589 33.7322 57.7513 37.4743 57.6745C41.2198 57.5977 41.7553 57.3205 41.7553 57.3205C41.7553 57.3205 44.5201 58.0887 47.7334 57.0366C50.9466 55.9846 53.611 51.3524 53.611 51.3524C53.611 51.3524 54.1097 52.548 58.7388 51.0318C63.3713 49.5156 66.3536 44.5728 66.3536 44.5728C66.3536 44.5728 72.0203 43.9716 75.9332 41.5436C79.846 39.1157 80.7397 29.4204 80.7397 29.4204C80.7397 29.4204 83.3839 29.3403 84.686 26.772C84.686 26.772 91.5744 27.1828 92.8129 24.7381C94.0513 22.2968 97.8035 20.8073 98.5532 21.188C98.5532 21.188 97.2311 21.3082 97.7901 23.0048C98.3491 24.7014 105.12 23.0081 105.12 23.0081C105.12 23.0081 104.612 24.481 105.803 25.0821C106.998 25.6833 111.945 24.0134 111.945 24.0134C111.945 24.0134 113.287 26.4982 115.205 26.6017C117.123 26.7052 119.202 26.0239 119.202 26.0239C119.202 26.0239 121.92 29.8346 123.717 29.2468C125.515 28.659 127.436 28.1346 129.588 32.1323C131.74 36.1299 129.916 35.6824 129.173 39.4763C128.43 43.2703 133.996 44.2722 136.082 42.3352C138.167 40.3981 136.289 38.1939 135.338 40.0708H135.332Z" fill="white"/>
<path fill-rule="evenodd" clip-rule="evenodd" d="M128.422 64.7978C135.642 58.7062 127.683 56.0277 131.76 53.947C138.035 50.7476 134.471 43.33 131.067 41.6301C141.727 36.0828 136.231 42.278 138.434 45.2003C139.227 46.2523 137.423 52.1269 138.086 55.5802C139.123 61.0072 136.154 57.2634 135.378 62.3364C134.769 66.3074 136.496 62.5569 133.38 65.5225C129.259 69.4467 126.96 65.2387 128.422 64.7945V64.7978Z" fill="white" stroke="#2B2A29" stroke-width="0.200042" stroke-miterlimit="22.9256"/>
</g>
<defs>
<clipPath id="clip0">
<rect width="448" height="141" fill="white"/>
</clipPath>
</defs>
</svg>
