<svg width="55" height="55" viewBox="0 0 55 55" fill="none" xmlns="http://www.w3.org/2000/svg">
<path d="M39.8938 6.17578H28.775C28.0751 6.17578 27.5078 6.7432 27.5078 7.44298V8.32292C27.5078 10.2379 28.7741 11.8627 30.5133 12.404V14.2986C30.5133 15.9616 31.5814 17.3789 33.0672 17.9029V19.0948C33.4809 19.0332 33.9039 19.0008 34.3344 19.0008C34.7649 19.0008 35.188 19.0331 35.6016 19.0948V17.9029C37.0874 17.379 38.1554 15.9615 38.1554 14.2986V12.404C39.8946 11.8628 41.161 10.2379 41.161 8.32292V7.44298C41.161 6.7432 40.5936 6.17578 39.8938 6.17578Z" fill="#F78012"/>
<path d="M22.3383 21.0622L22.3236 21.0769C21.2819 22.1186 20.7488 23.5601 20.8613 25.0317C20.9958 26.7901 21.1814 30.2386 20.9149 33.5786C20.5401 38.2726 19.4923 40.3041 18.6792 41.1818C18.1518 41.7511 17.5701 42.0161 16.8485 42.0161C16.0945 42.0161 13.8001 42.0161 13.5528 36.0403C13.4748 34.1546 13.6487 32.2159 14.0694 30.2784L15.4737 23.8114L15.9139 23.9071C16.0045 23.9267 16.0949 23.9362 16.184 23.9362C16.7672 23.9362 17.2923 23.531 17.4211 22.9377C17.5696 22.2537 17.1356 21.5789 16.4516 21.4304L16.0114 21.3349L18.262 10.9706C18.4105 10.2867 17.9764 9.61183 17.2925 9.46331C16.6089 9.31446 15.9337 9.74877 15.7852 10.4328L13.5346 20.7971L13.0647 20.6951C12.3814 20.5465 11.7059 20.9806 11.5574 21.6646C11.4089 22.3485 11.843 23.0233 12.5269 23.1718L12.9968 23.2739L11.5925 29.7407C11.1259 31.8892 10.9333 34.0438 11.0203 36.1451C11.1226 38.6171 11.5556 40.4941 12.3441 41.8832C13.3347 43.6284 14.8922 44.5508 16.8483 44.5508C18.2846 44.5508 19.526 43.9969 20.5381 42.9045C23.939 39.2337 23.7836 30.0102 23.3881 24.8387C23.3322 24.1054 23.5972 23.3876 24.1154 22.8693L24.1301 22.8545C25.0109 21.9737 26.3895 21.8862 27.3695 22.5918C27.866 21.8974 28.4638 21.2804 29.1409 20.7617C27.1617 19.1029 24.1981 19.2023 22.3383 21.0622Z" fill="#F78012"/>
<path d="M41.4226 36.7243C41.8448 35.8762 42.0642 34.9584 42.0642 34.0189C42.0642 32.3129 41.3405 30.6956 40.0489 29.4572C40.2514 28.8468 40.3563 28.2038 40.3563 27.5568C40.3563 24.2366 37.6552 21.5356 34.3351 21.5356C31.0151 21.5356 28.3139 24.2368 28.3139 27.5568C28.3139 28.2038 28.4188 28.8469 28.6213 29.4572C27.3298 30.6956 26.6059 32.3129 26.6059 34.0189C26.6059 34.9583 26.8254 35.8764 27.2476 36.7243C25.5967 38.2715 24.6699 40.3055 24.6699 42.4499C24.6699 44.769 25.7278 46.9284 27.6488 48.5302C27.8765 48.7201 28.1638 48.8241 28.4603 48.8241H40.2102C40.5068 48.8241 40.7939 48.7202 41.0218 48.5302C42.9426 46.9284 44.0005 44.769 44.0005 42.4499C44.0002 40.3053 43.0735 38.2715 41.4226 36.7243Z" fill="#F78012"/>
</svg>
