<svg width="55" height="55" viewBox="0 0 55 55" fill="none" xmlns="http://www.w3.org/2000/svg">
<path d="M33.2441 27.2295C32.1554 27.2295 31.2695 28.1154 31.2695 29.2041C31.2695 30.293 32.1554 31.1789 33.2441 31.1789C34.333 31.1789 35.2189 30.293 35.2189 29.2041C35.2189 28.1154 34.333 27.2295 33.2441 27.2295Z" fill="#F78012"/>
<path d="M21.7539 19.4189C20.6652 19.4189 19.7793 20.3048 19.7793 21.3937C19.7793 22.4824 20.6652 23.3683 21.7539 23.3683C22.8428 23.3683 23.7287 22.4824 23.7287 21.3937C23.7287 20.3048 22.843 19.4189 21.7539 19.4189Z" fill="#F78012"/>
<path d="M46.8805 32.2209C46.6112 31.5127 45.9323 31.0446 45.1746 31.0446H41.6796V8.69481C41.6796 6.74459 40.0985 5.16357 38.1483 5.16357H16.8496C14.8994 5.16357 13.3183 6.74459 13.3183 8.69481V31.0446H9.8231C9.06543 31.0446 8.38655 31.5127 8.11735 32.2209C7.84799 32.9292 8.04421 33.7301 8.6103 34.2335L25.1522 48.9441C26.4904 50.1342 28.5075 50.1342 29.8457 48.9441L46.3878 34.2335C46.9537 33.7301 47.1499 32.929 46.8805 32.2209ZM17.2923 21.3938C17.2923 18.9331 19.2941 16.9311 21.7548 16.9311C24.2156 16.9311 26.2176 18.9331 26.2176 21.3938C26.2176 23.8546 24.2156 25.8564 21.7548 25.8564C19.2941 25.8564 17.2923 23.8544 17.2923 21.3938ZM24.2955 34.2931C24.0761 34.7248 23.6389 34.9736 23.1857 34.9736C22.996 34.9736 22.8036 34.93 22.6228 34.8383C22.0104 34.5269 21.7664 33.7779 22.0778 33.1655L30.6501 16.3053C30.9616 15.6931 31.7105 15.4491 32.3228 15.7603C32.9352 16.0716 33.1792 16.8206 32.8679 17.433L24.2955 34.2931ZM33.2429 33.6673C30.7821 33.6673 28.7803 31.6653 28.7803 29.2045C28.7803 26.7438 30.7821 24.742 33.2429 24.742C35.7036 24.742 37.7056 26.7438 37.7056 29.2045C37.7056 31.6651 35.7036 33.6673 33.2429 33.6673Z" fill="#F78012"/>
</svg>
