<svg width="55" height="55" viewBox="0 0 55 55" fill="none" xmlns="http://www.w3.org/2000/svg">
<path d="M45.5176 33.5859C45.5176 32.2646 44.4365 31.1836 43.1152 31.1836C44.4365 31.1836 45.5176 30.1025 45.5176 28.7812C45.5176 27.46 44.4365 26.3789 43.1152 26.3789H33.2657C34.7311 21.9825 34.707 20.5812 34.707 17.8906C34.707 15.8918 33.0682 14.2871 31.1035 14.2871H30.3828C29.9264 14.2871 29.3498 14.6475 29.2296 15.2C28.0412 19.827 26.1831 25.1364 21.4941 26.2119V43.5938L25.6501 44.973C26.8753 45.3813 28.1486 45.5976 29.4459 45.5976H40.7129C42.0397 45.5977 43.1152 44.522 43.1152 43.1953C43.1152 41.8685 42.0397 40.793 40.7129 40.793H43.1152C44.4365 40.793 45.5176 39.7119 45.5176 38.3906C45.5176 37.0693 44.4365 35.9883 43.1152 35.9883C44.4365 35.9883 45.5176 34.9072 45.5176 33.5859Z" fill="#F78012"/>
<path d="M15.4883 23.9766H10.6836C10.0197 23.9766 9.48242 24.5138 9.48242 25.1777V46.7988C9.48242 47.4628 10.0197 48 10.6836 48H15.4883C17.4753 48 19.0918 46.3835 19.0918 44.3965V27.5801C19.0918 25.593 17.4753 23.9766 15.4883 23.9766ZM15.4883 43.1953C14.8249 43.1953 14.2871 42.6575 14.2871 41.9941C14.2871 41.3306 14.8249 40.793 15.4883 40.793C16.1516 40.793 16.6895 41.3306 16.6895 41.9941C16.6895 42.6575 16.1516 43.1953 15.4883 43.1953Z" fill="#F78012"/>
<path d="M26.0068 12.2965L24.3082 10.598C23.8391 10.1288 23.0789 10.1288 22.6097 10.598C22.1405 11.0672 22.1405 11.8273 22.6097 12.2965L24.3082 13.9951C24.7774 14.4642 25.5375 14.4642 26.0068 13.9951C26.4759 13.5259 26.4759 12.7657 26.0068 12.2965Z" fill="#F78012"/>
<path d="M39.5966 10.598C39.1274 10.1288 38.3672 10.1288 37.8981 10.598L36.1995 12.2965C35.7304 12.7657 35.7304 13.5259 36.1995 13.9951C36.6687 14.4642 37.4289 14.4642 37.8981 13.9951L39.5966 12.2965C40.0658 11.8273 40.0658 11.0672 39.5966 10.598Z" fill="#F78012"/>
<path d="M31.1035 7C30.4308 7 29.9023 7.52844 29.9023 8.20117V10.6836C29.9023 11.3563 30.4308 11.8848 31.1035 11.8848C31.7763 11.8848 32.3047 11.3563 32.3047 10.6836V8.20117C32.3047 7.52844 31.7763 7 31.1035 7Z" fill="#F78012"/>
</svg>
