<svg width="37" height="39" viewBox="0 0 37 39" fill="none" xmlns="http://www.w3.org/2000/svg">
<path fill-rule="evenodd" clip-rule="evenodd" d="M18.5 39C23.0993 39 25.9771 38.9869 27.1333 38.9607C30.3965 38.8822 32.8568 38.6596 34.5141 38.293C36.1714 37.9265 37 37.3112 37 36.4471C37 35.9235 36.7431 34.8696 36.2292 33.2855C35.7153 31.7014 35.15 30.0388 34.5333 28.2976C33.9167 26.5564 33.3514 24.5534 32.8375 22.2885C32.3236 20.0237 32.0667 18.0403 32.0667 16.3384C32.0667 11.3112 27.5444 8.79758 18.5 8.79758C9.45555 8.79758 4.93333 11.3112 4.93333 16.3384C4.93333 18.0403 4.67639 20.0237 4.1625 22.2885C3.64861 24.5534 3.08333 26.5564 2.46667 28.2976C1.85 30.0388 1.28472 31.7014 0.770833 33.2855C0.256944 34.8696 0 35.9235 0 36.4471C0 37.3112 0.828646 37.9265 2.48594 38.293C4.14323 38.6596 6.60347 38.8822 9.86667 38.9607C11.0229 38.9869 13.9007 39 18.5 39ZM14.2604 6.51964C15.5451 6.36254 16.9583 6.28399 18.5 6.28399C20.0417 6.28399 21.4549 6.36254 22.7396 6.51964C23.2792 5.41994 23.7352 4.35297 24.1078 3.31873C24.4804 2.28449 24.6667 1.59718 24.6667 1.2568C24.6667 0.837865 24.3326 0.418932 23.6646 0C23.0479 0.366566 22.2642 0.667674 21.3135 0.903323C20.3628 1.13897 19.425 1.2568 18.5 1.2568C17.575 1.2568 16.6372 1.13897 15.6865 0.903323C14.7358 0.667674 13.9521 0.366566 13.3354 0C12.6674 0.418932 12.3333 0.837865 12.3333 1.2568C12.3333 1.59718 12.5196 2.28449 12.8922 3.31873C13.2648 4.35297 13.7208 5.41994 14.2604 6.51964ZM23.6595 17.365C22.7185 16.6611 21.3877 16.3091 19.6671 16.3091H16.0175V25.5273H14.6247V27.6545H16.0175V29.7818H17.9331V27.6545H20.196V25.5273H17.9331V24.8346H19.6873C21.3138 24.8346 22.6177 24.4762 23.599 23.7592C24.5803 23.0422 25.0709 21.9472 25.0709 20.4741C25.0709 19.0923 24.6005 18.0559 23.6595 17.365ZM22.1472 22.7424C21.5692 23.1595 20.7223 23.3681 19.6066 23.3681H17.9331V17.7561H19.647C20.7358 17.7561 21.5692 17.9712 22.1472 18.4014C22.7387 18.8316 23.0344 19.529 23.0344 20.4937C23.0344 21.5756 22.7387 22.3252 22.1472 22.7424Z" fill="#F78012"/>
</svg>
