<svg width="55" height="55" viewBox="0 0 55 55" fill="none" xmlns="http://www.w3.org/2000/svg">
<path d="M36.6829 46.0552C36.3837 45.3315 35.5542 44.988 34.8311 45.2873C34.1076 45.5868 33.7636 46.416 34.0634 47.1397L34.9684 49.3264C35.2679 50.0502 36.0976 50.3934 36.8205 50.0938C37.5439 49.7946 37.8877 48.9651 37.5885 48.242L36.6829 46.0552Z" fill="#F78012"/>
<path d="M18.2633 8.99789C18.4893 9.54386 19.0175 9.87385 19.5735 9.87385C20.5796 9.87385 21.27 8.84826 20.8831 7.91343L19.9779 5.72671C19.6783 5.00326 18.8492 4.65977 18.1258 4.95932C17.4023 5.25858 17.0585 6.088 17.3584 6.81117L18.2633 8.99789Z" fill="#F78012"/>
<path d="M34.8311 9.7657C35.5551 10.0652 36.384 9.72118 36.6829 8.99802L37.5885 6.81129C37.8877 6.08813 37.5439 5.2587 36.8205 4.95944C36.097 4.6596 35.2679 5.00338 34.9684 5.72683L34.0634 7.91356C33.7636 8.63701 34.1076 9.46615 34.8311 9.7657Z" fill="#F78012"/>
<path d="M20.1138 45.2873C19.3903 44.988 18.5609 45.3315 18.2616 46.0552L17.3561 48.242C17.0568 48.9651 17.4006 49.7946 18.124 50.0938C18.8475 50.3936 19.6766 50.0493 19.9762 49.3264L20.8811 47.1397C21.181 46.416 20.8375 45.5871 20.1138 45.2873Z" fill="#F78012"/>
<path d="M49.0389 34.925L47.088 34.1163C46.3645 33.8164 45.5351 34.1596 45.2355 34.8831C44.9354 35.6065 45.2789 36.4357 46.0018 36.7355L47.953 37.5443C48.6776 37.8444 49.5062 37.5 49.8057 36.7774C50.1056 36.0546 49.7624 35.2248 49.0389 34.925Z" fill="#F78012"/>
<path d="M5.90847 20.1286L7.85998 20.9373C8.58372 21.2372 9.41258 20.8931 9.71241 20.1705C10.012 19.447 9.66876 18.6179 8.94559 18.3181L6.99408 17.5093C6.27092 17.2095 5.4412 17.5527 5.14165 18.2761C4.84182 18.999 5.18502 19.8287 5.90847 20.1286Z" fill="#F78012"/>
<path d="M47.0863 20.9373L49.0373 20.1286C49.7604 19.8287 50.1039 18.999 49.8038 18.2761C49.504 17.5527 48.6748 17.2095 47.9514 17.5093L46.0001 18.3181C45.2769 18.6179 44.9337 19.4471 45.2333 20.1705C45.5334 20.894 46.3628 21.2372 47.0863 20.9373Z" fill="#F78012"/>
<path d="M7.85998 34.1162L5.90847 34.925C5.18502 35.2248 4.84182 36.054 5.14165 36.7774C5.44177 37.5009 6.27092 37.8441 6.99437 37.5442L8.94559 36.7355C9.66876 36.4356 10.012 35.6065 9.71241 34.883C9.41229 34.1599 8.58315 33.8164 7.85998 34.1162Z" fill="#F78012"/>
<path d="M17.9458 35.2198V32.4762C17.9458 31.9291 17.735 31.6841 17.2609 31.6841H16.5859V36.0107H17.2609C17.735 36.0107 17.9458 35.7669 17.9458 35.2198Z" fill="#F78012"/>
<path fill-rule="evenodd" clip-rule="evenodd" d="M43.6333 20.8324L50.4792 26.4296C51.1737 26.9943 51.1734 28.0595 50.4792 28.6241L43.6333 34.221L44.5167 43.0188C44.606 43.91 43.8559 44.6601 42.9647 44.5708L34.1669 43.6874L28.57 50.5333C28.0008 51.2306 26.9373 51.2246 26.3755 50.5333L20.7783 43.6874L11.9806 44.5708C11.0894 44.6601 10.3392 43.91 10.4286 43.0188L11.312 34.221L4.46604 28.6241C3.77159 28.0592 3.77188 26.994 4.46604 26.4296L11.312 20.8324L10.4286 12.0347C10.3392 11.1435 11.0894 10.3933 11.9806 10.4827L20.7783 11.3661L26.3755 4.52014C26.9364 3.83029 27.9999 3.82167 28.57 4.52014L34.1669 11.3661L42.9647 10.4827C43.8559 10.3933 44.606 11.1435 44.5167 12.0347L43.6333 20.8324ZM19.8954 18.9423C20.0556 19.1914 20.1392 19.4401 20.1461 19.6882C20.1562 19.9332 20.0438 20.1732 19.8089 20.4081C19.4438 20.7732 19.0637 20.9041 18.6685 20.801C18.2795 20.6977 17.8581 20.4191 17.4042 19.9652L16.3186 18.8796L19.6327 15.5655L20.5982 16.531C21.058 16.9908 21.3413 17.4074 21.4482 17.781C21.5613 18.1544 21.4639 18.495 21.156 18.803C20.9592 18.9998 20.7502 19.1019 20.5292 19.1094C20.3113 19.1138 20.1 19.0581 19.8954 18.9423ZM19.8779 17.1535L19.2684 17.7629L19.4241 17.9187C19.5635 18.0581 19.6852 18.1322 19.7892 18.1409C19.8963 18.1465 20.0086 18.0905 20.1261 17.9731C20.2245 17.8747 20.2648 17.7721 20.2469 17.6654C20.2352 17.5584 20.1567 17.4323 20.0114 17.2869L19.8779 17.1535ZM18.1036 19.2837C18.2578 19.4379 18.4004 19.5297 18.5312 19.559C18.6621 19.5883 18.7958 19.5347 18.9323 19.3982C19.0593 19.2712 19.1143 19.1421 19.0973 19.0108C19.0864 18.8793 19.0083 18.7409 18.8629 18.5955L18.6494 18.382L17.9256 19.1057L18.1036 19.2837ZM22.5209 20.6155C22.9272 21.0218 23.1482 21.4237 23.1838 21.8212C23.2194 22.2187 23.0578 22.5968 22.6991 22.9555C22.3245 23.3301 21.9261 23.5031 21.5039 23.4745C21.0846 23.4488 20.6911 23.2521 20.3233 22.8843L19.1309 21.6919L22.445 18.3778L23.3615 19.2943L22.2806 20.3752L22.5209 20.6155ZM25.0122 20.945L25.9287 21.8615L22.6146 25.1756L21.6981 24.2591L25.0122 20.945ZM20.8936 22.0737C21.027 22.2072 21.163 22.267 21.3015 22.2531C21.4461 22.239 21.5914 22.1589 21.7375 22.0129C22.0263 21.724 22.0343 21.4431 21.7614 21.1702L21.6235 21.0323L20.7378 21.918L20.8936 22.0737ZM27.6197 25.0571L28.461 24.3938L26.3565 22.2893L23.0424 25.6034L23.9589 26.5199L26.5207 23.9582L27.6197 25.0571ZM29.8473 25.5896C30.31 26.0523 30.512 26.5622 30.4532 27.1193C30.4006 27.6762 30.0981 28.2308 29.5458 28.7831C29.1871 29.1419 28.8196 29.3966 28.4434 29.5474C28.0672 29.6981 27.6994 29.7367 27.34 29.663C26.9807 29.5893 26.6482 29.3997 26.3427 29.0942C25.88 28.6315 25.6765 28.1201 25.7323 27.56C25.7942 26.9998 26.1014 26.4435 26.6537 25.8911C27.0125 25.5324 27.3783 25.2793 27.7513 25.1317C28.1275 24.9809 28.4937 24.944 28.8499 25.0208C29.2093 25.0945 29.5418 25.2841 29.8473 25.5896ZM29.1521 26.2848C28.9771 26.1098 28.7701 26.0647 28.531 26.1495C28.2952 26.2311 27.9868 26.4623 27.6059 26.8433C27.225 27.2242 26.9905 27.5358 26.9026 27.778C26.8178 28.017 26.8629 28.224 27.0379 28.399C27.2159 28.577 27.4229 28.6221 27.6589 28.5343C27.898 28.4496 28.2095 28.2151 28.5936 27.831C28.9746 27.4501 29.2058 27.1417 29.2874 26.9058C29.3722 26.6668 29.3271 26.4598 29.1521 26.2848ZM30.0213 34.2489L31.5879 32.6823L31.3031 32.3975L33.8839 29.8167L31.9396 27.8724L30.7246 28.8382C30.2204 29.2356 29.8321 29.5171 29.5597 29.6828C29.2905 29.8452 29.0633 29.9419 28.8783 29.9727L28.6424 29.7369L27.0759 31.3035L27.6854 31.913L28.6077 31.1687L30.156 32.717L29.4117 33.6393L30.0213 34.2489ZM32.0049 29.3376L32.303 29.6357L30.4221 31.5166L29.5901 30.6846C29.8533 30.7002 30.1472 30.6258 30.4717 30.4615C30.7963 30.2971 31.2094 30.0056 31.7112 29.5868L32.0049 29.3376ZM32.6903 35.2513L34.0284 33.9133L33.3209 33.2059L31.9829 34.5439L31.0663 33.6274L34.3805 30.3133L35.297 31.2298L34.0733 32.4535L34.7807 33.161L36.0044 31.9372L36.921 32.8538L33.6069 36.1679L32.6903 35.2513ZM39.394 36.0601C39.4527 35.503 39.2508 34.9931 38.788 34.5304C38.4825 34.2248 38.1501 34.0352 37.7907 33.9616C37.4345 33.8847 37.0683 33.9217 36.6921 34.0724C36.3191 34.22 35.9532 34.4732 35.5945 34.8319C35.0421 35.3842 34.735 35.9405 34.6731 36.5008C34.6173 37.0608 34.8207 37.5722 35.2835 38.0349C35.589 38.3405 35.9214 38.5301 36.2808 38.6037C36.6402 38.6774 37.008 38.6389 37.3842 38.4881C37.7604 38.3373 38.1278 38.0826 38.4865 37.7239C39.0389 37.1716 39.3414 36.6169 39.394 36.0601ZM37.4718 35.0902C37.7108 35.0054 37.9178 35.0506 38.0928 35.2256C38.2678 35.4006 38.313 35.6076 38.2282 35.8466C38.1466 36.0824 37.9153 36.3908 37.5344 36.7718C37.1503 37.1559 36.8387 37.3903 36.5997 37.4751C36.3636 37.5628 36.1566 37.5177 35.9787 37.3397C35.8037 37.1647 35.7585 36.9577 35.8433 36.7187C35.9313 36.4765 36.1657 36.165 36.5466 35.784C36.9276 35.4031 37.236 35.1718 37.4718 35.0902Z" fill="#F78012"/>
</svg>
