<svg width="55" height="55" viewBox="0 0 55 55" fill="none" xmlns="http://www.w3.org/2000/svg">
<path d="M6.87435 9.1665C5.65877 9.1665 4.49298 9.64939 3.63344 10.5089C2.7739 11.3685 2.29102 12.5343 2.29102 13.7498V38.9582H6.87435C6.87435 40.7815 7.59868 42.5302 8.88799 43.8195C10.1773 45.1088 11.926 45.8332 13.7493 45.8332C15.5727 45.8332 17.3214 45.1088 18.6107 43.8195C19.9 42.5302 20.6243 40.7815 20.6243 38.9582H34.3743C34.3743 40.7815 35.0987 42.5302 36.388 43.8195C37.6773 45.1088 39.426 45.8332 41.2493 45.8332C43.0727 45.8332 44.8214 45.1088 46.1107 43.8195C47.4 42.5302 48.1243 40.7815 48.1243 38.9582H52.7077V27.4998L45.8327 18.3332H38.9577V9.1665H6.87435ZM22.916 13.7498L32.0827 22.9165L22.916 32.0832V25.2082H9.16602V20.6248H22.916V13.7498ZM38.9577 21.7707H44.6868L49.2014 27.4998H38.9577V21.7707ZM13.7493 35.5207C14.661 35.5207 15.5354 35.8828 16.18 36.5275C16.8247 37.1721 17.1868 38.0465 17.1868 38.9582C17.1868 39.8699 16.8247 40.7442 16.18 41.3888C15.5354 42.0335 14.661 42.3957 13.7493 42.3957C12.8377 42.3957 11.9633 42.0335 11.3187 41.3888C10.674 40.7442 10.3118 39.8699 10.3118 38.9582C10.3118 38.0465 10.674 37.1721 11.3187 36.5275C11.9633 35.8828 12.8377 35.5207 13.7493 35.5207ZM41.2493 35.5207C42.161 35.5207 43.0354 35.8828 43.68 36.5275C44.3247 37.1721 44.6868 38.0465 44.6868 38.9582C44.6868 39.8699 44.3247 40.7442 43.68 41.3888C43.0354 42.0335 42.161 42.3957 41.2493 42.3957C40.3377 42.3957 39.4633 42.0335 38.8187 41.3888C38.174 40.7442 37.8118 39.8699 37.8118 38.9582C37.8118 38.0465 38.174 37.1721 38.8187 36.5275C39.4633 35.8828 40.3377 35.5207 41.2493 35.5207Z" fill="#F78012"/>
</svg>
