<svg width="40" height="54" viewBox="0 0 40 54" fill="none" xmlns="http://www.w3.org/2000/svg">
<path d="M29.5891 25.7874C29.05 25.5925 28.7396 25.0214 28.8653 24.4564L33.2524 2.33434C33.3679 1.81636 33.267 1.27324 32.9729 0.833547C32.6787 0.393859 32.2181 0.097162 31.7002 0.0139219C30.651 -0.110526 29.6875 0.612261 29.4996 1.66512L27.7444 9.47773L24.5685 24.4004C24.4432 25.0016 23.8903 25.4104 23.2865 25.3481C22.6832 25.2859 22.2226 24.7729 22.2194 24.1581L21.9024 2.84738C21.8845 1.78215 21.0175 0.932858 19.9658 0.95099C18.9141 0.968709 18.0756 1.84685 18.0931 2.91207V23.242C18.0939 23.7839 17.7233 24.2537 17.2013 24.3723C16.6793 24.4914 16.1459 24.2277 15.9173 23.7377L13.0461 17.5879C12.6458 16.725 11.6832 16.2878 10.7808 16.5589L5.67193 18.0807C5.46647 18.145 5.28787 18.2756 5.16337 18.4532L2.66856 22.0507C2.35935 22.4838 2.26578 23.0372 2.41509 23.5494C2.58434 24.1321 3.04408 24.5808 3.62507 24.73C4.20605 24.8792 4.82161 24.7069 5.24433 24.2767L7.42302 21.993C7.897 21.4861 8.55732 21.2014 9.24653 21.2067C10.4105 21.2051 11.4232 22.0124 11.6958 23.1579L13.1128 28.8813C13.2748 29.8649 13.0697 30.8745 12.5367 31.7131C12.2568 32.2566 11.957 32.789 11.638 33.3103C11.3756 33.8258 11.044 34.3018 10.6522 34.7242C10.0313 35.3617 9.31894 35.1614 8.57237 34.896C8.10368 34.7316 7.66184 34.4967 7.26231 34.1988L5.90424 33.1665C5.18656 32.6189 4.76343 31.7621 4.7614 30.8519V29.8872C4.7614 28.8595 4.35658 27.8738 3.63605 27.1493C2.91592 26.4249 1.93989 26.0219 0.924796 26.0293C0.408096 26.0408 -0.0036374 26.4702 2.42341e-05 26.994V34.4637C-0.000382591 34.7196 0.10011 34.9652 0.279124 35.1457L9.51627 43.9865C10.0228 44.4822 10.4162 45.0843 10.6685 45.7506C11.1778 47.3107 12.6653 48.3236 14.2842 48.2128C14.8102 48.2128 15.2366 48.6446 15.2366 49.1774C15.2366 49.7098 14.8102 50.1417 14.2842 50.1417C13.2906 50.1582 12.3089 49.9237 11.4272 49.4589V53.0353C11.4272 53.5681 11.8536 54 12.3797 54H27.6158C28.1419 54 28.5683 53.5681 28.5683 53.0353V49.4C27.694 49.8907 26.7106 50.1462 25.7114 50.1417C25.1853 50.1417 24.7589 49.7098 24.7589 49.1774C24.7589 48.6446 25.1853 48.2128 25.7114 48.2128C28.5406 48.2128 29.8336 45.6348 30.4211 43.4722C30.9345 41.3673 31.2926 39.2261 31.4915 37.0673C31.6229 35.9522 31.7572 34.8206 31.9313 33.6758C32.2723 31.5479 32.9509 29.4895 33.9408 27.5812L39.8181 16.2165C40.0378 15.7512 40.0594 15.2151 39.8779 14.733C39.6957 14.2327 39.3161 13.8318 38.8307 13.6257C37.8388 13.2693 36.7427 13.7423 36.309 14.7136L30.9964 25.227C30.736 25.7487 30.1306 25.9897 29.5891 25.7874ZM21.9024 44.3549C21.3764 44.3549 20.95 43.923 20.95 43.3902C20.95 37.3623 16.8286 35.6221 16.7867 35.6048C16.4641 35.4816 16.2322 35.1915 16.1809 34.8457C16.1296 34.5004 16.2667 34.1539 16.5393 33.94C16.8123 33.7261 17.1777 33.6779 17.495 33.8147C17.7123 33.9033 22.8545 36.0708 22.8545 43.3902C22.8545 43.923 22.4281 44.3549 21.9024 44.3549ZM27.0894 36.5423C26.8632 36.6568 26.6016 36.6758 26.3619 36.5946C26.1223 36.5134 25.9242 36.3391 25.8115 36.1104C24.4322 33.3132 19.6749 32.0593 17.958 31.8116C17.4372 31.7358 17.076 31.247 17.1504 30.7196C17.2253 30.1925 17.7078 29.8262 18.2286 29.9016C18.5199 29.9441 25.4123 30.987 27.5158 35.2479C27.6289 35.477 27.6472 35.742 27.5674 35.9847C27.4873 36.2274 27.3152 36.4281 27.0894 36.5423Z" fill="white"/>
</svg>
