<svg width="63" height="60" viewBox="0 0 63 60" fill="none" xmlns="http://www.w3.org/2000/svg">
<path d="M49.8761 44.2534C50.3906 43.5424 50.695 42.6698 50.695 41.7272V36.0938C50.695 35.576 50.2752 35.1562 49.7575 35.1562H45.5676C43.6307 35.1562 42.055 36.732 42.055 38.6689V41.7272C42.055 42.6693 42.359 43.5412 42.8729 44.252C42.232 44.3559 41.6154 44.5612 41.0403 44.8618C39.7378 42.9182 37.6038 41.5778 35.1514 41.3516C35.1419 41.3489 35.1321 41.3469 35.1225 41.3446C35.9999 40.3648 36.5347 39.0722 36.5347 37.6566V30C36.5347 29.4822 36.1149 29.0625 35.5972 29.0625H29.9027C27.4559 29.0625 25.4653 31.0531 25.4653 33.4999V37.6565C25.4653 39.0721 26.0001 40.3647 26.8775 41.3445C26.8679 41.3468 26.8581 41.3489 26.8486 41.3515C24.396 41.5777 22.2618 42.9183 20.9594 44.8622C20.3841 44.5617 19.7674 44.3562 19.1268 44.2522C19.6408 43.5414 19.945 42.6694 19.945 41.7272V36.0938C19.945 35.576 19.5252 35.1562 19.0075 35.1562H14.8176C12.8808 35.1562 11.305 36.732 11.305 38.6689V41.7272C11.305 42.6699 11.6094 43.5424 12.1239 44.2534C9.22206 44.7277 7 47.2513 7 50.2852V53.0625C7 53.5803 7.41981 54 7.9375 54H54.0625C54.5802 54 55 53.5803 55 53.0625V50.2852C55 47.2513 52.7779 44.7277 49.8761 44.2534ZM13.18 38.6689C13.18 37.7659 13.9146 37.0312 14.8176 37.0312H18.07V38.173C18.07 38.7329 17.6146 39.1883 17.0548 39.1883H13.18V38.6689ZM13.18 41.0632H17.0548C17.412 41.0632 17.754 40.9977 18.07 40.8787V41.7272C18.07 43.0753 16.9732 44.1722 15.625 44.1722C14.2768 44.1722 13.18 43.0753 13.18 41.7272V41.0632ZM16.2294 46.0472L15.625 46.6516L15.0206 46.0472H16.2294ZM19.6143 49.2878V52.125H8.875V50.2852C8.875 48.1824 10.4147 46.4332 12.4256 46.1038L14.9621 48.6403C15.138 48.8161 15.3764 48.9149 15.625 48.9149C15.8736 48.9149 16.112 48.8161 16.2879 48.6403L18.8252 46.103C19.2733 46.1759 19.7043 46.3204 20.1059 46.5317C19.7883 47.391 19.6143 48.3194 19.6143 49.2878ZM31.0001 41.3163C28.9821 41.3163 27.3404 39.6745 27.3404 37.6566V36.4175H32.9432C33.5645 36.4175 34.1495 36.2588 34.6598 35.9799V37.6566C34.6598 39.6745 33.0181 41.3163 31.0001 41.3163ZM32.6343 43.1912L31 44.8254L29.3657 43.1912H32.6343ZM27.3402 33.4999H27.3403C27.3403 32.087 28.4897 30.9375 29.9027 30.9375H34.6597V32.826C34.6597 33.7725 33.8897 34.5426 32.9432 34.5426H27.3402V33.4999ZM40.5107 52.125H38.6875H23.3125H21.4893V50.25H27.5938C28.1115 50.25 28.5313 49.8303 28.5313 49.3125C28.5313 48.7947 28.1115 48.375 27.5938 48.375H21.5579C21.9597 45.7105 24.0925 43.6072 26.7703 43.2473L30.3371 46.8142C30.5202 46.9973 30.7601 47.0887 31 47.0887C31.2399 47.0887 31.4798 46.9973 31.6629 46.8142L35.2297 43.2473C38.2068 43.6475 40.5107 46.2028 40.5107 49.2878V52.125ZM43.93 38.6689C43.93 37.7659 44.6646 37.0312 45.5676 37.0312H48.82V38.173C48.82 38.7329 48.3646 39.1883 47.8048 39.1883H43.93V38.6689ZM43.93 41.0632H47.8048C48.162 41.0632 48.504 40.9977 48.82 40.8787V41.7272C48.82 43.0753 47.7232 44.1722 46.375 44.1722C45.0268 44.1722 43.93 43.0753 43.93 41.7272V41.0632ZM46.9794 46.0472L46.375 46.6516L45.7706 46.0472H46.9794ZM42.3857 52.125V49.2878C42.3857 48.3193 42.2117 47.3909 41.8939 46.5315C42.2954 46.32 42.7262 46.1756 43.1745 46.1028L45.712 48.6403C45.8879 48.8161 46.1263 48.9149 46.3749 48.9149C46.6235 48.9149 46.8619 48.8161 47.0378 48.6403L49.5743 46.1038C51.5853 46.4333 53.1249 48.1824 53.1249 50.2852V52.125H42.3857Z" fill="white"/>
<path d="M35.6208 12.1252C35.2546 11.7591 34.6612 11.7591 34.2949 12.1252L29.6946 16.7256L27.7059 14.7368C27.3397 14.3707 26.7462 14.3707 26.38 14.7367C26.0139 15.1028 26.0139 15.6965 26.38 16.0627L29.0317 18.7143C29.2075 18.8901 29.4459 18.9889 29.6946 18.9889C29.9432 18.9889 30.1816 18.8901 30.3575 18.7143L35.6208 13.451C35.9869 13.0849 35.9869 12.4912 35.6208 12.1252Z" fill="#F78012"/>
<path d="M34.8331 6.81295C34.3604 6.6021 33.806 6.81445 33.5951 7.28732C33.3841 7.7602 33.5966 8.31454 34.0695 8.52538C36.7881 9.73785 38.5448 12.4441 38.5448 15.4199C38.5448 19.5802 35.1601 22.9649 30.9999 22.9649C26.8396 22.9649 23.455 19.5802 23.455 15.4199C23.455 12.4595 25.199 9.75885 27.8981 8.53982C28.3699 8.32673 28.5797 7.77135 28.3665 7.29951C28.1535 6.82757 27.5978 6.61785 27.1263 6.83095C23.7571 8.3527 21.5801 11.724 21.5801 15.4199C21.58 20.6141 25.8058 24.8399 30.9999 24.8399C36.194 24.8399 40.4198 20.6141 40.4198 15.4199C40.4198 11.7049 38.2269 8.32645 34.8331 6.81295Z" fill="white"/>
<path d="M31.0336 6H31C30.4823 6 30.0625 6.41972 30.0625 6.9375C30.0625 7.45528 30.4823 7.875 31 7.875H31.0248C31.0263 7.875 31.0277 7.875 31.0293 7.875C31.545 7.875 31.9642 7.45819 31.9667 6.94191C31.9691 6.42413 31.5513 6.00244 31.0336 6Z" fill="white"/>
<path d="M31.6627 48.6497C31.4884 48.4753 31.2466 48.375 31 48.375C30.7534 48.375 30.5116 48.4753 30.3372 48.6497C30.1628 48.8241 30.0625 49.0659 30.0625 49.3125C30.0625 49.5591 30.1627 49.8009 30.3372 49.9753C30.5117 50.1497 30.7534 50.25 31 50.25C31.2466 50.25 31.4884 50.1497 31.6627 49.9753C31.8371 49.8009 31.9375 49.5591 31.9375 49.3125C31.9375 49.0659 31.8372 48.8241 31.6627 48.6497Z" fill="white"/>
</svg>
