<svg width="42" height="26" viewBox="0 0 42 26" fill="none" xmlns="http://www.w3.org/2000/svg">
<path d="M0 26H42V22H0V26Z" fill="#B53E3E"/>
<path d="M42 0H0V4H42V0Z" fill="#B53E3E"/>
<path d="M5.84716 6.47754C5.84716 6.47754 1.0378 12.3865 1.55903 12.841C2.08026 13.2956 5.83556 19.2045 5.83556 19.2045C5.83556 19.2045 9.56189 14.2043 10.2544 12.841C10.9469 11.4774 5.84716 6.47754 5.84716 6.47754Z" fill="#0B872D"/>
<path d="M16.2456 6.47754C16.2456 6.47754 11.4362 12.3865 11.9575 12.841C12.4791 13.2956 16.234 19.2045 16.234 19.2045C16.234 19.2045 19.9603 14.2043 20.6529 12.841C21.3454 11.4774 16.2456 6.47754 16.2456 6.47754Z" fill="#B53E3E"/>
<path d="M26.1906 6.47754C26.1906 6.47754 21.3812 12.3865 21.9028 12.841C22.4241 13.2956 26.179 19.2045 26.179 19.2045C26.179 19.2045 29.9053 14.2043 30.5982 12.841C31.2907 11.4774 26.1906 6.47754 26.1906 6.47754Z" fill="#0B872D"/>
<path d="M36.5894 6.47754C36.5894 6.47754 31.78 12.3865 32.3012 12.841C32.8224 13.2956 36.5774 19.2045 36.5774 19.2045C36.5774 19.2045 40.3041 14.2043 40.9966 12.841C41.6891 11.4774 36.5894 6.47754 36.5894 6.47754Z" fill="#B53E3E"/>
</svg>
