<svg width="63" height="60" viewBox="0 0 63 60" fill="none" xmlns="http://www.w3.org/2000/svg">
<path d="M32.4512 11.9091V13.8636H28.5514V11.9091H32.4512ZM30.5013 25.8059L40.9916 29.2655L45.6518 30.79L43.4679 38.5495C42.415 37.9632 41.6351 37.1618 41.2451 36.7123L38.3008 33.3309L35.3565 36.6927C34.6935 37.4745 32.8606 39.2727 30.5013 39.2727C28.1419 39.2727 26.3091 37.4745 25.6461 36.6927L22.7018 33.3309L19.7575 36.6927C19.3675 37.1423 18.5876 37.9241 17.5346 38.5105L15.3313 30.7705L20.011 29.2264L30.5013 25.8059ZM36.3509 8H24.6517V13.8636H18.8021C16.6572 13.8636 14.9023 15.6227 14.9023 17.7727V26.8027L12.387 27.6236C12.1369 27.7006 11.9047 27.8269 11.704 27.9951C11.5034 28.1633 11.3382 28.37 11.2183 28.6031C11.0985 28.8362 11.0262 29.0909 11.0059 29.3523C10.9856 29.6137 11.0176 29.8766 11.1001 30.1255L14.8048 43.1818H14.9023C18.0221 43.1818 20.7909 41.4618 22.7018 39.2727C24.6127 41.4618 27.3815 43.1818 30.5013 43.1818C33.6211 43.1818 36.3899 41.4618 38.3008 39.2727C40.2116 41.4618 42.9805 43.1818 46.1003 43.1818H46.1978L49.883 30.1255C50.039 29.6173 50 29.07 49.766 28.6009C49.532 28.1318 49.1031 27.78 48.5961 27.6236L46.1003 26.8027V17.7727C46.1003 15.6227 44.3454 13.8636 42.2005 13.8636H36.3509V8ZM18.8021 25.5323V17.7727H42.2005V25.5323L30.5013 21.6818L18.8021 25.5323Z" fill="white"/>
<path d="M30.5007 47.0126C33.211 47.0126 35.9213 46.1721 38.3001 44.5107C40.679 46.1721 43.3893 47.0907 46.0996 47.0907H49.9994V50.9998H46.0996C43.4088 50.9998 40.757 50.3353 38.3001 49.0648C35.8433 50.3353 33.172 50.9607 30.5007 50.9607C27.8293 50.9607 25.158 50.3157 22.7012 49.0648C20.2443 50.3157 17.5925 50.9998 14.9017 50.9998H11.002V47.0907H14.9017C17.612 47.0907 20.3223 46.1721 22.7012 44.5107C25.08 46.1721 27.7903 47.0126 30.5007 47.0126Z" fill="#F78012"/>
</svg>
