<svg width="42" height="48" viewBox="0 0 42 48" fill="none" xmlns="http://www.w3.org/2000/svg">
<path d="M20.9984 27.0708C24.3101 27.0708 32.0964 23.0852 32.0964 13.5353C32.0965 6.05992 31.0874 0 20.9984 0C10.9095 0 9.90039 6.05992 9.90039 13.5354C9.90039 23.0852 17.6867 27.0708 20.9984 27.0708ZM11.5591 11.2764C12.3386 9.76877 14.0249 8.0265 17.6514 8.10378C17.6514 8.10378 19.8129 13.3468 30.4246 10.9923C30.4675 11.8298 30.4809 12.6843 30.4809 13.5354C30.4809 18.2034 28.4198 21.0957 26.6905 22.7C24.5117 24.7217 22.0927 25.4554 20.9984 25.4554C19.904 25.4554 17.485 24.7217 15.3062 22.7C13.577 21.0957 11.5158 18.2034 11.5158 13.5354C11.516 12.7803 11.5269 12.0225 11.5591 11.2764Z" fill="white"/>
<path d="M41.602 40.9514C41.0354 37.4283 39.8689 32.8902 37.5294 31.2775C35.9318 30.176 30.3578 27.198 27.9776 25.9263L27.9364 25.9044C27.6644 25.759 27.3322 25.7881 27.0895 25.9786C25.8426 26.9575 24.4767 27.6173 23.0299 27.9394C22.7743 27.9964 22.5645 28.178 22.4716 28.4228L20.9982 32.3064L19.5249 28.4228C19.4319 28.178 19.2222 27.9964 18.9666 27.9394C17.5197 27.6173 16.1539 26.9575 14.907 25.9786C14.6643 25.7881 14.3321 25.7589 14.06 25.9044C11.7081 27.1611 6.06594 30.1998 4.47412 31.2727C1.78096 33.087 0.603291 39.6535 0.394636 40.9514C0.373908 41.0802 0.385988 41.2118 0.429366 41.3347C0.525732 41.6068 2.99747 47.999 20.9982 47.999C38.999 47.999 41.4707 41.6068 41.5671 41.3347C41.6106 41.2118 41.6227 41.0801 41.602 40.9514ZM33.3071 38.8016L29.7837 39.8998L26.2603 38.8016V36.9058H33.3071V38.8016Z" fill="white"/>
</svg>
