<svg width="56" height="46" viewBox="0 0 56 46" fill="none" xmlns="http://www.w3.org/2000/svg">
<path d="M43.7678 28.1948C43.7678 27.7736 42.9482 27.4326 41.9376 27.4326C40.927 27.4326 40.1074 27.7736 40.1074 28.1948C40.1074 28.6159 40.927 28.9569 41.9376 28.9569C42.9482 28.9569 43.7678 28.6159 43.7678 28.1948Z" fill="white"/>
<path d="M35.63 29.2093H34.6016C35.3405 30.8564 37.8739 32.2426 40.9236 32.4896V32.1328C40.9236 31.573 41.3774 31.1192 41.9372 31.1192C42.4969 31.1192 42.9507 31.573 42.9507 32.1328V32.4896C46.0004 32.2426 48.5339 30.8564 49.2728 29.2093H48.2443C47.6846 29.2093 47.2308 28.7555 47.2308 28.1957C47.2308 27.636 47.6846 27.1822 48.2443 27.1822H49.2728C48.5339 25.4084 46.0004 24.1444 42.9507 23.9004V24.2567C42.9507 24.8165 42.4969 25.2703 41.9372 25.2703C41.3774 25.2703 40.9236 24.8165 40.9236 24.2567V23.9004C37.8739 24.1444 35.3405 25.4084 34.6016 27.1822H35.63C36.1897 27.1822 36.6436 27.636 36.6436 28.1957C36.6436 28.7555 36.1897 29.2093 35.63 29.2093ZM41.9372 25.4054C44.1004 25.4054 45.7945 26.6308 45.7945 28.1948C45.7945 29.7587 44.1004 30.9841 41.9372 30.9841C39.7739 30.9841 38.0798 29.7587 38.0798 28.1948C38.0798 26.6308 39.7739 25.4054 41.9372 25.4054Z" fill="white"/>
<path d="M7.75695 29.2093H6.72852C7.46742 30.8564 10.0009 32.2426 13.0505 32.4896V32.1328C13.0505 31.573 13.5044 31.1192 14.0641 31.1192C14.6239 31.1192 15.0777 31.573 15.0777 32.1328V32.4896C18.1274 32.2426 20.6608 30.8564 21.3997 29.2093H20.3713C19.8115 29.2093 19.3577 28.7555 19.3577 28.1957C19.3577 27.636 19.8115 27.1822 20.3713 27.1822H21.3997C20.6608 25.4084 18.1274 24.1444 15.0777 23.9004V24.2567C15.0777 24.8165 14.6239 25.2703 14.0641 25.2703C13.5044 25.2703 13.0505 24.8165 13.0505 24.2567V23.9004C10.0009 24.1444 7.46742 25.4084 6.72852 27.1822H7.75695C8.31669 27.1822 8.77053 27.636 8.77053 28.1957C8.77053 28.7555 8.31669 29.2093 7.75695 29.2093ZM14.0641 25.4054C16.2274 25.4054 17.9215 26.6308 17.9215 28.1948C17.9215 29.7587 16.2274 30.9841 14.0641 30.9841C11.9009 30.9841 10.2068 29.7587 10.2068 28.1948C10.2068 26.6308 11.9009 25.4054 14.0641 25.4054Z" fill="white"/>
<path d="M15.8909 28.1948C15.8909 27.7736 15.0713 27.4326 14.0607 27.4326C13.05 27.4326 12.2305 27.7736 12.2305 28.1948C12.2305 28.6159 13.05 28.9569 14.0607 28.9569C15.0713 28.9569 15.8909 28.6159 15.8909 28.1948Z" fill="white"/>
<path d="M0.326172 37.9509H55.6753L51.084 18.4395H4.91748L0.326172 37.9509ZM41.9375 21.8301C47.3107 21.8301 51.52 24.6259 51.52 28.1942C51.52 31.7625 47.3107 34.5583 41.9375 34.5583C36.5642 34.5583 32.355 31.7625 32.355 28.1942C32.355 24.6259 36.5642 21.8301 41.9375 21.8301ZM14.064 21.8301C19.4372 21.8301 23.6465 24.6259 23.6465 28.1942C23.6465 31.7625 19.4372 34.5583 14.064 34.5583C8.6907 34.5583 4.48146 31.7625 4.48146 28.1942C4.48146 24.6259 8.6907 21.8301 14.064 21.8301Z" fill="white"/>
<path d="M0 45.5532H56.0004V39.9785H0V45.5532ZM47.1791 40.6189C48.3817 40.6189 49.3567 41.5939 49.3567 42.7965C49.3567 43.9992 48.3817 44.9742 47.1791 44.9742C45.9764 44.9742 45.0015 43.9992 45.0015 42.7965C45.0015 41.5939 45.9764 40.6189 47.1791 40.6189ZM41.0659 40.6189C42.2685 40.6189 43.2435 41.5939 43.2435 42.7965C43.2435 43.9992 42.2685 44.9742 41.0659 44.9742C39.8633 44.9742 38.8888 43.9992 38.8888 42.7965C38.8883 41.5939 39.8633 40.6189 41.0659 40.6189Z" fill="white"/>
<path d="M20.0169 10.9642H28.1255C32.602 10.9587 36.2292 7.33101 36.2342 2.85452V1.46085C36.2342 0.901101 35.7803 0.447266 35.2206 0.447266C34.6608 0.447266 34.207 0.901101 34.207 1.46085V2.85452C34.203 6.21201 31.483 8.93255 28.1255 8.937H20.0169C15.5458 8.95482 11.926 12.5746 11.9082 17.0457H13.9354C13.9354 13.7515 16.6633 10.9642 20.0169 10.9642Z" fill="white"/>
</svg>
