<svg width="24" height="21" viewBox="0 0 24 21" fill="none" xmlns="http://www.w3.org/2000/svg">
<path d="M7.52051 0L2.62695 9.23926H7.52051H12.4141L7.52051 0Z" fill="#0B872D"/>
<path d="M7.52054 2.94727L1.75977 13.8239H7.52054H13.2816L7.52054 2.94727Z" fill="#0B872D"/>
<path d="M7.52101 6.26855L1.14062 18.3152H7.52101H13.9014L7.52101 6.26855Z" fill="#0B872D"/>
<path d="M7.99067 19.8596H7.05469V16.8652H7.99067V19.8596Z" fill="#0B872D"/>
<path d="M19.3757 19.8596H18.4395V16.8652H19.3757V19.8596Z" fill="#B53E3E"/>
<path d="M18.9052 5.2793L15.4492 11.8046H18.9052H22.3614L18.9052 5.2793Z" fill="#B53E3E"/>
<path d="M18.9085 7.36035L14.8398 15.0423H18.9085H22.9774L18.9085 7.36035Z" fill="#B53E3E"/>
<path d="M18.9064 9.70654L14.4004 18.2146H18.9064H23.4126L18.9064 9.70654Z" fill="#B53E3E"/>
<path d="M24 21H0V20H24V21Z" fill="#0B872D"/>
</svg>
