<?xml version="1.0" standalone="no"?>
<!DOCTYPE svg PUBLIC "-//W3C//DTD SVG 20010904//EN"
 "http://www.w3.org/TR/2001/REC-SVG-20010904/DTD/svg10.dtd">
<svg version="1.0" xmlns="http://www.w3.org/2000/svg"
 width="580.000000pt" height="580.000000pt" viewBox="0 0 580.000000 580.000000"
 preserveAspectRatio="xMidYMid meet">
<metadata>
Created by potrace 1.11, written by Peter Selinger 2001-2013
</metadata>
<g transform="translate(0.000000,580.000000) scale(0.100000,-0.100000)"
fill="#000000" stroke="none">
<path d="M1153 4922 c-38 -4 -38 -4 -94 -112 -24 -47 -46 -87 -49 -90 -3 -3
-21 -35 -40 -71 l-34 -67 104 -313 c57 -173 116 -351 131 -396 l27 -81 -49
-102 c-28 -56 -81 -166 -118 -243 -38 -78 -110 -227 -161 -332 -132 -271 -229
-472 -256 -529 l-23 -49 33 -61 c18 -34 64 -119 101 -191 38 -71 86 -164 108
-205 112 -212 150 -285 207 -395 34 -66 77 -147 95 -180 18 -33 61 -114 95
-180 157 -301 183 -350 189 -357 3 -3 47 -9 96 -13 50 -3 108 -8 130 -10 22
-3 76 -7 120 -11 85 -6 111 -8 245 -18 47 -4 117 -9 155 -12 39 -3 86 -7 105
-9 170 -20 951 -27 1130 -11 47 4 101 9 120 11 19 2 76 6 125 9 50 4 113 9
140 11 28 3 82 7 120 10 65 5 114 9 255 20 30 3 91 8 135 11 44 3 83 8 86 12
6 7 38 66 159 297 29 55 69 132 90 170 21 39 77 147 125 240 48 94 91 175 95
180 4 6 49 91 100 190 51 99 100 194 110 210 9 17 47 87 84 157 l66 126 -91
189 c-50 103 -119 247 -154 318 -108 223 -294 607 -329 678 l-34 68 132 395
133 395 -90 167 c-50 92 -91 168 -93 170 -1 2 -125 4 -274 4 l-273 0 -191
-191 -191 -191 -854 0 -855 0 -189 190 -189 190 -67 1 c-36 0 -145 1 -241 2
-96 1 -189 1 -207 -1z"/>
</g>
</svg>
